<svg width="456" height="356" viewBox="0 0 456 356" fill="none" xmlns="http://www.w3.org/2000/svg">
<rect width="456" height="355" transform="translate(0 0.5)" fill="white"/>
<rect x="84.5" y="25" width="83" height="32" rx="11.5" stroke="#E2E2E5"/>
<path d="M107.945 46.5H101.531V35.0781H107.945V36.4531H103.133V39.8516H107.656V41.2109H103.133V45.1172H107.945V46.5ZM116.164 34.9141V36.3203C117.383 36.3411 118.352 36.5443 119.07 36.9297C119.794 37.3099 120.312 37.8151 120.625 38.4453C120.943 39.0755 121.102 39.7812 121.102 40.5625C121.102 41.0938 121.018 41.6146 120.852 42.125C120.685 42.6302 120.411 43.0885 120.031 43.5C119.656 43.9115 119.151 44.2448 118.516 44.5C117.885 44.75 117.102 44.8828 116.164 44.8984V46.6562H114.641V44.8984C113.688 44.8828 112.891 44.7448 112.25 44.4844C111.615 44.224 111.109 43.888 110.734 43.4766C110.365 43.0599 110.099 42.6016 109.938 42.1016C109.781 41.5964 109.703 41.0885 109.703 40.5781C109.703 40.0052 109.789 39.4661 109.961 38.9609C110.138 38.4557 110.419 38.0078 110.805 37.6172C111.19 37.2266 111.698 36.9167 112.328 36.6875C112.958 36.4583 113.729 36.3359 114.641 36.3203V34.9141H116.164ZM114.641 37.6328C113.818 37.6589 113.159 37.7943 112.664 38.0391C112.174 38.2839 111.82 38.6224 111.602 39.0547C111.388 39.4818 111.281 39.9844 111.281 40.5625C111.281 41.1719 111.401 41.7005 111.641 42.1484C111.88 42.5964 112.247 42.9453 112.742 43.1953C113.237 43.4453 113.87 43.5833 114.641 43.6094V37.6328ZM116.164 37.6328V43.6094C116.956 43.5833 117.596 43.4427 118.086 43.1875C118.581 42.9323 118.943 42.5807 119.172 42.1328C119.406 41.6797 119.523 41.151 119.523 40.5469C119.523 39.9688 119.414 39.4661 119.195 39.0391C118.982 38.612 118.63 38.2786 118.141 38.0391C117.651 37.7943 116.992 37.6589 116.164 37.6328ZM126.586 35.0781C128.06 35.0781 129.135 35.3724 129.812 35.9609C130.495 36.5495 130.836 37.3854 130.836 38.4688C130.836 38.9583 130.758 39.4245 130.602 39.8672C130.445 40.3047 130.19 40.6927 129.836 41.0312C129.487 41.3646 129.026 41.6302 128.453 41.8281C127.88 42.0208 127.177 42.1172 126.344 42.1172H125.039V46.5H123.438V35.0781H126.586ZM126.461 36.4219H125.039V40.7656H126.172C126.833 40.7656 127.388 40.6927 127.836 40.5469C128.284 40.3958 128.622 40.1562 128.852 39.8281C129.081 39.5 129.195 39.0677 129.195 38.5312C129.195 37.8229 128.974 37.2943 128.531 36.9453C128.089 36.5964 127.398 36.4219 126.461 36.4219ZM138.047 36.2969C137.458 36.2969 136.93 36.401 136.461 36.6094C135.997 36.8125 135.604 37.112 135.281 37.5078C134.958 37.8984 134.711 38.3698 134.539 38.9219C134.367 39.474 134.281 40.0964 134.281 40.7891C134.281 41.7109 134.417 42.5078 134.688 43.1797C134.964 43.8516 135.378 44.3698 135.93 44.7344C136.482 45.099 137.177 45.2812 138.016 45.2812C138.516 45.2812 138.992 45.237 139.445 45.1484C139.904 45.0547 140.359 44.9349 140.812 44.7891V46.1641C140.375 46.3307 139.922 46.4531 139.453 46.5312C138.99 46.6146 138.445 46.6562 137.82 46.6562C136.654 46.6562 135.682 46.4141 134.906 45.9297C134.135 45.4453 133.56 44.7656 133.18 43.8906C132.799 43.0104 132.609 41.974 132.609 40.7812C132.609 39.9167 132.729 39.1276 132.969 38.4141C133.208 37.6953 133.56 37.0755 134.023 36.5547C134.487 36.0286 135.055 35.625 135.727 35.3438C136.404 35.0573 137.182 34.9141 138.062 34.9141C138.635 34.9141 139.193 34.9766 139.734 35.1016C140.281 35.2214 140.784 35.3906 141.242 35.6094L140.648 36.9453C140.268 36.7734 139.859 36.6224 139.422 36.4922C138.99 36.362 138.531 36.2969 138.047 36.2969ZM143.281 46.5V35.0781H150.117V36.4531H144.883V39.8203H146.453C147.547 39.8203 148.411 39.9583 149.047 40.2344C149.682 40.5104 150.135 40.8958 150.406 41.3906C150.682 41.8854 150.82 42.4557 150.82 43.1016C150.82 44.1745 150.49 45.0104 149.828 45.6094C149.172 46.2031 148.094 46.5 146.594 46.5H143.281ZM144.883 45.1484H146.461C147.419 45.1484 148.112 44.9844 148.539 44.6562C148.966 44.3229 149.18 43.8047 149.18 43.1016C149.18 42.6172 149.076 42.2344 148.867 41.9531C148.664 41.6719 148.346 41.474 147.914 41.3594C147.482 41.2396 146.924 41.1797 146.242 41.1797H144.883V45.1484Z" fill="#0D0628"/>
<rect x="176.5" y="25" width="123" height="32" rx="11.5" stroke="#E2E2E5"/>
<path d="M199.258 34.9141V36.3203C200.477 36.3411 201.445 36.5443 202.164 36.9297C202.888 37.3099 203.406 37.8151 203.719 38.4453C204.036 39.0755 204.195 39.7812 204.195 40.5625C204.195 41.0938 204.112 41.6146 203.945 42.125C203.779 42.6302 203.505 43.0885 203.125 43.5C202.75 43.9115 202.245 44.2448 201.609 44.5C200.979 44.75 200.195 44.8828 199.258 44.8984V46.6562H197.734V44.8984C196.781 44.8828 195.984 44.7448 195.344 44.4844C194.708 44.224 194.203 43.888 193.828 43.4766C193.458 43.0599 193.193 42.6016 193.031 42.1016C192.875 41.5964 192.797 41.0885 192.797 40.5781C192.797 40.0052 192.883 39.4661 193.055 38.9609C193.232 38.4557 193.513 38.0078 193.898 37.6172C194.284 37.2266 194.792 36.9167 195.422 36.6875C196.052 36.4583 196.823 36.3359 197.734 36.3203V34.9141H199.258ZM197.734 37.6328C196.911 37.6589 196.253 37.7943 195.758 38.0391C195.268 38.2839 194.914 38.6224 194.695 39.0547C194.482 39.4818 194.375 39.9844 194.375 40.5625C194.375 41.1719 194.495 41.7005 194.734 42.1484C194.974 42.5964 195.341 42.9453 195.836 43.1953C196.331 43.4453 196.964 43.5833 197.734 43.6094V37.6328ZM199.258 37.6328V43.6094C200.049 43.5833 200.69 43.4427 201.18 43.1875C201.674 42.9323 202.036 42.5807 202.266 42.1328C202.5 41.6797 202.617 41.151 202.617 40.5469C202.617 39.9688 202.508 39.4661 202.289 39.0391C202.076 38.612 201.724 38.2786 201.234 38.0391C200.745 37.7943 200.086 37.6589 199.258 37.6328ZM212.945 46.5H206.531V35.0781H212.945V36.4531H208.133V39.8516H212.656V41.2109H208.133V45.1172H212.945V46.5ZM223.383 35.0781V45.1016H224.82V49.5703H223.281V46.5H215.539V49.5703H214V45.1016H214.875C215.24 44.4557 215.583 43.7396 215.906 42.9531C216.234 42.1615 216.529 41.3307 216.789 40.4609C217.049 39.5859 217.268 38.6953 217.445 37.7891C217.622 36.8776 217.745 35.974 217.812 35.0781H223.383ZM221.789 36.4766H219.172C219.115 37.1016 219.008 37.7891 218.852 38.5391C218.701 39.2891 218.505 40.0599 218.266 40.8516C218.031 41.638 217.768 42.3984 217.477 43.1328C217.19 43.862 216.885 44.5182 216.562 45.1016H221.789V36.4766ZM229.852 35.0781C231.326 35.0781 232.401 35.3724 233.078 35.9609C233.76 36.5495 234.102 37.3854 234.102 38.4688C234.102 38.9583 234.023 39.4245 233.867 39.8672C233.711 40.3047 233.456 40.6927 233.102 41.0312C232.753 41.3646 232.292 41.6302 231.719 41.8281C231.146 42.0208 230.443 42.1172 229.609 42.1172H228.305V46.5H226.703V35.0781H229.852ZM229.727 36.4219H228.305V40.7656H229.438C230.099 40.7656 230.654 40.6927 231.102 40.5469C231.549 40.3958 231.888 40.1562 232.117 39.8281C232.346 39.5 232.461 39.0677 232.461 38.5312C232.461 37.8229 232.24 37.2943 231.797 36.9453C231.354 36.5964 230.664 36.4219 229.727 36.4219ZM242.852 46.5H236.438V35.0781H242.852V36.4531H238.039V39.8516H242.562V41.2109H238.039V45.1172H242.852V46.5ZM250.219 36.2969C249.63 36.2969 249.102 36.401 248.633 36.6094C248.169 36.8125 247.776 37.112 247.453 37.5078C247.13 37.8984 246.883 38.3698 246.711 38.9219C246.539 39.474 246.453 40.0964 246.453 40.7891C246.453 41.7109 246.589 42.5078 246.859 43.1797C247.135 43.8516 247.549 44.3698 248.102 44.7344C248.654 45.099 249.349 45.2812 250.188 45.2812C250.688 45.2812 251.164 45.237 251.617 45.1484C252.076 45.0547 252.531 44.9349 252.984 44.7891V46.1641C252.547 46.3307 252.094 46.4531 251.625 46.5312C251.161 46.6146 250.617 46.6562 249.992 46.6562C248.826 46.6562 247.854 46.4141 247.078 45.9297C246.307 45.4453 245.732 44.7656 245.352 43.8906C244.971 43.0104 244.781 41.974 244.781 40.7812C244.781 39.9167 244.901 39.1276 245.141 38.4141C245.38 37.6953 245.732 37.0755 246.195 36.5547C246.659 36.0286 247.227 35.625 247.898 35.3438C248.576 35.0573 249.354 34.9141 250.234 34.9141C250.807 34.9141 251.365 34.9766 251.906 35.1016C252.453 35.2214 252.956 35.3906 253.414 35.6094L252.82 36.9453C252.44 36.7734 252.031 36.6224 251.594 36.4922C251.161 36.362 250.703 36.2969 250.219 36.2969ZM263.984 35.0781L260.312 43.3047C259.99 44.0339 259.659 44.6484 259.32 45.1484C258.982 45.6484 258.57 46.026 258.086 46.2812C257.607 46.5312 256.992 46.6562 256.242 46.6562C255.945 46.6562 255.659 46.6328 255.383 46.5859C255.107 46.5443 254.857 46.4896 254.633 46.4219V44.9141C254.857 45.013 255.096 45.0885 255.352 45.1406C255.612 45.1927 255.878 45.2188 256.148 45.2188C256.534 45.2188 256.862 45.1589 257.133 45.0391C257.404 44.9141 257.635 44.7266 257.828 44.4766C258.026 44.2214 258.211 43.8958 258.383 43.5L254.094 35.0781H255.82L258.789 41.1016C258.836 41.1849 258.885 41.2865 258.938 41.4062C258.99 41.526 259.042 41.6484 259.094 41.7734C259.151 41.8984 259.198 42.0182 259.234 42.1328H259.297C259.333 42.0391 259.375 41.9297 259.422 41.8047C259.469 41.6797 259.516 41.5547 259.562 41.4297C259.615 41.3047 259.661 41.1953 259.703 41.1016L262.305 35.0781H263.984ZM268.664 35.0781C270.138 35.0781 271.214 35.3724 271.891 35.9609C272.573 36.5495 272.914 37.3854 272.914 38.4688C272.914 38.9583 272.836 39.4245 272.68 39.8672C272.523 40.3047 272.268 40.6927 271.914 41.0312C271.565 41.3646 271.104 41.6302 270.531 41.8281C269.958 42.0208 269.255 42.1172 268.422 42.1172H267.117V46.5H265.516V35.0781H268.664ZM268.539 36.4219H267.117V40.7656H268.25C268.911 40.7656 269.466 40.6927 269.914 40.5469C270.362 40.3958 270.701 40.1562 270.93 39.8281C271.159 39.5 271.273 39.0677 271.273 38.5312C271.273 37.8229 271.052 37.2943 270.609 36.9453C270.167 36.5964 269.477 36.4219 268.539 36.4219ZM280.125 36.2969C279.536 36.2969 279.008 36.401 278.539 36.6094C278.076 36.8125 277.682 37.112 277.359 37.5078C277.036 37.8984 276.789 38.3698 276.617 38.9219C276.445 39.474 276.359 40.0964 276.359 40.7891C276.359 41.7109 276.495 42.5078 276.766 43.1797C277.042 43.8516 277.456 44.3698 278.008 44.7344C278.56 45.099 279.255 45.2812 280.094 45.2812C280.594 45.2812 281.07 45.237 281.523 45.1484C281.982 45.0547 282.438 44.9349 282.891 44.7891V46.1641C282.453 46.3307 282 46.4531 281.531 46.5312C281.068 46.6146 280.523 46.6562 279.898 46.6562C278.732 46.6562 277.76 46.4141 276.984 45.9297C276.214 45.4453 275.638 44.7656 275.258 43.8906C274.878 43.0104 274.688 41.974 274.688 40.7812C274.688 39.9167 274.807 39.1276 275.047 38.4141C275.286 37.6953 275.638 37.0755 276.102 36.5547C276.565 36.0286 277.133 35.625 277.805 35.3438C278.482 35.0573 279.26 34.9141 280.141 34.9141C280.714 34.9141 281.271 34.9766 281.812 35.1016C282.359 35.2214 282.862 35.3906 283.32 35.6094L282.727 36.9453C282.346 36.7734 281.938 36.6224 281.5 36.4922C281.068 36.362 280.609 36.2969 280.125 36.2969Z" fill="#0D0628"/>
<rect x="308.5" y="25" width="63" height="32" rx="11.5" stroke="#E2E2E5"/>
<path d="M334 46.5H332.109L327.133 40.7031V46.5H325.531V35.0781H327.133V40.6094L331.992 35.0781H333.781L328.953 40.6094L334 46.5ZM342.672 46.5L341.406 43.1016H336.93L335.68 46.5H334.016L338.375 35.0312H340.016L344.352 46.5H342.672ZM340.961 41.7109L339.758 38.3438C339.721 38.2292 339.664 38.0573 339.586 37.8281C339.513 37.599 339.438 37.362 339.359 37.1172C339.286 36.8724 339.227 36.6693 339.18 36.5078C339.128 36.7214 339.068 36.9479 339 37.1875C338.932 37.4219 338.865 37.6432 338.797 37.8516C338.734 38.0547 338.682 38.2188 338.641 38.3438L337.422 41.7109H340.961ZM353.852 35.0781V45.1016H355.289V49.5703H353.75V46.5H346.008V49.5703H344.469V45.1016H345.344C345.708 44.4557 346.052 43.7396 346.375 42.9531C346.703 42.1615 346.997 41.3307 347.258 40.4609C347.518 39.5859 347.737 38.6953 347.914 37.7891C348.091 36.8776 348.214 35.974 348.281 35.0781H353.852ZM352.258 36.4766H349.641C349.583 37.1016 349.477 37.7891 349.32 38.5391C349.169 39.2891 348.974 40.0599 348.734 40.8516C348.5 41.638 348.237 42.3984 347.945 43.1328C347.659 43.862 347.354 44.5182 347.031 45.1016H352.258V36.4766Z" fill="#0D0628"/>
<rect x="80.5" y="66" width="76" height="32" rx="11.5" stroke="#E2E2E5"/>
<path d="M103.258 75.9141V77.3203C104.477 77.3411 105.445 77.5443 106.164 77.9297C106.888 78.3099 107.406 78.8151 107.719 79.4453C108.036 80.0755 108.195 80.7812 108.195 81.5625C108.195 82.0938 108.112 82.6146 107.945 83.125C107.779 83.6302 107.505 84.0885 107.125 84.5C106.75 84.9115 106.245 85.2448 105.609 85.5C104.979 85.75 104.195 85.8828 103.258 85.8984V87.6562H101.734V85.8984C100.781 85.8828 99.9844 85.7448 99.3438 85.4844C98.7083 85.224 98.2031 84.888 97.8281 84.4766C97.4583 84.0599 97.1927 83.6016 97.0312 83.1016C96.875 82.5964 96.7969 82.0885 96.7969 81.5781C96.7969 81.0052 96.8828 80.4661 97.0547 79.9609C97.2318 79.4557 97.513 79.0078 97.8984 78.6172C98.2839 78.2266 98.7917 77.9167 99.4219 77.6875C100.052 77.4583 100.823 77.3359 101.734 77.3203V75.9141H103.258ZM101.734 78.6328C100.911 78.6589 100.253 78.7943 99.7578 79.0391C99.2682 79.2839 98.9141 79.6224 98.6953 80.0547C98.4818 80.4818 98.375 80.9844 98.375 81.5625C98.375 82.1719 98.4948 82.7005 98.7344 83.1484C98.974 83.5964 99.3411 83.9453 99.8359 84.1953C100.331 84.4453 100.964 84.5833 101.734 84.6094V78.6328ZM103.258 78.6328V84.6094C104.049 84.5833 104.69 84.4427 105.18 84.1875C105.674 83.9323 106.036 83.5807 106.266 83.1328C106.5 82.6797 106.617 82.151 106.617 81.5469C106.617 80.9688 106.508 80.4661 106.289 80.0391C106.076 79.612 105.724 79.2786 105.234 79.0391C104.745 78.7943 104.086 78.6589 103.258 78.6328ZM115.406 77.2969C114.818 77.2969 114.289 77.401 113.82 77.6094C113.357 77.8125 112.964 78.112 112.641 78.5078C112.318 78.8984 112.07 79.3698 111.898 79.9219C111.727 80.474 111.641 81.0964 111.641 81.7891C111.641 82.7109 111.776 83.5078 112.047 84.1797C112.323 84.8516 112.737 85.3698 113.289 85.7344C113.841 86.099 114.536 86.2812 115.375 86.2812C115.875 86.2812 116.352 86.237 116.805 86.1484C117.263 86.0547 117.719 85.9349 118.172 85.7891V87.1641C117.734 87.3307 117.281 87.4531 116.812 87.5312C116.349 87.6146 115.805 87.6562 115.18 87.6562C114.013 87.6562 113.042 87.4141 112.266 86.9297C111.495 86.4453 110.919 85.7656 110.539 84.8906C110.159 84.0104 109.969 82.974 109.969 81.7812C109.969 80.9167 110.089 80.1276 110.328 79.4141C110.568 78.6953 110.919 78.0755 111.383 77.5547C111.846 77.0286 112.414 76.625 113.086 76.3438C113.763 76.0573 114.542 75.9141 115.422 75.9141C115.995 75.9141 116.552 75.9766 117.094 76.1016C117.641 76.2214 118.143 76.3906 118.602 76.6094L118.008 77.9453C117.628 77.7734 117.219 77.6224 116.781 77.4922C116.349 77.362 115.891 77.2969 115.406 77.2969ZM125.516 77.2969C124.927 77.2969 124.398 77.401 123.93 77.6094C123.466 77.8125 123.073 78.112 122.75 78.5078C122.427 78.8984 122.18 79.3698 122.008 79.9219C121.836 80.474 121.75 81.0964 121.75 81.7891C121.75 82.7109 121.885 83.5078 122.156 84.1797C122.432 84.8516 122.846 85.3698 123.398 85.7344C123.951 86.099 124.646 86.2812 125.484 86.2812C125.984 86.2812 126.461 86.237 126.914 86.1484C127.372 86.0547 127.828 85.9349 128.281 85.7891V87.1641C127.844 87.3307 127.391 87.4531 126.922 87.5312C126.458 87.6146 125.914 87.6562 125.289 87.6562C124.122 87.6562 123.151 87.4141 122.375 86.9297C121.604 86.4453 121.029 85.7656 120.648 84.8906C120.268 84.0104 120.078 82.974 120.078 81.7812C120.078 80.9167 120.198 80.1276 120.438 79.4141C120.677 78.6953 121.029 78.0755 121.492 77.5547C121.956 77.0286 122.523 76.625 123.195 76.3438C123.872 76.0573 124.651 75.9141 125.531 75.9141C126.104 75.9141 126.661 75.9766 127.203 76.1016C127.75 76.2214 128.253 76.3906 128.711 76.6094L128.117 77.9453C127.737 77.7734 127.328 77.6224 126.891 77.4922C126.458 77.362 126 77.2969 125.516 77.2969ZM130.75 87.5V76.0781H139.391V87.5H137.805V77.4609H132.352V87.5H130.75Z" fill="#0D0628"/>
<rect x="165.5" y="66" width="130" height="32" rx="11.5" stroke="#E2E2E5"/>
<path d="M191 87.5H189.109L184.133 81.7031V87.5H182.531V76.0781H184.133V81.6094L188.992 76.0781H190.781L185.953 81.6094L191 87.5ZM199.875 83.1797C199.875 83.888 199.781 84.5208 199.594 85.0781C199.411 85.6302 199.143 86.099 198.789 86.4844C198.44 86.8646 198.018 87.1562 197.523 87.3594C197.029 87.5573 196.469 87.6562 195.844 87.6562C195.26 87.6562 194.724 87.5573 194.234 87.3594C193.75 87.1562 193.331 86.8646 192.977 86.4844C192.622 86.099 192.349 85.6302 192.156 85.0781C191.964 84.5208 191.867 83.888 191.867 83.1797C191.867 82.237 192.029 81.4349 192.352 80.7734C192.674 80.1068 193.135 79.6016 193.734 79.2578C194.339 78.9089 195.057 78.7344 195.891 78.7344C196.682 78.7344 197.378 78.9089 197.977 79.2578C198.576 79.6068 199.042 80.112 199.375 80.7734C199.708 81.4349 199.875 82.237 199.875 83.1797ZM193.477 83.1797C193.477 83.8411 193.56 84.4115 193.727 84.8906C193.898 85.3646 194.159 85.7292 194.508 85.9844C194.862 86.2396 195.318 86.3672 195.875 86.3672C196.422 86.3672 196.872 86.2396 197.227 85.9844C197.581 85.7292 197.841 85.3646 198.008 84.8906C198.174 84.4115 198.258 83.8411 198.258 83.1797C198.258 82.5234 198.174 81.9609 198.008 81.4922C197.841 81.0234 197.581 80.6641 197.227 80.4141C196.878 80.1641 196.422 80.0391 195.859 80.0391C195.036 80.0391 194.432 80.3151 194.047 80.8672C193.667 81.4141 193.477 82.1849 193.477 83.1797ZM211.586 78.8906V87.5H210.156V82.2422C210.156 81.9661 210.161 81.6901 210.172 81.4141C210.188 81.1328 210.206 80.8594 210.227 80.5938H210.18L207.445 87.5H206.172L203.477 80.5859H203.43C203.451 80.8516 203.466 81.125 203.477 81.4062C203.487 81.6823 203.492 81.9792 203.492 82.2969V87.5H202.055V78.8906H204.203L206.82 85.625L209.477 78.8906H211.586ZM223.773 78.8906V87.5H222.344V82.2422C222.344 81.9661 222.349 81.6901 222.359 81.4141C222.375 81.1328 222.393 80.8594 222.414 80.5938H222.367L219.633 87.5H218.359L215.664 80.5859H215.617C215.638 80.8516 215.654 81.125 215.664 81.4062C215.674 81.6823 215.68 81.9792 215.68 82.2969V87.5H214.242V78.8906H216.391L219.008 85.625L221.664 78.8906H223.773ZM229.805 78.7344C230.555 78.7344 231.198 78.8958 231.734 79.2188C232.271 79.5365 232.682 79.987 232.969 80.5703C233.255 81.1536 233.398 81.8411 233.398 82.6328V83.5234H227.555C227.57 84.4453 227.807 85.1536 228.266 85.6484C228.724 86.138 229.367 86.3828 230.195 86.3828C230.742 86.3828 231.229 86.3307 231.656 86.2266C232.083 86.1224 232.526 85.9688 232.984 85.7656V87.0859C232.552 87.2839 232.117 87.4271 231.68 87.5156C231.247 87.6094 230.729 87.6562 230.125 87.6562C229.292 87.6562 228.56 87.4896 227.93 87.1562C227.305 86.8229 226.818 86.3307 226.469 85.6797C226.12 85.0234 225.945 84.2161 225.945 83.2578C225.945 82.3099 226.104 81.5 226.422 80.8281C226.74 80.151 227.188 79.6328 227.766 79.2734C228.344 78.9141 229.023 78.7344 229.805 78.7344ZM229.797 79.9531C229.161 79.9531 228.651 80.1615 228.266 80.5781C227.88 80.9896 227.654 81.5807 227.586 82.3516H231.82C231.815 81.8776 231.74 81.4609 231.594 81.1016C231.448 80.7422 231.227 80.4609 230.93 80.2578C230.638 80.0547 230.26 79.9531 229.797 79.9531ZM239.773 78.7344C240.82 78.7344 241.656 79.1068 242.281 79.8516C242.911 80.5911 243.227 81.6979 243.227 83.1719C243.227 84.151 243.081 84.974 242.789 85.6406C242.503 86.3021 242.096 86.8047 241.57 87.1484C241.049 87.487 240.438 87.6562 239.734 87.6562C239.292 87.6562 238.904 87.599 238.57 87.4844C238.237 87.3646 237.951 87.2083 237.711 87.0156C237.477 86.8177 237.279 86.6068 237.117 86.3828H237.016C237.036 86.5859 237.057 86.8229 237.078 87.0938C237.104 87.3594 237.117 87.599 237.117 87.8125V91.3281H235.539V78.8906H236.828L237.039 80.125H237.117C237.279 79.8698 237.477 79.638 237.711 79.4297C237.951 79.2161 238.24 79.0469 238.578 78.9219C238.917 78.7969 239.315 78.7344 239.773 78.7344ZM239.414 80.0312C238.862 80.0312 238.419 80.1406 238.086 80.3594C237.758 80.5729 237.516 80.8932 237.359 81.3203C237.208 81.7474 237.128 82.2839 237.117 82.9297V83.1797C237.117 83.8672 237.19 84.4479 237.336 84.9219C237.482 85.3906 237.724 85.75 238.062 86C238.401 86.2448 238.857 86.3672 239.43 86.3672C239.919 86.3672 240.326 86.2344 240.648 85.9688C240.977 85.7031 241.219 85.3281 241.375 84.8438C241.536 84.3594 241.617 83.7969 241.617 83.1562C241.617 82.1823 241.438 81.4193 241.078 80.8672C240.719 80.3099 240.164 80.0312 239.414 80.0312ZM248.875 87.6562C248.083 87.6562 247.391 87.4974 246.797 87.1797C246.203 86.862 245.742 86.3776 245.414 85.7266C245.091 85.0703 244.93 84.2422 244.93 83.2422C244.93 82.2005 245.104 81.349 245.453 80.6875C245.802 80.0208 246.284 79.5286 246.898 79.2109C247.518 78.8932 248.227 78.7344 249.023 78.7344C249.492 78.7344 249.93 78.7812 250.336 78.875C250.747 78.9688 251.091 79.0859 251.367 79.2266L250.898 80.5C250.607 80.3854 250.292 80.2839 249.953 80.1953C249.62 80.1068 249.302 80.0625 249 80.0625C248.448 80.0625 247.99 80.1849 247.625 80.4297C247.266 80.6693 246.995 81.0234 246.812 81.4922C246.63 81.9609 246.539 82.5391 246.539 83.2266C246.539 83.8932 246.628 84.4583 246.805 84.9219C246.987 85.3802 247.253 85.7292 247.602 85.9688C247.956 86.2083 248.396 86.3281 248.922 86.3281C249.385 86.3281 249.802 86.276 250.172 86.1719C250.542 86.0677 250.883 85.9349 251.195 85.7734V87.1562C250.893 87.3229 250.56 87.4479 250.195 87.5312C249.831 87.6146 249.391 87.6562 248.875 87.6562ZM256.523 78.7422C257.586 78.7422 258.38 78.9792 258.906 79.4531C259.432 79.9219 259.695 80.6641 259.695 81.6797V87.5H258.57L258.266 86.25H258.203C257.964 86.5625 257.714 86.8229 257.453 87.0312C257.193 87.2396 256.891 87.3958 256.547 87.5C256.208 87.6042 255.794 87.6562 255.305 87.6562C254.784 87.6562 254.32 87.5625 253.914 87.375C253.508 87.1875 253.188 86.9062 252.953 86.5312C252.724 86.151 252.609 85.6693 252.609 85.0859C252.609 84.2109 252.945 83.5469 253.617 83.0938C254.289 82.6406 255.307 82.3932 256.672 82.3516L258.156 82.2891V81.8047C258.156 81.1328 258.005 80.6589 257.703 80.3828C257.406 80.1068 256.99 79.9688 256.453 79.9688C256.01 79.9688 255.586 80.0339 255.18 80.1641C254.773 80.2891 254.383 80.4401 254.008 80.6172L253.508 79.4766C253.914 79.2682 254.375 79.0938 254.891 78.9531C255.411 78.8125 255.956 78.7422 256.523 78.7422ZM258.141 83.3203L256.938 83.375C255.943 83.4115 255.242 83.5781 254.836 83.875C254.435 84.1667 254.234 84.5755 254.234 85.1016C254.234 85.5599 254.372 85.8958 254.648 86.1094C254.924 86.3229 255.289 86.4297 255.742 86.4297C256.44 86.4297 257.013 86.2344 257.461 85.8438C257.914 85.4479 258.141 84.8646 258.141 84.0938V83.3203ZM263.898 78.8906V82.4297H268.312V78.8906H269.875V87.5H268.312V83.6953H263.898V87.5H262.32V78.8906H263.898ZM278.758 80.1641H275.93V87.5H274.367V80.1641H271.57V78.8906H278.758V80.1641Z" fill="#0D0628"/>
<rect x="304.5" y="66" width="71" height="32" rx="11.5" stroke="#E2E2E5"/>
<path d="M326.406 77.2969C325.818 77.2969 325.289 77.401 324.82 77.6094C324.357 77.8125 323.964 78.112 323.641 78.5078C323.318 78.8984 323.07 79.3698 322.898 79.9219C322.727 80.474 322.641 81.0964 322.641 81.7891C322.641 82.7109 322.776 83.5078 323.047 84.1797C323.323 84.8516 323.737 85.3698 324.289 85.7344C324.841 86.099 325.536 86.2812 326.375 86.2812C326.875 86.2812 327.352 86.237 327.805 86.1484C328.263 86.0547 328.719 85.9349 329.172 85.7891V87.1641C328.734 87.3307 328.281 87.4531 327.812 87.5312C327.349 87.6146 326.805 87.6562 326.18 87.6562C325.013 87.6562 324.042 87.4141 323.266 86.9297C322.495 86.4453 321.919 85.7656 321.539 84.8906C321.159 84.0104 320.969 82.974 320.969 81.7812C320.969 80.9167 321.089 80.1276 321.328 79.4141C321.568 78.6953 321.919 78.0755 322.383 77.5547C322.846 77.0286 323.414 76.625 324.086 76.3438C324.763 76.0573 325.542 75.9141 326.422 75.9141C326.995 75.9141 327.552 75.9766 328.094 76.1016C328.641 76.2214 329.143 76.3906 329.602 76.6094L329.008 77.9453C328.628 77.7734 328.219 77.6224 327.781 77.4922C327.349 77.362 326.891 77.2969 326.406 77.2969ZM341.664 81.7734C341.664 82.6536 341.552 83.4557 341.328 84.1797C341.104 84.8984 340.771 85.5182 340.328 86.0391C339.891 86.5547 339.341 86.9531 338.68 87.2344C338.023 87.5156 337.255 87.6562 336.375 87.6562C335.479 87.6562 334.698 87.5156 334.031 87.2344C333.37 86.9531 332.82 86.5521 332.383 86.0312C331.945 85.5104 331.617 84.888 331.398 84.1641C331.185 83.4401 331.078 82.638 331.078 81.7578C331.078 80.5859 331.271 79.5599 331.656 78.6797C332.042 77.7995 332.628 77.1172 333.414 76.6328C334.206 76.1432 335.201 75.8984 336.398 75.8984C337.555 75.8984 338.523 76.1406 339.305 76.625C340.086 77.1094 340.674 77.7917 341.07 78.6719C341.466 79.5469 341.664 80.5807 341.664 81.7734ZM332.758 81.7734C332.758 82.7005 332.885 83.5026 333.141 84.1797C333.401 84.8516 333.797 85.3724 334.328 85.7422C334.865 86.1068 335.547 86.2891 336.375 86.2891C337.214 86.2891 337.898 86.1068 338.43 85.7422C338.961 85.3724 339.352 84.8516 339.602 84.1797C339.852 83.5026 339.977 82.7005 339.977 81.7734C339.977 80.3672 339.69 79.2682 339.117 78.4766C338.544 77.6797 337.638 77.2812 336.398 77.2812C335.565 77.2812 334.88 77.4635 334.344 77.8281C333.807 78.1875 333.409 78.7031 333.148 79.375C332.888 80.0417 332.758 80.8411 332.758 81.7734ZM358.508 81.7734C358.508 82.6536 358.401 83.4557 358.188 84.1797C357.979 84.8984 357.664 85.5182 357.242 86.0391C356.826 86.5599 356.299 86.9609 355.664 87.2422C355.034 87.5182 354.299 87.6562 353.461 87.6562C352.383 87.6562 351.477 87.4323 350.742 86.9844C350.013 86.5365 349.453 85.9062 349.062 85.0938C348.677 84.2812 348.458 83.3281 348.406 82.2344H345.758V87.5H344.156V76.0781H345.758V80.8516H348.43C348.513 79.8516 348.753 78.9792 349.148 78.2344C349.544 77.4896 350.099 76.9141 350.812 76.5078C351.531 76.1016 352.411 75.8984 353.453 75.8984C354.562 75.8984 355.492 76.1432 356.242 76.6328C356.992 77.1172 357.557 77.7995 357.938 78.6797C358.318 79.5599 358.508 80.5911 358.508 81.7734ZM350.07 81.7578C350.07 82.6849 350.188 83.487 350.422 84.1641C350.661 84.8411 351.029 85.3646 351.523 85.7344C352.023 86.1042 352.661 86.2891 353.438 86.2891C354.229 86.2891 354.875 86.1068 355.375 85.7422C355.88 85.3724 356.25 84.8516 356.484 84.1797C356.719 83.5026 356.836 82.7005 356.836 81.7734C356.836 80.8464 356.719 80.0469 356.484 79.375C356.25 78.7031 355.885 78.1875 355.391 77.8281C354.896 77.4635 354.255 77.2812 353.469 77.2812C352.682 77.2812 352.039 77.4609 351.539 77.8203C351.039 78.1797 350.669 78.6953 350.43 79.3672C350.19 80.0339 350.07 80.8307 350.07 81.7578Z" fill="#0D0628"/>
<rect x="140" y="107" width="176" height="32" rx="11.5" stroke="#E2E2E5"/>
<path d="M163.508 119.891V127.234H164.75V131.5H163.266V128.5H157.25V131.5H155.789V127.234H156.477C156.94 126.583 157.326 125.862 157.633 125.07C157.94 124.273 158.177 123.438 158.344 122.562C158.51 121.682 158.607 120.792 158.633 119.891H163.508ZM161.969 121.117H160C159.943 121.846 159.831 122.581 159.664 123.32C159.503 124.06 159.292 124.766 159.031 125.438C158.771 126.109 158.464 126.708 158.109 127.234H161.969V121.117ZM170.633 119.734C171.68 119.734 172.516 120.107 173.141 120.852C173.771 121.591 174.086 122.698 174.086 124.172C174.086 125.151 173.94 125.974 173.648 126.641C173.362 127.302 172.956 127.805 172.43 128.148C171.909 128.487 171.297 128.656 170.594 128.656C170.151 128.656 169.763 128.599 169.43 128.484C169.096 128.365 168.81 128.208 168.57 128.016C168.336 127.818 168.138 127.607 167.977 127.383H167.875C167.896 127.586 167.917 127.823 167.938 128.094C167.964 128.359 167.977 128.599 167.977 128.812V132.328H166.398V119.891H167.688L167.898 121.125H167.977C168.138 120.87 168.336 120.638 168.57 120.43C168.81 120.216 169.099 120.047 169.438 119.922C169.776 119.797 170.174 119.734 170.633 119.734ZM170.273 121.031C169.721 121.031 169.279 121.141 168.945 121.359C168.617 121.573 168.375 121.893 168.219 122.32C168.068 122.747 167.987 123.284 167.977 123.93V124.18C167.977 124.867 168.049 125.448 168.195 125.922C168.341 126.391 168.583 126.75 168.922 127C169.26 127.245 169.716 127.367 170.289 127.367C170.779 127.367 171.185 127.234 171.508 126.969C171.836 126.703 172.078 126.328 172.234 125.844C172.396 125.359 172.477 124.797 172.477 124.156C172.477 123.182 172.297 122.419 171.938 121.867C171.578 121.31 171.023 121.031 170.273 121.031ZM174.953 119.891H176.648L178.477 124.852C178.57 125.107 178.656 125.357 178.734 125.602C178.818 125.841 178.888 126.076 178.945 126.305C179.008 126.529 179.057 126.75 179.094 126.969H179.148C179.211 126.703 179.299 126.38 179.414 126C179.529 125.62 179.654 125.234 179.789 124.844L181.539 119.891H183.227L179.508 129.719C179.305 130.266 179.057 130.734 178.766 131.125C178.479 131.521 178.138 131.823 177.742 132.031C177.346 132.245 176.878 132.352 176.336 132.352C176.086 132.352 175.865 132.336 175.672 132.305C175.484 132.279 175.323 132.247 175.188 132.211V130.961C175.302 130.987 175.44 131.01 175.602 131.031C175.768 131.052 175.94 131.062 176.117 131.062C176.445 131.062 176.727 130.997 176.961 130.867C177.201 130.742 177.404 130.562 177.57 130.328C177.742 130.094 177.885 129.82 178 129.508L178.391 128.492L174.953 119.891ZM189.977 119.891V121.164H186.148V128.5H184.57V119.891H189.977ZM193.172 119.891V124.797C193.172 124.917 193.167 125.073 193.156 125.266C193.151 125.453 193.141 125.651 193.125 125.859C193.115 126.068 193.104 126.263 193.094 126.445C193.083 126.628 193.073 126.768 193.062 126.867L197.57 119.891H199.484V128.5H198V123.688C198 123.495 198.003 123.258 198.008 122.977C198.018 122.69 198.031 122.414 198.047 122.148C198.062 121.883 198.073 121.677 198.078 121.531L193.586 128.5H191.664V119.891H193.172ZM205.555 119.734C206.305 119.734 206.948 119.896 207.484 120.219C208.021 120.536 208.432 120.987 208.719 121.57C209.005 122.154 209.148 122.841 209.148 123.633V124.523H203.305C203.32 125.445 203.557 126.154 204.016 126.648C204.474 127.138 205.117 127.383 205.945 127.383C206.492 127.383 206.979 127.331 207.406 127.227C207.833 127.122 208.276 126.969 208.734 126.766V128.086C208.302 128.284 207.867 128.427 207.43 128.516C206.997 128.609 206.479 128.656 205.875 128.656C205.042 128.656 204.31 128.49 203.68 128.156C203.055 127.823 202.568 127.331 202.219 126.68C201.87 126.023 201.695 125.216 201.695 124.258C201.695 123.31 201.854 122.5 202.172 121.828C202.49 121.151 202.938 120.633 203.516 120.273C204.094 119.914 204.773 119.734 205.555 119.734ZM205.547 120.953C204.911 120.953 204.401 121.161 204.016 121.578C203.63 121.99 203.404 122.581 203.336 123.352H207.57C207.565 122.878 207.49 122.461 207.344 122.102C207.198 121.742 206.977 121.461 206.68 121.258C206.388 121.055 206.01 120.953 205.547 120.953ZM216.953 119.891V124.797C216.953 124.917 216.948 125.073 216.938 125.266C216.932 125.453 216.922 125.651 216.906 125.859C216.896 126.068 216.885 126.263 216.875 126.445C216.865 126.628 216.854 126.768 216.844 126.867L221.352 119.891H223.266V128.5H221.781V123.688C221.781 123.495 221.784 123.258 221.789 122.977C221.799 122.69 221.812 122.414 221.828 122.148C221.844 121.883 221.854 121.677 221.859 121.531L217.367 128.5H215.445V119.891H216.953ZM229.422 128.656C228.63 128.656 227.938 128.497 227.344 128.18C226.75 127.862 226.289 127.378 225.961 126.727C225.638 126.07 225.477 125.242 225.477 124.242C225.477 123.201 225.651 122.349 226 121.688C226.349 121.021 226.831 120.529 227.445 120.211C228.065 119.893 228.773 119.734 229.57 119.734C230.039 119.734 230.477 119.781 230.883 119.875C231.294 119.969 231.638 120.086 231.914 120.227L231.445 121.5C231.154 121.385 230.839 121.284 230.5 121.195C230.167 121.107 229.849 121.062 229.547 121.062C228.995 121.062 228.536 121.185 228.172 121.43C227.812 121.669 227.542 122.023 227.359 122.492C227.177 122.961 227.086 123.539 227.086 124.227C227.086 124.893 227.174 125.458 227.352 125.922C227.534 126.38 227.799 126.729 228.148 126.969C228.503 127.208 228.943 127.328 229.469 127.328C229.932 127.328 230.349 127.276 230.719 127.172C231.089 127.068 231.43 126.935 231.742 126.773V128.156C231.44 128.323 231.107 128.448 230.742 128.531C230.378 128.615 229.938 128.656 229.422 128.656ZM239.961 121.164H237.133V128.5H235.57V121.164H232.773V119.891H239.961V121.164ZM249.156 124.18C249.156 124.888 249.062 125.521 248.875 126.078C248.693 126.63 248.424 127.099 248.07 127.484C247.721 127.865 247.299 128.156 246.805 128.359C246.31 128.557 245.75 128.656 245.125 128.656C244.542 128.656 244.005 128.557 243.516 128.359C243.031 128.156 242.612 127.865 242.258 127.484C241.904 127.099 241.63 126.63 241.438 126.078C241.245 125.521 241.148 124.888 241.148 124.18C241.148 123.237 241.31 122.435 241.633 121.773C241.956 121.107 242.417 120.602 243.016 120.258C243.62 119.909 244.339 119.734 245.172 119.734C245.964 119.734 246.659 119.909 247.258 120.258C247.857 120.607 248.323 121.112 248.656 121.773C248.99 122.435 249.156 123.237 249.156 124.18ZM242.758 124.18C242.758 124.841 242.841 125.411 243.008 125.891C243.18 126.365 243.44 126.729 243.789 126.984C244.143 127.24 244.599 127.367 245.156 127.367C245.703 127.367 246.154 127.24 246.508 126.984C246.862 126.729 247.122 126.365 247.289 125.891C247.456 125.411 247.539 124.841 247.539 124.18C247.539 123.523 247.456 122.961 247.289 122.492C247.122 122.023 246.862 121.664 246.508 121.414C246.159 121.164 245.703 121.039 245.141 121.039C244.318 121.039 243.714 121.315 243.328 121.867C242.948 122.414 242.758 123.185 242.758 124.18ZM252.711 119.891V123C252.711 123.5 252.844 123.87 253.109 124.109C253.38 124.344 253.768 124.461 254.273 124.461C254.794 124.461 255.268 124.385 255.695 124.234C256.128 124.083 256.562 123.88 257 123.625V119.891H258.57V128.5H257V124.758C256.547 125.034 256.086 125.26 255.617 125.438C255.154 125.609 254.604 125.695 253.969 125.695C253.078 125.695 252.383 125.466 251.883 125.008C251.388 124.549 251.141 123.909 251.141 123.086V119.891H252.711ZM262.82 119.891V123.43H267.234V119.891H268.797V128.5H267.234V124.695H262.82V128.5H261.242V119.891H262.82ZM273 119.891V124.797C273 124.917 272.995 125.073 272.984 125.266C272.979 125.453 272.969 125.651 272.953 125.859C272.943 126.068 272.932 126.263 272.922 126.445C272.911 126.628 272.901 126.768 272.891 126.867L277.398 119.891H279.312V128.5H277.828V123.688C277.828 123.495 277.831 123.258 277.836 122.977C277.846 122.69 277.859 122.414 277.875 122.148C277.891 121.883 277.901 121.677 277.906 121.531L273.414 128.5H271.492V119.891H273ZM287.188 119.891H288.914L285.281 124.039L289.211 128.5H287.398L283.586 124.133V128.5H282.008V119.891H283.586V124.07L287.188 119.891ZM292.203 119.891V124.797C292.203 124.917 292.198 125.073 292.188 125.266C292.182 125.453 292.172 125.651 292.156 125.859C292.146 126.068 292.135 126.263 292.125 126.445C292.115 126.628 292.104 126.768 292.094 126.867L296.602 119.891H298.516V128.5H297.031V123.688C297.031 123.495 297.034 123.258 297.039 122.977C297.049 122.69 297.062 122.414 297.078 122.148C297.094 121.883 297.104 121.677 297.109 121.531L292.617 128.5H290.695V119.891H292.203Z" fill="#5F5B70"/>
<path d="M228 157.5V174M228 174L234 168M228 174L222 168" stroke="#8C26EA" stroke-width="1.5" stroke-linecap="square" stroke-linejoin="round"/>
<rect x="134" y="192" width="188" height="39" rx="11.5" fill="white"/>
<rect x="134" y="192" width="188" height="39" rx="11.5" stroke="#8C26EA"/>
<path d="M154.18 206.078C155.654 206.078 156.729 206.372 157.406 206.961C158.089 207.549 158.43 208.385 158.43 209.469C158.43 209.958 158.352 210.424 158.195 210.867C158.039 211.305 157.784 211.693 157.43 212.031C157.081 212.365 156.62 212.63 156.047 212.828C155.474 213.021 154.771 213.117 153.938 213.117H152.633V217.5H151.031V206.078H154.18ZM154.055 207.422H152.633V211.766H153.766C154.427 211.766 154.982 211.693 155.43 211.547C155.878 211.396 156.216 211.156 156.445 210.828C156.674 210.5 156.789 210.068 156.789 209.531C156.789 208.823 156.568 208.294 156.125 207.945C155.682 207.596 154.992 207.422 154.055 207.422ZM164.711 208.734C164.867 208.734 165.036 208.745 165.219 208.766C165.401 208.781 165.557 208.802 165.688 208.828L165.523 210.289C165.398 210.258 165.253 210.232 165.086 210.211C164.924 210.19 164.773 210.18 164.633 210.18C164.299 210.18 163.982 210.242 163.68 210.367C163.378 210.492 163.112 210.674 162.883 210.914C162.654 211.148 162.474 211.438 162.344 211.781C162.214 212.12 162.148 212.508 162.148 212.945V217.5H160.57V208.891H161.836L162.023 210.445H162.094C162.271 210.133 162.484 209.846 162.734 209.586C162.99 209.326 163.281 209.12 163.609 208.969C163.943 208.812 164.31 208.734 164.711 208.734ZM170.586 208.742C171.648 208.742 172.443 208.979 172.969 209.453C173.495 209.922 173.758 210.664 173.758 211.68V217.5H172.633L172.328 216.25H172.266C172.026 216.562 171.776 216.823 171.516 217.031C171.255 217.24 170.953 217.396 170.609 217.5C170.271 217.604 169.857 217.656 169.367 217.656C168.846 217.656 168.383 217.562 167.977 217.375C167.57 217.188 167.25 216.906 167.016 216.531C166.786 216.151 166.672 215.669 166.672 215.086C166.672 214.211 167.008 213.547 167.68 213.094C168.352 212.641 169.37 212.393 170.734 212.352L172.219 212.289V211.805C172.219 211.133 172.068 210.659 171.766 210.383C171.469 210.107 171.052 209.969 170.516 209.969C170.073 209.969 169.648 210.034 169.242 210.164C168.836 210.289 168.445 210.44 168.07 210.617L167.57 209.477C167.977 209.268 168.438 209.094 168.953 208.953C169.474 208.812 170.018 208.742 170.586 208.742ZM172.203 213.32L171 213.375C170.005 213.411 169.305 213.578 168.898 213.875C168.497 214.167 168.297 214.576 168.297 215.102C168.297 215.56 168.435 215.896 168.711 216.109C168.987 216.323 169.352 216.43 169.805 216.43C170.503 216.43 171.076 216.234 171.523 215.844C171.977 215.448 172.203 214.865 172.203 214.094V213.32ZM178.32 217.5L175.047 208.891H176.711L178.547 214.023C178.667 214.362 178.784 214.732 178.898 215.133C179.018 215.534 179.099 215.865 179.141 216.125H179.195C179.247 215.859 179.336 215.526 179.461 215.125C179.586 214.724 179.706 214.357 179.82 214.023L181.648 208.891H183.32L180.039 217.5H178.32ZM192.188 213.18C192.188 213.888 192.094 214.521 191.906 215.078C191.724 215.63 191.456 216.099 191.102 216.484C190.753 216.865 190.331 217.156 189.836 217.359C189.341 217.557 188.781 217.656 188.156 217.656C187.573 217.656 187.036 217.557 186.547 217.359C186.062 217.156 185.643 216.865 185.289 216.484C184.935 216.099 184.661 215.63 184.469 215.078C184.276 214.521 184.18 213.888 184.18 213.18C184.18 212.237 184.341 211.435 184.664 210.773C184.987 210.107 185.448 209.602 186.047 209.258C186.651 208.909 187.37 208.734 188.203 208.734C188.995 208.734 189.69 208.909 190.289 209.258C190.888 209.607 191.354 210.112 191.688 210.773C192.021 211.435 192.188 212.237 192.188 213.18ZM185.789 213.18C185.789 213.841 185.872 214.411 186.039 214.891C186.211 215.365 186.471 215.729 186.82 215.984C187.174 216.24 187.63 216.367 188.188 216.367C188.734 216.367 189.185 216.24 189.539 215.984C189.893 215.729 190.154 215.365 190.32 214.891C190.487 214.411 190.57 213.841 190.57 213.18C190.57 212.523 190.487 211.961 190.32 211.492C190.154 211.023 189.893 210.664 189.539 210.414C189.19 210.164 188.734 210.039 188.172 210.039C187.349 210.039 186.745 210.315 186.359 210.867C185.979 211.414 185.789 212.185 185.789 213.18ZM198.297 217.5H196.688V207.461H193.219V206.078H201.758V207.461H198.297V217.5ZM206.68 208.734C207.43 208.734 208.073 208.896 208.609 209.219C209.146 209.536 209.557 209.987 209.844 210.57C210.13 211.154 210.273 211.841 210.273 212.633V213.523H204.43C204.445 214.445 204.682 215.154 205.141 215.648C205.599 216.138 206.242 216.383 207.07 216.383C207.617 216.383 208.104 216.331 208.531 216.227C208.958 216.122 209.401 215.969 209.859 215.766V217.086C209.427 217.284 208.992 217.427 208.555 217.516C208.122 217.609 207.604 217.656 207 217.656C206.167 217.656 205.435 217.49 204.805 217.156C204.18 216.823 203.693 216.331 203.344 215.68C202.995 215.023 202.82 214.216 202.82 213.258C202.82 212.31 202.979 211.5 203.297 210.828C203.615 210.151 204.062 209.633 204.641 209.273C205.219 208.914 205.898 208.734 206.68 208.734ZM206.672 209.953C206.036 209.953 205.526 210.161 205.141 210.578C204.755 210.99 204.529 211.581 204.461 212.352H208.695C208.69 211.878 208.615 211.461 208.469 211.102C208.323 210.742 208.102 210.461 207.805 210.258C207.513 210.055 207.135 209.953 206.672 209.953ZM215.875 217.656C215.083 217.656 214.391 217.497 213.797 217.18C213.203 216.862 212.742 216.378 212.414 215.727C212.091 215.07 211.93 214.242 211.93 213.242C211.93 212.201 212.104 211.349 212.453 210.688C212.802 210.021 213.284 209.529 213.898 209.211C214.518 208.893 215.227 208.734 216.023 208.734C216.492 208.734 216.93 208.781 217.336 208.875C217.747 208.969 218.091 209.086 218.367 209.227L217.898 210.5C217.607 210.385 217.292 210.284 216.953 210.195C216.62 210.107 216.302 210.062 216 210.062C215.448 210.062 214.99 210.185 214.625 210.43C214.266 210.669 213.995 211.023 213.812 211.492C213.63 211.961 213.539 212.539 213.539 213.227C213.539 213.893 213.628 214.458 213.805 214.922C213.987 215.38 214.253 215.729 214.602 215.969C214.956 216.208 215.396 216.328 215.922 216.328C216.385 216.328 216.802 216.276 217.172 216.172C217.542 216.068 217.883 215.935 218.195 215.773V217.156C217.893 217.323 217.56 217.448 217.195 217.531C216.831 217.615 216.391 217.656 215.875 217.656ZM221.797 205.344V208.688C221.797 208.953 221.789 209.214 221.773 209.469C221.758 209.724 221.74 209.938 221.719 210.109H221.812C221.995 209.807 222.219 209.557 222.484 209.359C222.755 209.156 223.06 209.005 223.398 208.906C223.742 208.802 224.104 208.75 224.484 208.75C225.156 208.75 225.724 208.859 226.188 209.078C226.651 209.297 227.003 209.638 227.242 210.102C227.482 210.56 227.602 211.156 227.602 211.891V217.5H226.047V212.102C226.047 211.414 225.896 210.898 225.594 210.555C225.292 210.206 224.828 210.031 224.203 210.031C223.609 210.031 223.135 210.151 222.781 210.391C222.427 210.625 222.174 210.971 222.023 211.43C221.872 211.888 221.797 212.451 221.797 213.117V217.5H220.227V205.344H221.797ZM233.688 213.117C233.688 212.237 233.771 211.383 233.938 210.555C234.109 209.721 234.37 208.927 234.719 208.172C235.068 207.411 235.508 206.714 236.039 206.078H237.461C236.711 207.068 236.146 208.167 235.766 209.375C235.385 210.583 235.195 211.826 235.195 213.102C235.195 213.93 235.279 214.75 235.445 215.562C235.617 216.375 235.87 217.156 236.203 217.906C236.542 218.656 236.956 219.365 237.445 220.031H236.039C235.508 219.406 235.068 218.724 234.719 217.984C234.37 217.245 234.109 216.466 233.938 215.648C233.771 214.826 233.688 213.982 233.688 213.117ZM239.484 206.078H242.797C244.25 206.078 245.344 206.292 246.078 206.719C246.812 207.146 247.18 207.878 247.18 208.914C247.18 209.357 247.099 209.753 246.938 210.102C246.776 210.451 246.542 210.74 246.234 210.969C245.927 211.198 245.549 211.354 245.102 211.438V211.516C245.57 211.594 245.987 211.734 246.352 211.938C246.716 212.141 247.003 212.43 247.211 212.805C247.424 213.174 247.531 213.651 247.531 214.234C247.531 214.932 247.367 215.526 247.039 216.016C246.711 216.5 246.245 216.87 245.641 217.125C245.042 217.375 244.328 217.5 243.5 217.5H239.484V206.078ZM241.086 210.883H243.078C244 210.883 244.638 210.732 244.992 210.43C245.346 210.128 245.523 209.688 245.523 209.109C245.523 208.51 245.312 208.081 244.891 207.82C244.469 207.555 243.799 207.422 242.883 207.422H241.086V210.883ZM241.086 212.203V216.148H243.266C244.208 216.148 244.872 215.964 245.258 215.594C245.648 215.224 245.844 214.727 245.844 214.102C245.844 213.706 245.755 213.367 245.578 213.086C245.406 212.799 245.125 212.581 244.734 212.43C244.344 212.279 243.818 212.203 243.156 212.203H241.086ZM251.297 208.891V217.5H249.727V208.891H251.297ZM250.523 205.633C250.773 205.633 250.987 205.706 251.164 205.852C251.346 205.997 251.438 206.234 251.438 206.562C251.438 206.891 251.346 207.13 251.164 207.281C250.987 207.427 250.773 207.5 250.523 207.5C250.268 207.5 250.052 207.427 249.875 207.281C249.703 207.13 249.617 206.891 249.617 206.562C249.617 206.234 249.703 205.997 249.875 205.852C250.052 205.706 250.268 205.633 250.523 205.633ZM256.414 221.344C255.263 221.344 254.378 221.133 253.758 220.711C253.143 220.289 252.836 219.701 252.836 218.945C252.836 218.409 253.005 217.953 253.344 217.578C253.682 217.208 254.156 216.958 254.766 216.828C254.536 216.724 254.339 216.565 254.172 216.352C254.01 216.133 253.93 215.888 253.93 215.617C253.93 215.299 254.018 215.026 254.195 214.797C254.378 214.562 254.648 214.336 255.008 214.117C254.555 213.93 254.19 213.62 253.914 213.188C253.638 212.75 253.5 212.24 253.5 211.656C253.5 211.036 253.63 210.508 253.891 210.07C254.156 209.633 254.536 209.299 255.031 209.07C255.526 208.841 256.128 208.727 256.836 208.727C256.992 208.727 257.154 208.734 257.32 208.75C257.487 208.76 257.646 208.779 257.797 208.805C257.948 208.831 258.07 208.857 258.164 208.883H261.133V209.812L259.602 210.047C259.753 210.245 259.875 210.479 259.969 210.75C260.062 211.021 260.109 211.318 260.109 211.641C260.109 212.516 259.81 213.208 259.211 213.719C258.617 214.224 257.794 214.477 256.742 214.477C256.497 214.471 256.25 214.451 256 214.414C255.776 214.544 255.607 214.688 255.492 214.844C255.378 214.995 255.32 215.169 255.32 215.367C255.32 215.518 255.37 215.641 255.469 215.734C255.573 215.828 255.721 215.898 255.914 215.945C256.107 215.987 256.341 216.008 256.617 216.008H258.117C259.055 216.008 259.773 216.206 260.273 216.602C260.773 216.997 261.023 217.576 261.023 218.336C261.023 219.299 260.628 220.042 259.836 220.562C259.044 221.083 257.904 221.344 256.414 221.344ZM256.469 220.195C257.141 220.195 257.701 220.128 258.148 219.992C258.602 219.857 258.943 219.664 259.172 219.414C259.401 219.164 259.516 218.867 259.516 218.523C259.516 218.211 259.44 217.971 259.289 217.805C259.143 217.643 258.924 217.534 258.633 217.477C258.341 217.419 257.982 217.391 257.555 217.391H256.133C255.768 217.391 255.451 217.448 255.18 217.562C254.909 217.677 254.698 217.841 254.547 218.055C254.396 218.273 254.32 218.542 254.32 218.859C254.32 219.292 254.505 219.622 254.875 219.852C255.25 220.081 255.781 220.195 256.469 220.195ZM256.812 213.406C257.391 213.406 257.823 213.255 258.109 212.953C258.396 212.646 258.539 212.208 258.539 211.641C258.539 211.031 258.393 210.573 258.102 210.266C257.81 209.958 257.378 209.805 256.805 209.805C256.247 209.805 255.82 209.964 255.523 210.281C255.232 210.594 255.086 211.052 255.086 211.656C255.086 212.214 255.234 212.646 255.531 212.953C255.828 213.255 256.255 213.406 256.812 213.406ZM276.281 211.68C276.281 212.966 276.044 214.042 275.57 214.906C275.096 215.766 274.409 216.414 273.508 216.852C272.612 217.284 271.523 217.5 270.242 217.5H267.109V206.078H270.594C271.76 206.078 272.768 206.292 273.617 206.719C274.466 207.141 275.122 207.768 275.586 208.602C276.049 209.43 276.281 210.456 276.281 211.68ZM274.602 211.727C274.602 210.747 274.443 209.94 274.125 209.305C273.807 208.669 273.341 208.198 272.727 207.891C272.112 207.578 271.359 207.422 270.469 207.422H268.711V216.141H270.188C271.661 216.141 272.766 215.771 273.5 215.031C274.234 214.292 274.602 213.19 274.602 211.727ZM281.883 208.742C282.945 208.742 283.74 208.979 284.266 209.453C284.792 209.922 285.055 210.664 285.055 211.68V217.5H283.93L283.625 216.25H283.562C283.323 216.562 283.073 216.823 282.812 217.031C282.552 217.24 282.25 217.396 281.906 217.5C281.568 217.604 281.154 217.656 280.664 217.656C280.143 217.656 279.68 217.562 279.273 217.375C278.867 217.188 278.547 216.906 278.312 216.531C278.083 216.151 277.969 215.669 277.969 215.086C277.969 214.211 278.305 213.547 278.977 213.094C279.648 212.641 280.667 212.393 282.031 212.352L283.516 212.289V211.805C283.516 211.133 283.365 210.659 283.062 210.383C282.766 210.107 282.349 209.969 281.812 209.969C281.37 209.969 280.945 210.034 280.539 210.164C280.133 210.289 279.742 210.44 279.367 210.617L278.867 209.477C279.273 209.268 279.734 209.094 280.25 208.953C280.771 208.812 281.315 208.742 281.883 208.742ZM283.5 213.32L282.297 213.375C281.302 213.411 280.602 213.578 280.195 213.875C279.794 214.167 279.594 214.576 279.594 215.102C279.594 215.56 279.732 215.896 280.008 216.109C280.284 216.323 280.648 216.43 281.102 216.43C281.799 216.43 282.372 216.234 282.82 215.844C283.273 215.448 283.5 214.865 283.5 214.094V213.32ZM290.68 216.383C290.904 216.383 291.13 216.365 291.359 216.328C291.589 216.286 291.786 216.234 291.953 216.172V217.375C291.776 217.453 291.539 217.518 291.242 217.57C290.951 217.628 290.651 217.656 290.344 217.656C289.875 217.656 289.451 217.576 289.07 217.414C288.69 217.253 288.385 216.977 288.156 216.586C287.932 216.195 287.82 215.654 287.82 214.961V210.102H286.625V209.375L287.875 208.797L288.43 206.938H289.398V208.891H291.891V210.102H289.398V214.938C289.398 215.422 289.513 215.784 289.742 216.023C289.977 216.263 290.289 216.383 290.68 216.383ZM296.992 208.742C298.055 208.742 298.849 208.979 299.375 209.453C299.901 209.922 300.164 210.664 300.164 211.68V217.5H299.039L298.734 216.25H298.672C298.432 216.562 298.182 216.823 297.922 217.031C297.661 217.24 297.359 217.396 297.016 217.5C296.677 217.604 296.263 217.656 295.773 217.656C295.253 217.656 294.789 217.562 294.383 217.375C293.977 217.188 293.656 216.906 293.422 216.531C293.193 216.151 293.078 215.669 293.078 215.086C293.078 214.211 293.414 213.547 294.086 213.094C294.758 212.641 295.776 212.393 297.141 212.352L298.625 212.289V211.805C298.625 211.133 298.474 210.659 298.172 210.383C297.875 210.107 297.458 209.969 296.922 209.969C296.479 209.969 296.055 210.034 295.648 210.164C295.242 210.289 294.852 210.44 294.477 210.617L293.977 209.477C294.383 209.268 294.844 209.094 295.359 208.953C295.88 208.812 296.424 208.742 296.992 208.742ZM298.609 213.32L297.406 213.375C296.411 213.411 295.711 213.578 295.305 213.875C294.904 214.167 294.703 214.576 294.703 215.102C294.703 215.56 294.841 215.896 295.117 216.109C295.393 216.323 295.758 216.43 296.211 216.43C296.909 216.43 297.482 216.234 297.93 215.844C298.383 215.448 298.609 214.865 298.609 214.094V213.32ZM305.711 213.102C305.711 213.971 305.625 214.818 305.453 215.641C305.286 216.464 305.029 217.245 304.68 217.984C304.336 218.729 303.896 219.411 303.359 220.031H301.953C302.448 219.37 302.862 218.661 303.195 217.906C303.529 217.151 303.779 216.37 303.945 215.562C304.117 214.75 304.203 213.927 304.203 213.094C304.203 212.245 304.117 211.409 303.945 210.586C303.773 209.763 303.521 208.971 303.188 208.211C302.854 207.451 302.438 206.74 301.938 206.078H303.359C303.896 206.719 304.336 207.417 304.68 208.172C305.029 208.927 305.286 209.721 305.453 210.555C305.625 211.383 305.711 212.232 305.711 213.102Z" fill="#0D0628"/>
<path d="M228 249.5V266M228 266L234 260M228 266L222 260" stroke="#8C26EA" stroke-width="1.5" stroke-linecap="square" stroke-linejoin="round"/>
<path d="M113.414 301.5L109.578 291.391H109.516C109.536 291.604 109.555 291.865 109.57 292.172C109.586 292.479 109.599 292.815 109.609 293.18C109.62 293.539 109.625 293.906 109.625 294.281V301.5H108.391V290.078H110.359L113.977 299.578H114.031L117.703 290.078H119.656V301.5H118.344V294.188C118.344 293.849 118.349 293.51 118.359 293.172C118.37 292.828 118.383 292.505 118.398 292.203C118.414 291.896 118.43 291.63 118.445 291.406H118.383L114.5 301.5H113.414ZM129.969 297.203C129.969 297.906 129.878 298.534 129.695 299.086C129.513 299.638 129.25 300.104 128.906 300.484C128.562 300.865 128.146 301.156 127.656 301.359C127.172 301.557 126.622 301.656 126.008 301.656C125.435 301.656 124.909 301.557 124.43 301.359C123.956 301.156 123.544 300.865 123.195 300.484C122.852 300.104 122.583 299.638 122.391 299.086C122.203 298.534 122.109 297.906 122.109 297.203C122.109 296.266 122.268 295.469 122.586 294.812C122.904 294.151 123.357 293.648 123.945 293.305C124.539 292.956 125.245 292.781 126.062 292.781C126.844 292.781 127.526 292.956 128.109 293.305C128.698 293.654 129.154 294.159 129.477 294.82C129.805 295.477 129.969 296.271 129.969 297.203ZM123.453 297.203C123.453 297.891 123.544 298.487 123.727 298.992C123.909 299.497 124.19 299.888 124.57 300.164C124.951 300.44 125.44 300.578 126.039 300.578C126.633 300.578 127.12 300.44 127.5 300.164C127.885 299.888 128.169 299.497 128.352 298.992C128.534 298.487 128.625 297.891 128.625 297.203C128.625 296.521 128.534 295.932 128.352 295.438C128.169 294.938 127.888 294.552 127.508 294.281C127.128 294.01 126.635 293.875 126.031 293.875C125.141 293.875 124.487 294.169 124.07 294.758C123.659 295.346 123.453 296.161 123.453 297.203ZM133.516 292.938V296.531H138.289V292.938H139.586V301.5H138.289V297.633H133.516V301.5H132.211V292.938H133.516ZM143.57 292.938V298.32C143.57 298.424 143.568 298.56 143.562 298.727C143.557 298.888 143.549 299.062 143.539 299.25C143.529 299.432 143.518 299.609 143.508 299.781C143.503 299.948 143.495 300.086 143.484 300.195L148.156 292.938H149.75V301.5H148.539V296.25C148.539 296.083 148.542 295.87 148.547 295.609C148.552 295.349 148.56 295.094 148.57 294.844C148.581 294.589 148.589 294.391 148.594 294.25L143.938 301.5H142.336V292.938H143.57ZM158.344 294.039H155.523V301.5H154.242V294.039H151.461V292.938H158.344V294.039ZM167.422 297.203C167.422 297.906 167.331 298.534 167.148 299.086C166.966 299.638 166.703 300.104 166.359 300.484C166.016 300.865 165.599 301.156 165.109 301.359C164.625 301.557 164.076 301.656 163.461 301.656C162.888 301.656 162.362 301.557 161.883 301.359C161.409 301.156 160.997 300.865 160.648 300.484C160.305 300.104 160.036 299.638 159.844 299.086C159.656 298.534 159.562 297.906 159.562 297.203C159.562 296.266 159.721 295.469 160.039 294.812C160.357 294.151 160.81 293.648 161.398 293.305C161.992 292.956 162.698 292.781 163.516 292.781C164.297 292.781 164.979 292.956 165.562 293.305C166.151 293.654 166.607 294.159 166.93 294.82C167.258 295.477 167.422 296.271 167.422 297.203ZM160.906 297.203C160.906 297.891 160.997 298.487 161.18 298.992C161.362 299.497 161.643 299.888 162.023 300.164C162.404 300.44 162.893 300.578 163.492 300.578C164.086 300.578 164.573 300.44 164.953 300.164C165.339 299.888 165.622 299.497 165.805 298.992C165.987 298.487 166.078 297.891 166.078 297.203C166.078 296.521 165.987 295.932 165.805 295.438C165.622 294.938 165.341 294.552 164.961 294.281C164.581 294.01 164.089 293.875 163.484 293.875C162.594 293.875 161.94 294.169 161.523 294.758C161.112 295.346 160.906 296.161 160.906 297.203ZM173.688 292.781C174.755 292.781 175.607 293.148 176.242 293.883C176.878 294.617 177.195 295.721 177.195 297.195C177.195 298.169 177.049 298.987 176.758 299.648C176.466 300.31 176.055 300.81 175.523 301.148C174.997 301.487 174.375 301.656 173.656 301.656C173.203 301.656 172.805 301.596 172.461 301.477C172.117 301.357 171.823 301.195 171.578 300.992C171.333 300.789 171.13 300.568 170.969 300.328H170.875C170.891 300.531 170.909 300.776 170.93 301.062C170.956 301.349 170.969 301.599 170.969 301.812V305.328H169.664V292.938H170.734L170.906 294.203H170.969C171.135 293.943 171.339 293.706 171.578 293.492C171.818 293.273 172.109 293.102 172.453 292.977C172.802 292.846 173.214 292.781 173.688 292.781ZM173.461 293.875C172.867 293.875 172.388 293.99 172.023 294.219C171.664 294.448 171.401 294.792 171.234 295.25C171.068 295.703 170.979 296.273 170.969 296.961V297.211C170.969 297.935 171.047 298.547 171.203 299.047C171.365 299.547 171.628 299.927 171.992 300.188C172.362 300.448 172.857 300.578 173.477 300.578C174.008 300.578 174.451 300.435 174.805 300.148C175.159 299.862 175.422 299.464 175.594 298.953C175.771 298.438 175.859 297.846 175.859 297.18C175.859 296.169 175.661 295.367 175.266 294.773C174.875 294.174 174.273 293.875 173.461 293.875ZM180.695 292.938V298.32C180.695 298.424 180.693 298.56 180.688 298.727C180.682 298.888 180.674 299.062 180.664 299.25C180.654 299.432 180.643 299.609 180.633 299.781C180.628 299.948 180.62 300.086 180.609 300.195L185.281 292.938H186.875V301.5H185.664V296.25C185.664 296.083 185.667 295.87 185.672 295.609C185.677 295.349 185.685 295.094 185.695 294.844C185.706 294.589 185.714 294.391 185.719 294.25L181.062 301.5H179.461V292.938H180.695ZM190.938 292.938V296.531H195.711V292.938H197.008V301.5H195.711V297.633H190.938V301.5H189.633V292.938H190.938ZM204.953 292.938V294.039H201.062V301.5H199.758V292.938H204.953ZM214.25 301.656C213.479 301.656 212.799 301.497 212.211 301.18C211.622 300.862 211.164 300.378 210.836 299.727C210.508 299.076 210.344 298.255 210.344 297.266C210.344 296.229 210.516 295.383 210.859 294.727C211.208 294.065 211.688 293.576 212.297 293.258C212.906 292.94 213.599 292.781 214.375 292.781C214.802 292.781 215.214 292.826 215.609 292.914C216.01 292.997 216.339 293.104 216.594 293.234L216.203 294.32C215.943 294.216 215.641 294.122 215.297 294.039C214.958 293.956 214.641 293.914 214.344 293.914C213.75 293.914 213.255 294.042 212.859 294.297C212.469 294.552 212.174 294.927 211.977 295.422C211.784 295.917 211.688 296.526 211.688 297.25C211.688 297.943 211.781 298.534 211.969 299.023C212.161 299.513 212.445 299.888 212.82 300.148C213.201 300.404 213.674 300.531 214.242 300.531C214.695 300.531 215.104 300.484 215.469 300.391C215.833 300.292 216.164 300.177 216.461 300.047V301.203C216.174 301.349 215.854 301.461 215.5 301.539C215.151 301.617 214.734 301.656 214.25 301.656ZM225.875 297.203C225.875 297.906 225.784 298.534 225.602 299.086C225.419 299.638 225.156 300.104 224.812 300.484C224.469 300.865 224.052 301.156 223.562 301.359C223.078 301.557 222.529 301.656 221.914 301.656C221.341 301.656 220.815 301.557 220.336 301.359C219.862 301.156 219.451 300.865 219.102 300.484C218.758 300.104 218.49 299.638 218.297 299.086C218.109 298.534 218.016 297.906 218.016 297.203C218.016 296.266 218.174 295.469 218.492 294.812C218.81 294.151 219.263 293.648 219.852 293.305C220.445 292.956 221.151 292.781 221.969 292.781C222.75 292.781 223.432 292.956 224.016 293.305C224.604 293.654 225.06 294.159 225.383 294.82C225.711 295.477 225.875 296.271 225.875 297.203ZM219.359 297.203C219.359 297.891 219.451 298.487 219.633 298.992C219.815 299.497 220.096 299.888 220.477 300.164C220.857 300.44 221.346 300.578 221.945 300.578C222.539 300.578 223.026 300.44 223.406 300.164C223.792 299.888 224.076 299.497 224.258 298.992C224.44 298.487 224.531 297.891 224.531 297.203C224.531 296.521 224.44 295.932 224.258 295.438C224.076 294.938 223.794 294.552 223.414 294.281C223.034 294.01 222.542 293.875 221.938 293.875C221.047 293.875 220.393 294.169 219.977 294.758C219.565 295.346 219.359 296.161 219.359 297.203ZM227.672 296.359C227.672 295.141 227.789 294.102 228.023 293.242C228.258 292.378 228.62 291.685 229.109 291.164C229.604 290.638 230.24 290.279 231.016 290.086C231.682 289.904 232.359 289.747 233.047 289.617C233.734 289.482 234.404 289.365 235.055 289.266L235.281 290.406C234.953 290.453 234.609 290.508 234.25 290.57C233.891 290.628 233.531 290.69 233.172 290.758C232.812 290.82 232.474 290.888 232.156 290.961C231.839 291.029 231.557 291.099 231.312 291.172C230.87 291.292 230.487 291.5 230.164 291.797C229.846 292.094 229.594 292.503 229.406 293.023C229.224 293.544 229.115 294.201 229.078 294.992H229.172C229.328 294.763 229.542 294.536 229.812 294.312C230.083 294.089 230.406 293.904 230.781 293.758C231.156 293.607 231.578 293.531 232.047 293.531C232.786 293.531 233.404 293.693 233.898 294.016C234.393 294.333 234.766 294.781 235.016 295.359C235.266 295.938 235.391 296.615 235.391 297.391C235.391 298.323 235.229 299.107 234.906 299.742C234.589 300.378 234.141 300.857 233.562 301.18C232.984 301.497 232.305 301.656 231.523 301.656C230.919 301.656 230.378 301.539 229.898 301.305C229.424 301.07 229.021 300.727 228.688 300.273C228.359 299.82 228.107 299.266 227.93 298.609C227.758 297.953 227.672 297.203 227.672 296.359ZM231.625 300.578C232.12 300.578 232.544 300.474 232.898 300.266C233.258 300.057 233.534 299.729 233.727 299.281C233.924 298.828 234.023 298.24 234.023 297.516C234.023 296.609 233.849 295.901 233.5 295.391C233.156 294.875 232.604 294.617 231.844 294.617C231.37 294.617 230.94 294.719 230.555 294.922C230.169 295.12 229.844 295.357 229.578 295.633C229.312 295.909 229.12 296.156 229 296.375C229 296.906 229.039 297.422 229.117 297.922C229.195 298.422 229.331 298.872 229.523 299.273C229.716 299.674 229.982 299.992 230.32 300.227C230.664 300.461 231.099 300.578 231.625 300.578ZM237.633 301.5V292.938H238.938V296.469H241.281C242.01 296.469 242.609 296.56 243.078 296.742C243.552 296.924 243.904 297.195 244.133 297.555C244.362 297.914 244.477 298.359 244.477 298.891C244.477 299.422 244.362 299.883 244.133 300.273C243.909 300.664 243.555 300.966 243.07 301.18C242.591 301.393 241.966 301.5 241.195 301.5H237.633ZM238.938 300.445H241.07C241.716 300.445 242.232 300.331 242.617 300.102C243.003 299.872 243.195 299.49 243.195 298.953C243.195 298.427 243.016 298.062 242.656 297.859C242.297 297.651 241.781 297.547 241.109 297.547H238.938V300.445ZM245.891 301.5V292.938H247.188V301.5H245.891ZM255.766 294.039H252.945V301.5H251.664V294.039H248.883V292.938H255.766V294.039ZM258.695 292.938V298.32C258.695 298.424 258.693 298.56 258.688 298.727C258.682 298.888 258.674 299.062 258.664 299.25C258.654 299.432 258.643 299.609 258.633 299.781C258.628 299.948 258.62 300.086 258.609 300.195L263.281 292.938H264.875V301.5H263.664V296.25C263.664 296.083 263.667 295.87 263.672 295.609C263.677 295.349 263.685 295.094 263.695 294.844C263.706 294.589 263.714 294.391 263.719 294.25L259.062 301.5H257.461V292.938H258.695ZM268.867 292.938V298.32C268.867 298.424 268.865 298.56 268.859 298.727C268.854 298.888 268.846 299.062 268.836 299.25C268.826 299.432 268.815 299.609 268.805 299.781C268.799 299.948 268.792 300.086 268.781 300.195L273.453 292.938H275.047V301.5H273.836V296.25C273.836 296.083 273.839 295.87 273.844 295.609C273.849 295.349 273.857 295.094 273.867 294.844C273.878 294.589 273.885 294.391 273.891 294.25L269.234 301.5H267.633V292.938H268.867ZM274.406 289.414C274.359 289.94 274.227 290.38 274.008 290.734C273.794 291.089 273.479 291.357 273.062 291.539C272.646 291.716 272.112 291.805 271.461 291.805C270.789 291.805 270.247 291.719 269.836 291.547C269.43 291.37 269.128 291.104 268.93 290.75C268.737 290.396 268.622 289.951 268.586 289.414H269.805C269.862 289.987 270.016 290.378 270.266 290.586C270.516 290.794 270.922 290.898 271.484 290.898C271.984 290.898 272.378 290.789 272.664 290.57C272.951 290.352 273.122 289.966 273.18 289.414H274.406ZM283.195 292.938V298.32C283.195 298.424 283.193 298.56 283.188 298.727C283.182 298.888 283.174 299.062 283.164 299.25C283.154 299.432 283.143 299.609 283.133 299.781C283.128 299.948 283.12 300.086 283.109 300.195L287.781 292.938H289.375V301.5H288.164V296.25C288.164 296.083 288.167 295.87 288.172 295.609C288.177 295.349 288.185 295.094 288.195 294.844C288.206 294.589 288.214 294.391 288.219 294.25L283.562 301.5H281.961V292.938H283.195ZM300.312 292.781C301.38 292.781 302.232 293.148 302.867 293.883C303.503 294.617 303.82 295.721 303.82 297.195C303.82 298.169 303.674 298.987 303.383 299.648C303.091 300.31 302.68 300.81 302.148 301.148C301.622 301.487 301 301.656 300.281 301.656C299.828 301.656 299.43 301.596 299.086 301.477C298.742 301.357 298.448 301.195 298.203 300.992C297.958 300.789 297.755 300.568 297.594 300.328H297.5C297.516 300.531 297.534 300.776 297.555 301.062C297.581 301.349 297.594 301.599 297.594 301.812V305.328H296.289V292.938H297.359L297.531 294.203H297.594C297.76 293.943 297.964 293.706 298.203 293.492C298.443 293.273 298.734 293.102 299.078 292.977C299.427 292.846 299.839 292.781 300.312 292.781ZM300.086 293.875C299.492 293.875 299.013 293.99 298.648 294.219C298.289 294.448 298.026 294.792 297.859 295.25C297.693 295.703 297.604 296.273 297.594 296.961V297.211C297.594 297.935 297.672 298.547 297.828 299.047C297.99 299.547 298.253 299.927 298.617 300.188C298.987 300.448 299.482 300.578 300.102 300.578C300.633 300.578 301.076 300.435 301.43 300.148C301.784 299.862 302.047 299.464 302.219 298.953C302.396 298.438 302.484 297.846 302.484 297.18C302.484 296.169 302.286 295.367 301.891 294.773C301.5 294.174 300.898 293.875 300.086 293.875ZM309.289 292.797C310.31 292.797 311.068 293.026 311.562 293.484C312.057 293.943 312.305 294.674 312.305 295.68V301.5H311.359L311.109 300.234H311.047C310.807 300.547 310.557 300.81 310.297 301.023C310.036 301.232 309.734 301.391 309.391 301.5C309.052 301.604 308.635 301.656 308.141 301.656C307.62 301.656 307.156 301.565 306.75 301.383C306.349 301.201 306.031 300.924 305.797 300.555C305.568 300.185 305.453 299.716 305.453 299.148C305.453 298.294 305.792 297.638 306.469 297.18C307.146 296.721 308.177 296.471 309.562 296.43L311.039 296.367V295.844C311.039 295.104 310.88 294.586 310.562 294.289C310.245 293.992 309.797 293.844 309.219 293.844C308.771 293.844 308.344 293.909 307.938 294.039C307.531 294.169 307.146 294.323 306.781 294.5L306.383 293.516C306.768 293.318 307.211 293.148 307.711 293.008C308.211 292.867 308.737 292.797 309.289 292.797ZM311.023 297.281L309.719 297.336C308.651 297.378 307.898 297.552 307.461 297.859C307.023 298.167 306.805 298.602 306.805 299.164C306.805 299.654 306.953 300.016 307.25 300.25C307.547 300.484 307.94 300.602 308.43 300.602C309.19 300.602 309.812 300.391 310.297 299.969C310.781 299.547 311.023 298.914 311.023 298.07V297.281ZM314.531 296.359C314.531 295.141 314.648 294.102 314.883 293.242C315.117 292.378 315.479 291.685 315.969 291.164C316.464 290.638 317.099 290.279 317.875 290.086C318.542 289.904 319.219 289.747 319.906 289.617C320.594 289.482 321.263 289.365 321.914 289.266L322.141 290.406C321.812 290.453 321.469 290.508 321.109 290.57C320.75 290.628 320.391 290.69 320.031 290.758C319.672 290.82 319.333 290.888 319.016 290.961C318.698 291.029 318.417 291.099 318.172 291.172C317.729 291.292 317.346 291.5 317.023 291.797C316.706 292.094 316.453 292.503 316.266 293.023C316.083 293.544 315.974 294.201 315.938 294.992H316.031C316.188 294.763 316.401 294.536 316.672 294.312C316.943 294.089 317.266 293.904 317.641 293.758C318.016 293.607 318.438 293.531 318.906 293.531C319.646 293.531 320.263 293.693 320.758 294.016C321.253 294.333 321.625 294.781 321.875 295.359C322.125 295.938 322.25 296.615 322.25 297.391C322.25 298.323 322.089 299.107 321.766 299.742C321.448 300.378 321 300.857 320.422 301.18C319.844 301.497 319.164 301.656 318.383 301.656C317.779 301.656 317.237 301.539 316.758 301.305C316.284 301.07 315.88 300.727 315.547 300.273C315.219 299.82 314.966 299.266 314.789 298.609C314.617 297.953 314.531 297.203 314.531 296.359ZM318.484 300.578C318.979 300.578 319.404 300.474 319.758 300.266C320.117 300.057 320.393 299.729 320.586 299.281C320.784 298.828 320.883 298.24 320.883 297.516C320.883 296.609 320.708 295.901 320.359 295.391C320.016 294.875 319.464 294.617 318.703 294.617C318.229 294.617 317.799 294.719 317.414 294.922C317.029 295.12 316.703 295.357 316.438 295.633C316.172 295.909 315.979 296.156 315.859 296.375C315.859 296.906 315.898 297.422 315.977 297.922C316.055 298.422 316.19 298.872 316.383 299.273C316.576 299.674 316.841 299.992 317.18 300.227C317.523 300.461 317.958 300.578 318.484 300.578ZM331.875 297.203C331.875 297.906 331.784 298.534 331.602 299.086C331.419 299.638 331.156 300.104 330.812 300.484C330.469 300.865 330.052 301.156 329.562 301.359C329.078 301.557 328.529 301.656 327.914 301.656C327.341 301.656 326.815 301.557 326.336 301.359C325.862 301.156 325.451 300.865 325.102 300.484C324.758 300.104 324.49 299.638 324.297 299.086C324.109 298.534 324.016 297.906 324.016 297.203C324.016 296.266 324.174 295.469 324.492 294.812C324.81 294.151 325.263 293.648 325.852 293.305C326.445 292.956 327.151 292.781 327.969 292.781C328.75 292.781 329.432 292.956 330.016 293.305C330.604 293.654 331.06 294.159 331.383 294.82C331.711 295.477 331.875 296.271 331.875 297.203ZM325.359 297.203C325.359 297.891 325.451 298.487 325.633 298.992C325.815 299.497 326.096 299.888 326.477 300.164C326.857 300.44 327.346 300.578 327.945 300.578C328.539 300.578 329.026 300.44 329.406 300.164C329.792 299.888 330.076 299.497 330.258 298.992C330.44 298.487 330.531 297.891 330.531 297.203C330.531 296.521 330.44 295.932 330.258 295.438C330.076 294.938 329.794 294.552 329.414 294.281C329.034 294.01 328.542 293.875 327.938 293.875C327.047 293.875 326.393 294.169 325.977 294.758C325.565 295.346 325.359 296.161 325.359 297.203ZM339.953 294.039H337.133V301.5H335.852V294.039H333.07V292.938H339.953V294.039ZM344.852 292.797C345.872 292.797 346.63 293.026 347.125 293.484C347.62 293.943 347.867 294.674 347.867 295.68V301.5H346.922L346.672 300.234H346.609C346.37 300.547 346.12 300.81 345.859 301.023C345.599 301.232 345.297 301.391 344.953 301.5C344.615 301.604 344.198 301.656 343.703 301.656C343.182 301.656 342.719 301.565 342.312 301.383C341.911 301.201 341.594 300.924 341.359 300.555C341.13 300.185 341.016 299.716 341.016 299.148C341.016 298.294 341.354 297.638 342.031 297.18C342.708 296.721 343.74 296.471 345.125 296.43L346.602 296.367V295.844C346.602 295.104 346.443 294.586 346.125 294.289C345.807 293.992 345.359 293.844 344.781 293.844C344.333 293.844 343.906 293.909 343.5 294.039C343.094 294.169 342.708 294.323 342.344 294.5L341.945 293.516C342.331 293.318 342.773 293.148 343.273 293.008C343.773 292.867 344.299 292.797 344.852 292.797ZM346.586 297.281L345.281 297.336C344.214 297.378 343.461 297.552 343.023 297.859C342.586 298.167 342.367 298.602 342.367 299.164C342.367 299.654 342.516 300.016 342.812 300.25C343.109 300.484 343.503 300.602 343.992 300.602C344.753 300.602 345.375 300.391 345.859 299.969C346.344 299.547 346.586 298.914 346.586 298.07V297.281ZM96.2422 325.656C95.4714 325.656 94.7917 325.497 94.2031 325.18C93.6146 324.862 93.1562 324.378 92.8281 323.727C92.5 323.076 92.3359 322.255 92.3359 321.266C92.3359 320.229 92.5078 319.383 92.8516 318.727C93.2005 318.065 93.6797 317.576 94.2891 317.258C94.8984 316.94 95.5911 316.781 96.3672 316.781C96.7943 316.781 97.2057 316.826 97.6016 316.914C98.0026 316.997 98.3307 317.104 98.5859 317.234L98.1953 318.32C97.9349 318.216 97.6328 318.122 97.2891 318.039C96.9505 317.956 96.6328 317.914 96.3359 317.914C95.7422 317.914 95.2474 318.042 94.8516 318.297C94.4609 318.552 94.1667 318.927 93.9688 319.422C93.776 319.917 93.6797 320.526 93.6797 321.25C93.6797 321.943 93.7734 322.534 93.9609 323.023C94.1536 323.513 94.4375 323.888 94.8125 324.148C95.1927 324.404 95.6667 324.531 96.2344 324.531C96.6875 324.531 97.0964 324.484 97.4609 324.391C97.8255 324.292 98.1562 324.177 98.4531 324.047V325.203C98.1667 325.349 97.8464 325.461 97.4922 325.539C97.1432 325.617 96.7266 325.656 96.2422 325.656ZM107.82 314.078C109.294 314.078 110.37 314.367 111.047 314.945C111.729 315.518 112.07 316.341 112.07 317.414C112.07 317.898 111.99 318.359 111.828 318.797C111.672 319.229 111.417 319.612 111.062 319.945C110.708 320.273 110.242 320.534 109.664 320.727C109.091 320.914 108.388 321.008 107.555 321.008H106.164V325.5H104.836V314.078H107.82ZM107.695 315.211H106.164V319.867H107.406C108.135 319.867 108.742 319.789 109.227 319.633C109.716 319.477 110.083 319.224 110.328 318.875C110.573 318.521 110.695 318.052 110.695 317.469C110.695 316.708 110.453 316.143 109.969 315.773C109.484 315.398 108.727 315.211 107.695 315.211ZM117.969 325.5H116.633V315.25H113.039V314.078H121.547V315.25H117.969V325.5ZM131.461 325.5H129.852L124.602 319.703V325.5H123.273V314.078H124.602V319.609L129.719 314.078H131.242L126.188 319.625L131.461 325.5ZM143.805 319.086C143.805 319.622 143.648 320.042 143.336 320.344C143.023 320.641 142.62 320.841 142.125 320.945V321.008C142.661 321.081 143.122 321.273 143.508 321.586C143.898 321.893 144.094 322.365 144.094 323C144.094 323.49 143.977 323.922 143.742 324.297C143.508 324.672 143.141 324.966 142.641 325.18C142.141 325.393 141.49 325.5 140.688 325.5H137V316.938H140.656C141.271 316.938 141.812 317.008 142.281 317.148C142.755 317.284 143.128 317.508 143.398 317.82C143.669 318.133 143.805 318.555 143.805 319.086ZM142.742 323C142.742 322.495 142.549 322.13 142.164 321.906C141.784 321.682 141.229 321.57 140.5 321.57H138.305V324.445H140.531C141.25 324.445 141.797 324.336 142.172 324.117C142.552 323.893 142.742 323.521 142.742 323ZM142.484 319.234C142.484 318.828 142.336 318.526 142.039 318.328C141.742 318.125 141.255 318.023 140.578 318.023H138.305V320.484H140.352C141.055 320.484 141.586 320.383 141.945 320.18C142.305 319.977 142.484 319.661 142.484 319.234ZM157.148 319.086C157.148 319.622 156.992 320.042 156.68 320.344C156.367 320.641 155.964 320.841 155.469 320.945V321.008C156.005 321.081 156.466 321.273 156.852 321.586C157.242 321.893 157.438 322.365 157.438 323C157.438 323.49 157.32 323.922 157.086 324.297C156.852 324.672 156.484 324.966 155.984 325.18C155.484 325.393 154.833 325.5 154.031 325.5H150.344V316.938H154C154.615 316.938 155.156 317.008 155.625 317.148C156.099 317.284 156.471 317.508 156.742 317.82C157.013 318.133 157.148 318.555 157.148 319.086ZM156.086 323C156.086 322.495 155.893 322.13 155.508 321.906C155.128 321.682 154.573 321.57 153.844 321.57H151.648V324.445H153.875C154.594 324.445 155.141 324.336 155.516 324.117C155.896 323.893 156.086 323.521 156.086 323ZM155.828 319.234C155.828 318.828 155.68 318.526 155.383 318.328C155.086 318.125 154.599 318.023 153.922 318.023H151.648V320.484H153.695C154.398 320.484 154.93 320.383 155.289 320.18C155.648 319.977 155.828 319.661 155.828 319.234ZM162.734 316.797C163.755 316.797 164.513 317.026 165.008 317.484C165.503 317.943 165.75 318.674 165.75 319.68V325.5H164.805L164.555 324.234H164.492C164.253 324.547 164.003 324.81 163.742 325.023C163.482 325.232 163.18 325.391 162.836 325.5C162.497 325.604 162.081 325.656 161.586 325.656C161.065 325.656 160.602 325.565 160.195 325.383C159.794 325.201 159.477 324.924 159.242 324.555C159.013 324.185 158.898 323.716 158.898 323.148C158.898 322.294 159.237 321.638 159.914 321.18C160.591 320.721 161.622 320.471 163.008 320.43L164.484 320.367V319.844C164.484 319.104 164.326 318.586 164.008 318.289C163.69 317.992 163.242 317.844 162.664 317.844C162.216 317.844 161.789 317.909 161.383 318.039C160.977 318.169 160.591 318.323 160.227 318.5L159.828 317.516C160.214 317.318 160.656 317.148 161.156 317.008C161.656 316.867 162.182 316.797 162.734 316.797ZM164.469 321.281L163.164 321.336C162.096 321.378 161.344 321.552 160.906 321.859C160.469 322.167 160.25 322.602 160.25 323.164C160.25 323.654 160.398 324.016 160.695 324.25C160.992 324.484 161.385 324.602 161.875 324.602C162.635 324.602 163.258 324.391 163.742 323.969C164.227 323.547 164.469 322.914 164.469 322.07V321.281ZM179.906 316.938V325.5H168.422V316.938H169.719V324.398H173.508V316.938H174.812V324.398H178.609V316.938H179.906ZM185.953 316.781C186.682 316.781 187.307 316.943 187.828 317.266C188.349 317.589 188.747 318.042 189.023 318.625C189.299 319.203 189.438 319.88 189.438 320.656V321.461H183.523C183.539 322.466 183.789 323.232 184.273 323.758C184.758 324.284 185.44 324.547 186.32 324.547C186.862 324.547 187.341 324.497 187.758 324.398C188.174 324.299 188.607 324.154 189.055 323.961V325.102C188.622 325.294 188.193 325.435 187.766 325.523C187.344 325.612 186.844 325.656 186.266 325.656C185.443 325.656 184.724 325.49 184.109 325.156C183.5 324.818 183.026 324.323 182.688 323.672C182.349 323.021 182.18 322.224 182.18 321.281C182.18 320.359 182.333 319.562 182.641 318.891C182.953 318.214 183.391 317.693 183.953 317.328C184.521 316.964 185.188 316.781 185.953 316.781ZM185.938 317.844C185.245 317.844 184.693 318.07 184.281 318.523C183.87 318.977 183.625 319.609 183.547 320.422H188.078C188.073 319.911 187.992 319.464 187.836 319.078C187.685 318.688 187.453 318.385 187.141 318.172C186.828 317.953 186.427 317.844 185.938 317.844ZM192.875 316.938V322.32C192.875 322.424 192.872 322.56 192.867 322.727C192.862 322.888 192.854 323.062 192.844 323.25C192.833 323.432 192.823 323.609 192.812 323.781C192.807 323.948 192.799 324.086 192.789 324.195L197.461 316.938H199.055V325.5H197.844V320.25C197.844 320.083 197.846 319.87 197.852 319.609C197.857 319.349 197.865 319.094 197.875 318.844C197.885 318.589 197.893 318.391 197.898 318.25L193.242 325.5H191.641V316.938H192.875ZM198.414 313.414C198.367 313.94 198.234 314.38 198.016 314.734C197.802 315.089 197.487 315.357 197.07 315.539C196.654 315.716 196.12 315.805 195.469 315.805C194.797 315.805 194.255 315.719 193.844 315.547C193.438 315.37 193.135 315.104 192.938 314.75C192.745 314.396 192.63 313.951 192.594 313.414H193.812C193.87 313.987 194.023 314.378 194.273 314.586C194.523 314.794 194.93 314.898 195.492 314.898C195.992 314.898 196.385 314.789 196.672 314.57C196.958 314.352 197.13 313.966 197.188 313.414H198.414ZM212.773 319.086C212.773 319.622 212.617 320.042 212.305 320.344C211.992 320.641 211.589 320.841 211.094 320.945V321.008C211.63 321.081 212.091 321.273 212.477 321.586C212.867 321.893 213.062 322.365 213.062 323C213.062 323.49 212.945 323.922 212.711 324.297C212.477 324.672 212.109 324.966 211.609 325.18C211.109 325.393 210.458 325.5 209.656 325.5H205.969V316.938H209.625C210.24 316.938 210.781 317.008 211.25 317.148C211.724 317.284 212.096 317.508 212.367 317.82C212.638 318.133 212.773 318.555 212.773 319.086ZM211.711 323C211.711 322.495 211.518 322.13 211.133 321.906C210.753 321.682 210.198 321.57 209.469 321.57H207.273V324.445H209.5C210.219 324.445 210.766 324.336 211.141 324.117C211.521 323.893 211.711 323.521 211.711 323ZM211.453 319.234C211.453 318.828 211.305 318.526 211.008 318.328C210.711 318.125 210.224 318.023 209.547 318.023H207.273V320.484H209.32C210.023 320.484 210.555 320.383 210.914 320.18C211.273 319.977 211.453 319.661 211.453 319.234ZM216.461 316.938V320.531H221.234V316.938H222.531V325.5H221.234V321.633H216.461V325.5H215.156V316.938H216.461ZM223.93 316.938H225.32L227.211 321.906C227.32 322.198 227.422 322.479 227.516 322.75C227.609 323.016 227.693 323.271 227.766 323.516C227.839 323.76 227.896 323.997 227.938 324.227H227.992C228.065 323.966 228.169 323.625 228.305 323.203C228.44 322.776 228.586 322.341 228.742 321.898L230.531 316.938H231.93L228.203 326.758C228.005 327.284 227.773 327.742 227.508 328.133C227.247 328.523 226.93 328.823 226.555 329.031C226.18 329.245 225.727 329.352 225.195 329.352C224.951 329.352 224.734 329.336 224.547 329.305C224.359 329.279 224.198 329.247 224.062 329.211V328.172C224.177 328.198 224.315 328.221 224.477 328.242C224.643 328.263 224.815 328.273 224.992 328.273C225.315 328.273 225.594 328.211 225.828 328.086C226.068 327.966 226.273 327.789 226.445 327.555C226.617 327.32 226.766 327.042 226.891 326.719L227.359 325.516L223.93 316.938ZM239.133 318.039H236.312V325.5H235.031V318.039H232.25V316.938H239.133V318.039ZM244.852 316.781C245.919 316.781 246.771 317.148 247.406 317.883C248.042 318.617 248.359 319.721 248.359 321.195C248.359 322.169 248.214 322.987 247.922 323.648C247.63 324.31 247.219 324.81 246.688 325.148C246.161 325.487 245.539 325.656 244.82 325.656C244.367 325.656 243.969 325.596 243.625 325.477C243.281 325.357 242.987 325.195 242.742 324.992C242.497 324.789 242.294 324.568 242.133 324.328H242.039C242.055 324.531 242.073 324.776 242.094 325.062C242.12 325.349 242.133 325.599 242.133 325.812V329.328H240.828V316.938H241.898L242.07 318.203H242.133C242.299 317.943 242.503 317.706 242.742 317.492C242.982 317.273 243.273 317.102 243.617 316.977C243.966 316.846 244.378 316.781 244.852 316.781ZM244.625 317.875C244.031 317.875 243.552 317.99 243.188 318.219C242.828 318.448 242.565 318.792 242.398 319.25C242.232 319.703 242.143 320.273 242.133 320.961V321.211C242.133 321.935 242.211 322.547 242.367 323.047C242.529 323.547 242.792 323.927 243.156 324.188C243.526 324.448 244.021 324.578 244.641 324.578C245.172 324.578 245.615 324.435 245.969 324.148C246.323 323.862 246.586 323.464 246.758 322.953C246.935 322.438 247.023 321.846 247.023 321.18C247.023 320.169 246.826 319.367 246.43 318.773C246.039 318.174 245.438 317.875 244.625 317.875ZM253.922 316.781C254.651 316.781 255.276 316.943 255.797 317.266C256.318 317.589 256.716 318.042 256.992 318.625C257.268 319.203 257.406 319.88 257.406 320.656V321.461H251.492C251.508 322.466 251.758 323.232 252.242 323.758C252.727 324.284 253.409 324.547 254.289 324.547C254.831 324.547 255.31 324.497 255.727 324.398C256.143 324.299 256.576 324.154 257.023 323.961V325.102C256.591 325.294 256.161 325.435 255.734 325.523C255.312 325.612 254.812 325.656 254.234 325.656C253.411 325.656 252.693 325.49 252.078 325.156C251.469 324.818 250.995 324.323 250.656 323.672C250.318 323.021 250.148 322.224 250.148 321.281C250.148 320.359 250.302 319.562 250.609 318.891C250.922 318.214 251.359 317.693 251.922 317.328C252.49 316.964 253.156 316.781 253.922 316.781ZM253.906 317.844C253.214 317.844 252.661 318.07 252.25 318.523C251.839 318.977 251.594 319.609 251.516 320.422H256.047C256.042 319.911 255.961 319.464 255.805 319.078C255.654 318.688 255.422 318.385 255.109 318.172C254.797 317.953 254.396 317.844 253.906 317.844ZM260.914 316.938V320.531H265.688V316.938H266.984V325.5H265.688V321.633H260.914V325.5H259.609V316.938H260.914ZM271.039 316.938V320.531H275.812V316.938H277.109V325.5H275.812V321.633H271.039V325.5H269.734V316.938H271.039ZM283.156 316.781C283.885 316.781 284.51 316.943 285.031 317.266C285.552 317.589 285.951 318.042 286.227 318.625C286.503 319.203 286.641 319.88 286.641 320.656V321.461H280.727C280.742 322.466 280.992 323.232 281.477 323.758C281.961 324.284 282.643 324.547 283.523 324.547C284.065 324.547 284.544 324.497 284.961 324.398C285.378 324.299 285.81 324.154 286.258 323.961V325.102C285.826 325.294 285.396 325.435 284.969 325.523C284.547 325.612 284.047 325.656 283.469 325.656C282.646 325.656 281.927 325.49 281.312 325.156C280.703 324.818 280.229 324.323 279.891 323.672C279.552 323.021 279.383 322.224 279.383 321.281C279.383 320.359 279.536 319.562 279.844 318.891C280.156 318.214 280.594 317.693 281.156 317.328C281.724 316.964 282.391 316.781 283.156 316.781ZM283.141 317.844C282.448 317.844 281.896 318.07 281.484 318.523C281.073 318.977 280.828 319.609 280.75 320.422H285.281C285.276 319.911 285.195 319.464 285.039 319.078C284.888 318.688 284.656 318.385 284.344 318.172C284.031 317.953 283.63 317.844 283.141 317.844ZM290.078 316.938V322.32C290.078 322.424 290.076 322.56 290.07 322.727C290.065 322.888 290.057 323.062 290.047 323.25C290.036 323.432 290.026 323.609 290.016 323.781C290.01 323.948 290.003 324.086 289.992 324.195L294.664 316.938H296.258V325.5H295.047V320.25C295.047 320.083 295.049 319.87 295.055 319.609C295.06 319.349 295.068 319.094 295.078 318.844C295.089 318.589 295.096 318.391 295.102 318.25L290.445 325.5H288.844V316.938H290.078ZM295.617 313.414C295.57 313.94 295.438 314.38 295.219 314.734C295.005 315.089 294.69 315.357 294.273 315.539C293.857 315.716 293.323 315.805 292.672 315.805C292 315.805 291.458 315.719 291.047 315.547C290.641 315.37 290.339 315.104 290.141 314.75C289.948 314.396 289.833 313.951 289.797 313.414H291.016C291.073 313.987 291.227 314.378 291.477 314.586C291.727 314.794 292.133 314.898 292.695 314.898C293.195 314.898 293.589 314.789 293.875 314.57C294.161 314.352 294.333 313.966 294.391 313.414H295.617ZM306.602 325.656C305.831 325.656 305.151 325.497 304.562 325.18C303.974 324.862 303.516 324.378 303.188 323.727C302.859 323.076 302.695 322.255 302.695 321.266C302.695 320.229 302.867 319.383 303.211 318.727C303.56 318.065 304.039 317.576 304.648 317.258C305.258 316.94 305.951 316.781 306.727 316.781C307.154 316.781 307.565 316.826 307.961 316.914C308.362 316.997 308.69 317.104 308.945 317.234L308.555 318.32C308.294 318.216 307.992 318.122 307.648 318.039C307.31 317.956 306.992 317.914 306.695 317.914C306.102 317.914 305.607 318.042 305.211 318.297C304.82 318.552 304.526 318.927 304.328 319.422C304.135 319.917 304.039 320.526 304.039 321.25C304.039 321.943 304.133 322.534 304.32 323.023C304.513 323.513 304.797 323.888 305.172 324.148C305.552 324.404 306.026 324.531 306.594 324.531C307.047 324.531 307.456 324.484 307.82 324.391C308.185 324.292 308.516 324.177 308.812 324.047V325.203C308.526 325.349 308.206 325.461 307.852 325.539C307.503 325.617 307.086 325.656 306.602 325.656ZM312.078 316.938V322.32C312.078 322.424 312.076 322.56 312.07 322.727C312.065 322.888 312.057 323.062 312.047 323.25C312.036 323.432 312.026 323.609 312.016 323.781C312.01 323.948 312.003 324.086 311.992 324.195L316.664 316.938H318.258V325.5H317.047V320.25C317.047 320.083 317.049 319.87 317.055 319.609C317.06 319.349 317.068 319.094 317.078 318.844C317.089 318.589 317.096 318.391 317.102 318.25L312.445 325.5H310.844V316.938H312.078ZM324.445 325.656C323.674 325.656 322.995 325.497 322.406 325.18C321.818 324.862 321.359 324.378 321.031 323.727C320.703 323.076 320.539 322.255 320.539 321.266C320.539 320.229 320.711 319.383 321.055 318.727C321.404 318.065 321.883 317.576 322.492 317.258C323.102 316.94 323.794 316.781 324.57 316.781C324.997 316.781 325.409 316.826 325.805 316.914C326.206 316.997 326.534 317.104 326.789 317.234L326.398 318.32C326.138 318.216 325.836 318.122 325.492 318.039C325.154 317.956 324.836 317.914 324.539 317.914C323.945 317.914 323.451 318.042 323.055 318.297C322.664 318.552 322.37 318.927 322.172 319.422C321.979 319.917 321.883 320.526 321.883 321.25C321.883 321.943 321.977 322.534 322.164 323.023C322.357 323.513 322.641 323.888 323.016 324.148C323.396 324.404 323.87 324.531 324.438 324.531C324.891 324.531 325.299 324.484 325.664 324.391C326.029 324.292 326.359 324.177 326.656 324.047V325.203C326.37 325.349 326.049 325.461 325.695 325.539C325.346 325.617 324.93 325.656 324.445 325.656ZM334.523 318.039H331.703V325.5H330.422V318.039H327.641V316.938H334.523V318.039ZM339.516 316.781C340.245 316.781 340.87 316.943 341.391 317.266C341.911 317.589 342.31 318.042 342.586 318.625C342.862 319.203 343 319.88 343 320.656V321.461H337.086C337.102 322.466 337.352 323.232 337.836 323.758C338.32 324.284 339.003 324.547 339.883 324.547C340.424 324.547 340.904 324.497 341.32 324.398C341.737 324.299 342.169 324.154 342.617 323.961V325.102C342.185 325.294 341.755 325.435 341.328 325.523C340.906 325.612 340.406 325.656 339.828 325.656C339.005 325.656 338.286 325.49 337.672 325.156C337.062 324.818 336.589 324.323 336.25 323.672C335.911 323.021 335.742 322.224 335.742 321.281C335.742 320.359 335.896 319.562 336.203 318.891C336.516 318.214 336.953 317.693 337.516 317.328C338.083 316.964 338.75 316.781 339.516 316.781ZM339.5 317.844C338.807 317.844 338.255 318.07 337.844 318.523C337.432 318.977 337.188 319.609 337.109 320.422H341.641C341.635 319.911 341.555 319.464 341.398 319.078C341.247 318.688 341.016 318.385 340.703 318.172C340.391 317.953 339.99 317.844 339.5 317.844ZM354.242 316.938V325.5H353.07V319.922C353.07 319.693 353.076 319.461 353.086 319.227C353.102 318.987 353.12 318.747 353.141 318.508H353.094L350.25 325.5H349.148L346.375 318.508H346.328C346.344 318.747 346.354 318.987 346.359 319.227C346.37 319.461 346.375 319.708 346.375 319.969V325.5H345.195V316.938H346.938L349.703 323.938L352.508 316.938H354.242ZM360.234 316.781C360.964 316.781 361.589 316.943 362.109 317.266C362.63 317.589 363.029 318.042 363.305 318.625C363.581 319.203 363.719 319.88 363.719 320.656V321.461H357.805C357.82 322.466 358.07 323.232 358.555 323.758C359.039 324.284 359.721 324.547 360.602 324.547C361.143 324.547 361.622 324.497 362.039 324.398C362.456 324.299 362.888 324.154 363.336 323.961V325.102C362.904 325.294 362.474 325.435 362.047 325.523C361.625 325.612 361.125 325.656 360.547 325.656C359.724 325.656 359.005 325.49 358.391 325.156C357.781 324.818 357.307 324.323 356.969 323.672C356.63 323.021 356.461 322.224 356.461 321.281C356.461 320.359 356.615 319.562 356.922 318.891C357.234 318.214 357.672 317.693 358.234 317.328C358.802 316.964 359.469 316.781 360.234 316.781ZM360.219 317.844C359.526 317.844 358.974 318.07 358.562 318.523C358.151 318.977 357.906 319.609 357.828 320.422H362.359C362.354 319.911 362.273 319.464 362.117 319.078C361.966 318.688 361.734 318.385 361.422 318.172C361.109 317.953 360.708 317.844 360.219 317.844Z" fill="#5F5B70"/>
</svg>
