<svg width="354" height="325" viewBox="0 0 354 325" fill="none" xmlns="http://www.w3.org/2000/svg">
<g clip-path="url(#clip0_2984_19373)">
<path d="M85.364 215.969C81.53 215.969 78.3969 212.857 78.6618 209.032C79.4049 198.301 81.8685 187.747 85.971 177.781C90.9549 165.674 98.2599 154.673 107.469 145.407C116.678 136.141 127.611 128.791 139.643 123.776C151.675 118.761 164.571 116.18 177.595 116.18C190.618 116.18 203.514 118.761 215.547 123.776C227.579 128.791 238.512 136.141 247.721 145.407C256.93 154.673 264.235 165.674 269.219 177.781C273.321 187.747 275.785 198.302 276.528 209.032C276.793 212.857 273.66 215.969 269.826 215.969C265.992 215.969 262.912 212.856 262.605 209.034C261.888 200.14 259.796 191.398 256.391 183.127C252.105 172.715 245.823 163.255 237.903 155.286C229.983 147.317 220.581 140.995 210.233 136.683C199.886 132.37 188.795 130.15 177.595 130.15C166.395 130.15 155.304 132.37 144.956 136.683C134.609 140.995 125.206 147.317 117.287 155.286C109.367 163.255 103.084 172.715 98.7983 183.127C95.3938 191.398 93.3016 200.14 92.585 209.034C92.2771 212.855 89.198 215.969 85.364 215.969Z" fill="#ECF0F1"/>
<path d="M85.8598 215.969C81.752 215.969 78.3932 212.634 78.6972 208.537C79.7419 194.46 83.7457 180.737 90.4759 168.287C97.1893 155.868 106.434 145.052 117.574 136.531C120.864 134.014 125.531 135.031 127.772 138.514C129.995 141.971 128.985 146.548 125.753 149.085C116.652 156.227 109.084 165.191 103.544 175.439C98.0005 185.693 94.6331 196.964 93.6217 208.54C93.2641 212.632 89.9677 215.969 85.8598 215.969Z" fill="#8C26EA"/>
<path d="M67.0005 215.967C63.1019 215.967 59.9196 212.804 60.1509 208.912C60.9308 195.794 63.8816 182.88 68.8972 170.708C74.8097 156.359 83.476 143.321 94.401 132.339C105.326 121.357 118.296 112.645 132.57 106.702C146.844 100.758 162.143 97.6992 177.594 97.6992C193.044 97.6992 208.343 100.758 222.617 106.702C236.892 112.645 249.861 121.357 260.786 132.339C271.711 143.321 280.378 156.359 286.29 170.708C291.306 182.88 294.257 195.794 295.036 208.912C295.268 212.804 292.086 215.968 288.187 215.968C284.288 215.968 281.153 212.803 280.89 208.914C280.129 197.66 277.553 186.589 273.247 176.139C268.044 163.512 260.417 152.039 250.803 142.375C241.189 132.71 229.776 125.044 217.214 119.814C204.653 114.583 191.19 111.891 177.594 111.891C163.997 111.891 150.534 114.583 137.973 119.814C125.412 125.044 113.998 132.71 104.384 142.375C94.7701 152.039 87.1438 163.512 81.9407 176.139C77.6348 186.589 75.0583 197.66 74.2978 208.914C74.0349 212.803 70.8992 215.967 67.0005 215.967Z" fill="#ECF0F1"/>
<path d="M67.0005 215.967C63.1019 215.967 59.9196 212.803 60.1508 208.912C61.8615 180.118 73.9971 152.85 94.401 132.339C114.787 111.846 141.885 99.6503 170.501 97.9141C174.413 97.6768 177.594 100.876 177.594 104.795C177.594 108.714 174.412 111.866 170.503 112.136C145.634 113.851 122.122 124.544 104.384 142.375C86.6285 160.223 75.988 183.887 74.2976 208.913C74.0349 212.803 70.8992 215.967 67.0005 215.967Z" fill="#BF79FF"/>
<path d="M46.5886 215.974C42.3975 215.974 38.9782 212.574 39.2086 208.389C40.0635 192.863 43.538 177.574 49.5027 163.174C56.4365 146.434 66.5996 131.224 79.4117 118.412C92.2238 105.6 107.434 95.4365 124.174 88.5026C140.914 81.5688 158.855 78 176.974 78C195.093 78 213.035 81.5688 229.775 88.5027C246.514 95.4365 261.725 105.6 274.537 118.412C287.349 131.224 297.512 146.434 304.446 163.174C310.41 177.574 313.885 192.863 314.74 208.389C314.97 212.574 311.551 215.974 307.36 215.974C303.169 215.974 299.796 212.573 299.537 208.39C298.699 194.858 295.626 181.54 290.424 168.982C284.253 154.083 275.207 140.546 263.805 129.144C252.402 117.741 238.865 108.696 223.967 102.525C209.068 96.3534 193.1 93.1772 176.974 93.1772C160.848 93.1771 144.88 96.3534 129.982 102.525C115.083 108.696 101.546 117.741 90.1436 129.144C78.7408 140.546 69.6957 154.083 63.5245 168.982C58.3227 181.54 55.2489 194.858 54.4116 208.39C54.1527 212.573 50.7796 215.974 46.5886 215.974Z" fill="#ECF0F1"/>
<path d="M46.5886 215.974C42.3975 215.974 38.9782 212.574 39.2086 208.389C40.65 182.203 49.5314 156.91 64.8852 135.52C81.7172 112.069 105.48 94.4888 132.828 85.253C160.176 76.0173 189.733 75.5914 217.336 84.0355C242.515 91.738 264.912 106.467 281.934 126.418C284.654 129.606 283.997 134.384 280.664 136.924C277.331 139.465 272.586 138.806 269.845 135.636C254.763 118.201 235.038 105.322 212.896 98.5487C188.329 91.0335 162.024 91.4125 137.684 99.6324C113.344 107.852 92.1954 123.499 77.215 144.37C63.713 163.18 55.835 185.381 54.4115 208.39C54.1527 212.573 50.7796 215.974 46.5886 215.974Z" fill="#E5CAFF"/>
<path fill-rule="evenodd" clip-rule="evenodd" d="M118.826 180.777C118.521 181.296 118.695 181.963 119.214 182.268L171.52 212.976C171.184 213.763 170.999 214.629 170.999 215.538C170.999 219.149 173.926 222.077 177.538 222.077C181.149 222.077 184.077 219.149 184.077 215.538C184.077 211.926 181.149 208.999 177.538 208.999C175.62 208.999 173.894 209.825 172.698 211.14L120.318 180.388C119.799 180.084 119.131 180.257 118.826 180.777Z" fill="#0D0628"/>
</g>
<rect x="0.5" y="0.5" width="353" height="324" rx="23.5" stroke="#E2E2E5"/>
<defs>
<clipPath id="clip0_2984_19373">
<rect width="354" height="325" rx="24" fill="white"/>
</clipPath>
</defs>
</svg>
