<svg width="121" height="23" viewBox="0 0 121 23" fill="none" xmlns="http://www.w3.org/2000/svg">
<path d="M6.90625 4.88281C8.31706 4.88281 9.44857 5.39844 10.3008 6.42969C11.1602 7.46094 11.5898 8.99349 11.5898 11.0273C11.5898 12.3737 11.3893 13.5088 10.9883 14.4326C10.5944 15.3493 10.0394 16.0439 9.32324 16.5166C8.61426 16.9821 7.78711 17.2148 6.8418 17.2148C6.24023 17.2148 5.71745 17.1361 5.27344 16.9785C4.82943 16.821 4.44987 16.6169 4.13477 16.3662C3.81966 16.1084 3.55469 15.8291 3.33984 15.5283H3.18945C3.22526 15.8148 3.25749 16.1335 3.28613 16.4844C3.32194 16.8281 3.33984 17.1432 3.33984 17.4297V22.2744H0.804688V5.1084H2.86719L3.22168 6.75195H3.33984C3.56185 6.41536 3.8304 6.10384 4.14551 5.81738C4.46777 5.53092 4.85449 5.30534 5.30566 5.14062C5.764 4.96875 6.29753 4.88281 6.90625 4.88281ZM6.22949 6.94531C5.53483 6.94531 4.97624 7.08496 4.55371 7.36426C4.13835 7.63639 3.83398 8.04818 3.64062 8.59961C3.45443 9.15104 3.35417 9.84212 3.33984 10.6729V11.0273C3.33984 11.9082 3.42936 12.6566 3.6084 13.2725C3.7946 13.8812 4.09896 14.3467 4.52148 14.6689C4.95117 14.984 5.53125 15.1416 6.26172 15.1416C6.8776 15.1416 7.38607 14.9733 7.78711 14.6367C8.19531 14.3001 8.49967 13.8203 8.7002 13.1973C8.90072 12.5742 9.00098 11.8402 9.00098 10.9951C9.00098 9.71322 8.77181 8.71777 8.31348 8.00879C7.8623 7.2998 7.16764 6.94531 6.22949 6.94531ZM20.5381 4.88281C20.7386 4.88281 20.957 4.89355 21.1934 4.91504C21.4297 4.93652 21.6338 4.96517 21.8057 5.00098L21.5693 7.36426C21.4189 7.32129 21.2327 7.28906 21.0107 7.26758C20.7959 7.24609 20.6025 7.23535 20.4307 7.23535C19.9795 7.23535 19.5498 7.31055 19.1416 7.46094C18.7334 7.60417 18.3717 7.82617 18.0566 8.12695C17.7415 8.42057 17.4945 8.78939 17.3154 9.2334C17.1364 9.67741 17.0469 10.193 17.0469 10.7803V17H14.5117V5.1084H16.4883L16.832 7.20312H16.9502C17.1865 6.7806 17.4801 6.39388 17.8311 6.04297C18.182 5.69206 18.583 5.41276 19.0342 5.20508C19.4925 4.99023 19.9938 4.88281 20.5381 4.88281ZM28.6699 4.88281C30.1738 4.88281 31.3089 5.21582 32.0752 5.88184C32.8486 6.54785 33.2354 7.58626 33.2354 8.99707V17H31.4414L30.958 15.3135H30.8721C30.5355 15.7432 30.1882 16.0977 29.8301 16.377C29.472 16.6562 29.0566 16.8639 28.584 17C28.1185 17.1432 27.5492 17.2148 26.876 17.2148C26.167 17.2148 25.5332 17.0859 24.9746 16.8281C24.416 16.5632 23.9756 16.1621 23.6533 15.625C23.3311 15.0879 23.1699 14.4076 23.1699 13.584C23.1699 12.3594 23.6247 11.4391 24.5342 10.8232C25.4508 10.2074 26.833 9.86719 28.6807 9.80273L30.7432 9.72754V9.10449C30.7432 8.28092 30.5498 7.69368 30.1631 7.34277C29.7835 6.99186 29.2464 6.81641 28.5518 6.81641C27.9574 6.81641 27.3809 6.90234 26.8223 7.07422C26.2637 7.24609 25.7194 7.45736 25.1895 7.70801L24.373 5.9248C24.9531 5.61686 25.612 5.36621 26.3496 5.17285C27.0944 4.97949 27.8678 4.88281 28.6699 4.88281ZM30.7324 11.3174L29.1963 11.3711C27.9359 11.4141 27.0514 11.6289 26.543 12.0156C26.0345 12.4023 25.7803 12.9323 25.7803 13.6055C25.7803 14.1927 25.9557 14.6224 26.3066 14.8945C26.6576 15.1595 27.1195 15.292 27.6924 15.292C28.5661 15.292 29.2894 15.0449 29.8623 14.5508C30.4424 14.0495 30.7324 13.3154 30.7324 12.3486V11.3174ZM39.4873 17L34.9648 5.1084H37.6396L40.0889 12.0908C40.2464 12.5348 40.3896 13.0146 40.5186 13.5303C40.6475 14.0459 40.737 14.4792 40.7871 14.8301H40.873C40.9232 14.4648 41.0199 14.028 41.1631 13.5195C41.3063 13.0039 41.4531 12.5277 41.6035 12.0908L44.0527 5.1084H46.7168L42.1943 17H39.4873ZM59.0488 11.0273C59.0488 12.0156 58.9199 12.8929 58.6621 13.6592C58.4043 14.4255 58.0283 15.0736 57.5342 15.6035C57.04 16.1263 56.4456 16.5273 55.751 16.8066C55.0563 17.0788 54.2721 17.2148 53.3984 17.2148C52.582 17.2148 51.8337 17.0788 51.1533 16.8066C50.473 16.5273 49.8822 16.1263 49.3809 15.6035C48.8867 15.0736 48.5036 14.4255 48.2314 13.6592C47.9593 12.8929 47.8232 12.0156 47.8232 11.0273C47.8232 9.7168 48.0488 8.60677 48.5 7.69727C48.9583 6.7806 49.61 6.08236 50.4551 5.60254C51.3001 5.12272 52.3063 4.88281 53.4736 4.88281C54.5693 4.88281 55.5361 5.12272 56.374 5.60254C57.2119 6.08236 57.8672 6.7806 58.3398 7.69727C58.8125 8.61393 59.0488 9.72396 59.0488 11.0273ZM50.4229 11.0273C50.4229 11.8939 50.5267 12.6351 50.7344 13.251C50.9492 13.8669 51.2786 14.3395 51.7227 14.6689C52.1667 14.9912 52.7396 15.1523 53.4414 15.1523C54.1432 15.1523 54.7161 14.9912 55.1602 14.6689C55.6042 14.3395 55.93 13.8669 56.1377 13.251C56.3454 12.6351 56.4492 11.8939 56.4492 11.0273C56.4492 10.1608 56.3454 9.42676 56.1377 8.8252C55.93 8.21647 55.6042 7.75456 55.1602 7.43945C54.7161 7.11719 54.1396 6.95605 53.4307 6.95605C52.3851 6.95605 51.6224 7.30697 51.1426 8.00879C50.6628 8.71061 50.4229 9.7168 50.4229 11.0273ZM74.4574 15.1738C74.7868 15.1738 75.1127 15.1452 75.435 15.0879C75.7572 15.0234 76.0508 14.9482 76.3158 14.8623V16.7744C76.0365 16.8962 75.6749 17 75.2309 17.0859C74.7868 17.1719 74.3249 17.2148 73.8451 17.2148C73.1719 17.2148 72.5668 17.1038 72.0297 16.8818C71.4926 16.6527 71.0665 16.2624 70.7514 15.7109C70.4363 15.1595 70.2787 14.3968 70.2787 13.4229V7.03125H68.6566V5.90332L70.3969 5.01172L71.224 2.46582H72.8139V5.1084H76.2191V7.03125H72.8139V13.3906C72.8139 13.9922 72.9643 14.4398 73.265 14.7334C73.5658 15.027 73.9633 15.1738 74.4574 15.1738ZM83.4701 4.88281C84.53 4.88281 85.4395 5.10124 86.1986 5.53809C86.9577 5.97493 87.5414 6.5944 87.9496 7.39648C88.3578 8.19857 88.5619 9.1582 88.5619 10.2754V11.6289H80.6234C80.6521 12.7819 80.96 13.6699 81.5473 14.293C82.1417 14.916 82.9724 15.2275 84.0395 15.2275C84.7986 15.2275 85.4789 15.1559 86.0805 15.0127C86.6892 14.8623 87.3158 14.6439 87.9604 14.3574V16.4092C87.3659 16.6885 86.7608 16.8926 86.1449 17.0215C85.529 17.1504 84.7914 17.2148 83.932 17.2148C82.7647 17.2148 81.737 16.9893 80.849 16.5381C79.9682 16.0798 79.2771 15.3994 78.7758 14.4971C78.2816 13.5947 78.0346 12.474 78.0346 11.1348C78.0346 9.80273 78.2602 8.67122 78.7113 7.74023C79.1625 6.80924 79.7963 6.10026 80.6127 5.61328C81.4291 5.1263 82.3816 4.88281 83.4701 4.88281ZM83.4701 6.78418C82.6752 6.78418 82.0307 7.04199 81.5365 7.55762C81.0495 8.07324 80.7631 8.82878 80.6771 9.82422H86.0912C86.084 9.22982 85.9838 8.70345 85.7904 8.24512C85.6042 7.78678 85.3178 7.42871 84.9311 7.1709C84.5515 6.91309 84.0645 6.78418 83.4701 6.78418ZM96.1996 17.2148C95.0753 17.2148 94.1013 16.9964 93.2777 16.5596C92.4542 16.1227 91.8204 15.4531 91.3764 14.5508C90.9324 13.6484 90.7104 12.5026 90.7104 11.1133C90.7104 9.66667 90.9538 8.48503 91.4408 7.56836C91.9278 6.65169 92.601 5.97493 93.4604 5.53809C94.3269 5.10124 95.3187 4.88281 96.4359 4.88281C97.1449 4.88281 97.7859 4.95443 98.3588 5.09766C98.9389 5.23372 99.4294 5.40202 99.8305 5.60254L99.0785 7.62207C98.6417 7.44303 98.1941 7.29264 97.7357 7.1709C97.2774 7.04915 96.837 6.98828 96.4145 6.98828C95.7198 6.98828 95.1397 7.14225 94.6742 7.4502C94.2159 7.75814 93.8721 8.21647 93.643 8.8252C93.421 9.43392 93.31 10.1895 93.31 11.0918C93.31 11.9655 93.4245 12.7031 93.6537 13.3047C93.8829 13.8991 94.223 14.3503 94.6742 14.6582C95.1254 14.959 95.6804 15.1094 96.3393 15.1094C96.9909 15.1094 97.5746 15.0306 98.0902 14.873C98.6059 14.7155 99.0928 14.5114 99.5512 14.2607V16.4521C99.1 16.71 98.6166 16.8997 98.101 17.0215C97.5854 17.1504 96.9516 17.2148 96.1996 17.2148ZM104.869 0.285156V4.48535C104.869 4.9222 104.854 5.34831 104.826 5.76367C104.804 6.17904 104.779 6.5013 104.75 6.73047H104.89C105.141 6.3151 105.449 5.97493 105.814 5.70996C106.179 5.43783 106.587 5.23372 107.038 5.09766C107.497 4.96159 107.984 4.89355 108.499 4.89355C109.409 4.89355 110.182 5.04753 110.82 5.35547C111.457 5.65625 111.944 6.12533 112.281 6.7627C112.624 7.40007 112.796 8.22721 112.796 9.24414V17H110.272V9.7168C110.272 8.79297 110.082 8.10189 109.703 7.64355C109.323 7.17806 108.736 6.94531 107.941 6.94531C107.175 6.94531 106.566 7.10645 106.115 7.42871C105.671 7.74382 105.352 8.21289 105.159 8.83594C104.965 9.45182 104.869 10.2038 104.869 11.0918V17H102.344V0.285156H104.869Z" fill="#0D0628"/>
<path d="M62.1254 10.9736C62.1254 9.77051 62.24 8.59603 62.4691 7.4502C62.7055 6.30436 63.0635 5.21224 63.5434 4.17383C64.0232 3.13542 64.6283 2.17578 65.3588 1.29492H67.5609C66.5368 2.66276 65.7634 4.17741 65.2406 5.83887C64.725 7.50033 64.4672 9.20475 64.4672 10.9521C64.4672 12.0908 64.5818 13.2188 64.8109 14.3359C65.0401 15.4531 65.3839 16.5273 65.8422 17.5586C66.3005 18.597 66.8663 19.571 67.5395 20.4805H65.3588C64.6283 19.6211 64.0232 18.6829 63.5434 17.666C63.0635 16.6491 62.7055 15.5749 62.4691 14.4434C62.24 13.3118 62.1254 12.1553 62.1254 10.9736ZM120.617 10.9629C120.617 12.1517 120.502 13.3118 120.273 14.4434C120.044 15.5749 119.689 16.6491 119.209 17.666C118.737 18.6829 118.128 19.6211 117.383 20.4805H115.213C115.886 19.571 116.452 18.597 116.911 17.5586C117.369 16.5202 117.713 15.4424 117.942 14.3252C118.171 13.208 118.286 12.0801 118.286 10.9414C118.286 9.78125 118.167 8.63542 117.931 7.50391C117.702 6.3724 117.358 5.28385 116.9 4.23828C116.441 3.18555 115.872 2.20443 115.192 1.29492H117.383C118.128 2.17578 118.737 3.13542 119.209 4.17383C119.689 5.21224 120.044 6.30436 120.273 7.4502C120.502 8.58887 120.617 9.75977 120.617 10.9629Z" fill="#8C26EA"/>
</svg>
