<svg width="41" height="40" viewBox="0 0 41 40" fill="none" xmlns="http://www.w3.org/2000/svg">
<path d="M15.327 11.0666C13.5577 9.29723 13.5577 6.42847 15.327 4.65908C17.0964 2.88968 19.9652 2.88968 21.7346 4.65908L26.0063 8.93077C27.7757 10.7002 27.7757 13.5689 26.0063 15.3383C24.2369 17.1077 21.3681 17.1077 19.5987 15.3383L15.327 11.0666Z" stroke="#8C26EA" stroke-width="2.5"/>
<path d="M24.0026 6.66406C24.0026 6.66406 23.6275 8.61014 21.4546 10.783C19.2817 12.9559 17.3359 13.3307 17.3359 13.3307" stroke="#8C26EA" stroke-width="2.5"/>
<path d="M9 33.9793H12.7666C14.4513 33.9793 16.1542 34.1549 17.7939 34.4927C20.6943 35.0902 23.7481 35.1626 26.6782 34.6883C28.123 34.4544 29.5434 34.0968 30.8291 33.4762C31.9898 32.916 33.4116 32.1264 34.3666 31.2419C35.3202 30.3587 36.3133 28.9132 37.0182 27.7833C37.6227 26.8144 37.3303 25.6257 36.3742 24.9038C35.3122 24.1019 33.7362 24.102 32.6744 24.9041L29.6624 27.1794C28.4951 28.0612 27.22 28.8729 25.701 29.1152C25.5183 29.1443 25.3269 29.1709 25.1273 29.194M25.1273 29.194C25.0672 29.201 25.0063 29.2076 24.9447 29.214M25.1273 29.194C25.3703 29.1419 25.6116 28.9921 25.8379 28.7945C26.9099 27.8589 26.9777 26.282 26.0476 25.2372C25.8318 24.9948 25.5792 24.7927 25.2984 24.6252C20.6362 21.8444 13.3824 23.9624 9 27.0702M25.1273 29.194C25.0664 29.2071 25.0055 29.214 24.9447 29.214M24.9447 29.214C24.0724 29.3035 23.0519 29.3267 21.9196 29.2198" stroke="#8C26EA" stroke-width="2.5" stroke-linecap="round"/>
<rect x="4" y="23.332" width="5" height="13.3333" rx="2.5" stroke="#8C26EA" stroke-width="2.5"/>
</svg>
