<svg width="400" height="400" viewBox="0 0 400 400" fill="none" xmlns="http://www.w3.org/2000/svg">
<circle cx="200" cy="200" r="131" fill="#E5CAFF" fill-opacity="0.15"/>
<circle cx="200" cy="200" r="93" fill="#E5CAFF" fill-opacity="0.25"/>
<circle cx="200" cy="200" r="62" fill="#E5CAFF" fill-opacity="0.4"/>
<path d="M39.8279 211.9C39.9562 213.368 41.2496 214.453 42.7168 214.324C44.1839 214.196 45.2693 212.903 45.1409 211.436C45.0125 209.968 43.7191 208.883 42.252 209.011C40.7848 209.14 39.6995 210.433 39.8279 211.9ZM373.844 183.66C373.972 185.128 375.266 186.213 376.733 186.084C378.2 185.956 379.285 184.663 379.157 183.196C379.029 181.728 377.735 180.643 376.268 180.771C374.801 180.9 373.716 182.193 373.844 183.66ZM42.5265 212.166L376.543 183.926L376.458 182.93L42.4423 211.17L42.5265 212.166Z" fill="#8C26EA"/>
<path d="M54.9242 235.69C55.3054 237.113 56.7676 237.957 58.1902 237.576C59.6128 237.195 60.457 235.732 60.0758 234.31C59.6946 232.887 58.2324 232.043 56.8098 232.424C55.3872 232.805 54.543 234.268 54.9242 235.69ZM305.143 169.623C305.524 171.046 306.986 171.89 308.409 171.509C309.831 171.128 310.675 169.666 310.294 168.243C309.913 166.82 308.451 165.976 307.028 166.357C305.606 166.739 304.761 168.201 305.143 169.623ZM57.6276 235.483L307.846 169.417L307.591 168.45L57.3724 234.517L57.6276 235.483Z" fill="#8C26EA" fill-opacity="0.75"/>
<path d="M31.5832 274.127C32.2056 275.462 33.7922 276.039 35.127 275.417C36.4618 274.794 37.0392 273.208 36.4168 271.873C35.7944 270.538 34.2078 269.961 32.873 270.583C31.5382 271.206 30.9608 272.792 31.5832 274.127ZM339.939 132.444C340.561 133.778 342.148 134.356 343.483 133.733C344.817 133.111 345.395 131.524 344.772 130.19C344.15 128.855 342.563 128.277 341.229 128.9C339.894 129.522 339.316 131.109 339.939 132.444ZM34.2088 273.454L342.564 131.771L342.147 130.862L33.7912 272.546L34.2088 273.454Z" fill="#8C26EA"/>
<path d="M86.9054 276.584C87.7502 277.791 89.413 278.084 90.6194 277.239C91.8258 276.394 92.119 274.732 91.2742 273.525C90.4295 272.319 88.7667 272.026 87.5603 272.87C86.3539 273.715 86.0607 275.378 86.9054 276.584ZM300.128 127.721C300.973 128.928 302.636 129.221 303.842 128.376C305.049 127.531 305.342 125.869 304.497 124.662C303.652 123.456 301.99 123.163 300.783 124.007C299.577 124.852 299.284 126.515 300.128 127.721ZM89.3761 275.465L302.599 126.602L302.027 125.782L88.8036 274.645L89.3761 275.465Z" fill="#8C26EA"/>
<path d="M85.8855 311.465C86.9269 312.507 88.6153 312.507 89.6567 311.465C90.6981 310.424 90.6981 308.735 89.6567 307.694C88.6153 306.653 86.9269 306.653 85.8855 307.694C84.8441 308.735 84.8441 310.424 85.8855 311.465ZM276.11 121.199C277.151 122.24 278.84 122.24 279.881 121.199C280.923 120.157 280.923 118.469 279.881 117.427C278.84 116.386 277.151 116.386 276.11 117.427C275.069 118.469 275.069 120.157 276.11 121.199ZM88.1247 309.933L278.349 119.667L277.642 118.96L87.4175 309.226L88.1247 309.933Z" fill="#8C26EA" fill-opacity="0.75"/>
<path d="M92.9705 349.684C94.1769 350.529 95.8397 350.236 96.6844 349.03C97.5291 347.823 97.236 346.16 96.0295 345.316C94.8231 344.471 93.1603 344.764 92.3156 345.97C91.4709 347.177 91.764 348.84 92.9705 349.684ZM288.158 71.1275C289.364 71.9723 291.027 71.6791 291.872 70.4727C292.716 69.2663 292.423 67.6035 291.217 66.7588C290.01 65.914 288.348 66.2072 287.503 67.4136C286.658 68.62 286.951 70.2828 288.158 71.1275ZM94.9095 347.787L290.097 69.2301L289.278 68.6562L94.0905 347.213L94.9095 347.787Z" fill="#8C26EA"/>
<path d="M153.373 295.917C154.708 296.539 156.294 295.962 156.917 294.627C157.539 293.292 156.962 291.706 155.627 291.083C154.292 290.461 152.706 291.038 152.083 292.373C151.461 293.708 152.038 295.294 153.373 295.917ZM278.587 27.6449C279.922 28.2673 281.508 27.6899 282.131 26.3551C282.753 25.0203 282.176 23.4337 280.841 22.8113C279.506 22.1889 277.92 22.7664 277.297 24.1011C276.675 25.4359 277.252 27.0225 278.587 27.6449ZM154.953 293.711L280.167 25.4396L279.261 25.0166L154.047 293.289L154.953 293.711Z" fill="#8C26EA" fill-opacity="0.5"/>
<path d="M167.309 320.578C168.731 320.959 170.194 320.115 170.575 318.692C170.956 317.27 170.112 315.807 168.689 315.426C167.267 315.045 165.804 315.889 165.423 317.312C165.042 318.734 165.886 320.197 167.309 320.578ZM230.139 82.0951C231.562 82.4763 233.024 81.632 233.405 80.2095C233.787 78.7869 232.942 77.3246 231.52 76.9435C230.097 76.5623 228.635 77.4065 228.254 78.8291C227.873 80.2517 228.717 81.7139 230.139 82.0951ZM168.482 318.129L231.313 79.6467L230.346 79.3919L167.515 317.875L168.482 318.129Z" fill="#8C26EA" fill-opacity="0.75"/>
<path d="M183.68 376.707C185.147 376.835 186.441 375.75 186.569 374.283C186.697 372.815 185.612 371.522 184.145 371.394C182.678 371.265 181.384 372.351 181.256 373.818C181.128 375.285 182.213 376.578 183.68 376.707ZM213.769 25.1564C215.236 25.2848 216.53 24.1995 216.658 22.7323C216.786 21.2652 215.701 19.9718 214.234 19.8434C212.767 19.715 211.473 20.8003 211.345 22.2675C211.217 23.7346 212.302 25.0281 213.769 25.1564ZM184.411 374.093L214.5 22.5425L213.503 22.4573L183.414 374.008L184.411 374.093Z" fill="#8C26EA"/>
<path d="M213.119 358.215C214.586 358.087 215.672 356.793 215.543 355.326C215.415 353.859 214.121 352.774 212.654 352.902C211.187 353.03 210.102 354.324 210.23 355.791C210.359 357.258 211.652 358.343 213.119 358.215ZM187.09 59.5724C188.557 59.4441 189.642 58.1507 189.514 56.6835C189.385 55.2164 188.092 54.1311 186.625 54.2594C185.158 54.3878 184.072 55.6812 184.201 57.1484C184.329 58.6155 185.623 59.7008 187.09 59.5724ZM213.385 355.515L187.355 56.8725L186.359 56.9594L212.389 355.602L213.385 355.515Z" fill="#8C26EA" fill-opacity="0.5"/>
<path d="M231.764 320.619C233.187 320.238 234.031 318.775 233.65 317.353C233.269 315.93 231.807 315.086 230.384 315.467C228.961 315.848 228.117 317.311 228.498 318.733C228.88 320.156 230.342 321 231.764 320.619ZM178.459 120.906C179.882 120.525 180.726 119.063 180.345 117.64C179.964 116.218 178.501 115.374 177.079 115.755C175.656 116.136 174.812 117.598 175.193 119.021C175.574 120.443 177.037 121.288 178.459 120.906ZM231.557 317.914L178.252 118.202L177.286 118.459L230.591 318.172L231.557 317.914Z" fill="#8C26EA"/>
<path d="M266.963 343.968C268.298 343.345 268.875 341.759 268.253 340.424C267.63 339.089 266.044 338.512 264.709 339.134C263.374 339.756 262.797 341.343 263.419 342.678C264.042 344.013 265.628 344.59 266.963 343.968ZM125.126 39.4183C126.46 38.7959 127.038 37.2093 126.415 35.8745C125.793 34.5397 124.206 33.9622 122.872 34.5847C121.537 35.2071 120.959 36.7937 121.582 38.1285C122.204 39.4632 123.791 40.0407 125.126 39.4183ZM266.289 341.34L124.452 36.7904L123.545 37.2126L265.383 341.762L266.289 341.34Z" fill="#8C26EA"/>
<path d="M280.26 314.821C281.466 313.976 281.76 312.314 280.915 311.107C280.07 309.901 278.407 309.608 277.201 310.452C275.995 311.297 275.701 312.96 276.546 314.166C277.391 315.373 279.054 315.666 280.26 314.821ZM110.302 71.6908C111.509 70.846 111.802 69.1832 110.957 67.9768C110.112 66.7704 108.45 66.4772 107.243 67.3219C106.037 68.1667 105.743 69.8295 106.588 71.0359C107.433 72.2423 109.096 72.5355 110.302 71.6908ZM279.14 312.35L109.182 69.2199L108.363 69.7928L278.321 312.923L279.14 312.35Z" fill="#8C26EA"/>
<path d="M319.429 319.682C320.47 318.641 320.47 316.953 319.429 315.911C318.387 314.87 316.699 314.87 315.657 315.911C314.616 316.953 314.616 318.641 315.657 319.682C316.699 320.724 318.387 320.724 319.429 319.682ZM128.805 128.322C129.847 127.281 129.847 125.592 128.805 124.551C127.764 123.51 126.075 123.51 125.034 124.551C123.993 125.592 123.993 127.281 125.034 128.322C126.075 129.364 127.764 129.364 128.805 128.322ZM317.897 317.444L127.274 126.084L126.565 126.79L317.189 318.15L317.897 317.444Z" fill="#8C26EA" fill-opacity="0.75"/>
<path d="M291.723 263.565C292.568 262.358 292.275 260.695 291.069 259.851C289.862 259.006 288.199 259.299 287.355 260.506C286.51 261.712 286.803 263.375 288.01 264.22C289.216 265.064 290.879 264.771 291.723 263.565ZM72.349 109.887C73.1937 108.681 72.9005 107.018 71.6941 106.173C70.4877 105.329 68.8249 105.622 67.9802 106.828C67.1355 108.035 67.4287 109.698 68.6351 110.542C69.8415 111.387 71.5043 111.094 72.349 109.887ZM289.826 261.626L70.4515 107.948L69.8777 108.767L289.252 262.445L289.826 261.626Z" fill="#8C26EA" fill-opacity="0.5"/>
<path d="M372.284 280.111C372.906 278.777 372.329 277.19 370.994 276.568C369.659 275.945 368.073 276.523 367.45 277.857C366.828 279.192 367.405 280.779 368.74 281.401C370.075 282.024 371.662 281.446 372.284 280.111ZM108.212 155.813C108.834 154.478 108.257 152.892 106.922 152.269C105.587 151.647 104.001 152.225 103.378 153.559C102.756 154.894 103.333 156.481 104.668 157.103C106.003 157.726 107.589 157.148 108.212 155.813ZM370.08 278.532L106.008 154.234L105.582 155.139L369.654 279.437L370.08 278.532Z" fill="#8C26EA"/>
<path d="M321.076 231.733C321.457 230.311 320.613 228.848 319.19 228.467C317.768 228.086 316.305 228.93 315.924 230.353C315.543 231.775 316.387 233.238 317.81 233.619C319.232 234 320.695 233.156 321.076 231.733ZM49.7499 158.757C50.131 157.334 49.2868 155.872 47.8643 155.491C46.4417 155.11 44.9795 155.954 44.5983 157.377C44.2171 158.799 45.0613 160.261 46.4839 160.643C47.9064 161.024 49.3687 160.179 49.7499 158.757ZM318.63 230.56L47.3039 157.584L47.0442 158.55L318.37 231.526L318.63 230.56Z" fill="#8C26EA"/>
<path d="M359.352 212.877C359.48 211.41 358.395 210.116 356.928 209.988C355.461 209.86 354.167 210.945 354.039 212.412C353.91 213.879 354.996 215.173 356.463 215.301C357.93 215.429 359.223 214.344 359.352 212.877ZM85.3594 188.571C85.4878 187.104 84.4025 185.81 82.9353 185.682C81.4682 185.554 80.1747 186.639 80.0464 188.106C79.918 189.573 81.0033 190.867 82.4705 190.995C83.9376 191.123 85.2311 190.038 85.3594 188.571ZM356.739 212.146L82.7471 187.84L82.6587 188.836L356.651 213.143L356.739 212.146Z" fill="#8C26EA"/>
<g filter="url(#filter0_f_2984_18664)">
<circle cx="200" cy="200" r="49" fill="#E5CAFF"/>
</g>
<circle cx="200" cy="200" r="31" fill="#E5CAFF"/>
<path d="M36.4531 142.035V143.001C37.291 143.016 37.957 143.155 38.4512 143.42C38.9489 143.682 39.3052 144.029 39.52 144.462C39.7384 144.896 39.8477 145.381 39.8477 145.918C39.8477 146.283 39.7904 146.641 39.6758 146.992C39.5612 147.34 39.3732 147.655 39.1118 147.938C38.854 148.22 38.5067 148.45 38.0698 148.625C37.6366 148.797 37.0977 148.888 36.4531 148.899V150.107H35.4058V148.899C34.7505 148.888 34.2026 148.793 33.7622 148.614C33.3254 148.435 32.978 148.204 32.7202 147.921C32.466 147.635 32.2834 147.32 32.1724 146.976C32.0649 146.629 32.0112 146.28 32.0112 145.929C32.0112 145.535 32.0703 145.164 32.1885 144.817C32.3102 144.47 32.5036 144.162 32.7686 143.893C33.0335 143.625 33.3826 143.411 33.8159 143.254C34.2492 143.096 34.7791 143.012 35.4058 143.001V142.035H36.4531ZM35.4058 143.904C34.84 143.922 34.387 144.015 34.0469 144.183C33.7103 144.351 33.4668 144.584 33.3164 144.881C33.1696 145.175 33.0962 145.521 33.0962 145.918C33.0962 146.337 33.1785 146.7 33.3433 147.008C33.508 147.316 33.7604 147.556 34.1006 147.728C34.4408 147.9 34.8758 147.995 35.4058 148.013V143.904ZM36.4531 143.904V148.013C36.9974 147.995 37.4378 147.898 37.7744 147.723C38.1146 147.547 38.3634 147.306 38.521 146.998C38.6821 146.686 38.7627 146.323 38.7627 145.907C38.7627 145.51 38.6875 145.164 38.5371 144.871C38.3903 144.577 38.1486 144.348 37.812 144.183C37.4754 144.015 37.0225 143.922 36.4531 143.904ZM47.5283 150H46.4272V146.375H42.5547V150H41.4536V142.147H42.5547V145.424H46.4272V142.147H47.5283V150ZM52.9907 142.985C52.5861 142.985 52.2227 143.057 51.9004 143.2C51.5817 143.34 51.3114 143.546 51.0894 143.818C50.8674 144.086 50.6973 144.41 50.5791 144.79C50.4609 145.17 50.4019 145.597 50.4019 146.074C50.4019 146.708 50.495 147.255 50.6812 147.717C50.8709 148.179 51.1556 148.535 51.5352 148.786C51.9147 149.037 52.3927 149.162 52.9692 149.162C53.313 149.162 53.6406 149.132 53.9521 149.071C54.2673 149.006 54.5806 148.924 54.8921 148.824V149.769C54.5913 149.884 54.2798 149.968 53.9575 150.021C53.6388 150.079 53.2646 150.107 52.835 150.107C52.0329 150.107 51.3651 149.941 50.8315 149.608C50.3016 149.275 49.9059 148.808 49.6445 148.206C49.3831 147.601 49.2524 146.888 49.2524 146.068C49.2524 145.474 49.3348 144.931 49.4995 144.441C49.6642 143.947 49.9059 143.521 50.2246 143.163C50.5433 142.801 50.9336 142.523 51.3955 142.33C51.861 142.133 52.3963 142.035 53.0015 142.035C53.3953 142.035 53.7785 142.078 54.1509 142.164C54.5269 142.246 54.8724 142.362 55.1875 142.513L54.7793 143.431C54.5179 143.313 54.2368 143.209 53.936 143.12C53.6388 143.03 53.3237 142.985 52.9907 142.985Z" fill="#0D0628"/>
<path d="M119.999 26H118.699L115.277 22.0146V26H114.176V18.1475H115.277V21.9502L118.618 18.1475H119.848L116.529 21.9502L119.999 26ZM125.96 26L125.09 23.6636H122.013L121.153 26H120.009L123.006 18.1152H124.134L127.115 26H125.96ZM124.784 22.7075L123.957 20.3926C123.932 20.3138 123.893 20.1956 123.839 20.0381C123.789 19.8805 123.737 19.7176 123.683 19.5493C123.633 19.381 123.592 19.2414 123.56 19.1304C123.524 19.2772 123.483 19.4329 123.436 19.5977C123.389 19.7588 123.343 19.911 123.296 20.0542C123.253 20.1938 123.218 20.3066 123.189 20.3926L122.351 22.7075H124.784ZM133.646 18.1475V25.0386H134.635V28.1108H133.577V26H128.254V28.1108H127.196V25.0386H127.797C128.048 24.5946 128.284 24.1022 128.506 23.5615C128.732 23.0173 128.934 22.4461 129.113 21.8481C129.292 21.2466 129.443 20.6343 129.564 20.0112C129.686 19.3846 129.77 18.7633 129.817 18.1475H133.646ZM132.551 19.1089H130.751C130.712 19.5386 130.639 20.0112 130.531 20.5269C130.427 21.0425 130.293 21.5724 130.128 22.1167C129.967 22.6574 129.786 23.1802 129.586 23.6851C129.389 24.1864 129.18 24.6375 128.958 25.0386H132.551V19.1089Z" fill="#0D0628"/>
<path opacity="0.3" d="M330.683 114.035V115.001C331.521 115.016 332.187 115.155 332.681 115.42C333.179 115.682 333.535 116.029 333.75 116.462C333.968 116.896 334.078 117.381 334.078 117.918C334.078 118.283 334.02 118.641 333.906 118.992C333.791 119.34 333.603 119.655 333.342 119.938C333.084 120.22 332.737 120.45 332.3 120.625C331.867 120.797 331.328 120.888 330.683 120.899V122.107H329.636V120.899C328.98 120.888 328.433 120.793 327.992 120.614C327.555 120.435 327.208 120.204 326.95 119.921C326.696 119.635 326.513 119.32 326.402 118.976C326.295 118.629 326.241 118.28 326.241 117.929C326.241 117.535 326.3 117.164 326.418 116.817C326.54 116.47 326.734 116.162 326.999 115.893C327.264 115.625 327.613 115.411 328.046 115.254C328.479 115.096 329.009 115.012 329.636 115.001V114.035H330.683ZM329.636 115.904C329.07 115.922 328.617 116.015 328.277 116.183C327.94 116.351 327.697 116.584 327.546 116.881C327.4 117.175 327.326 117.521 327.326 117.918C327.326 118.337 327.409 118.7 327.573 119.008C327.738 119.316 327.99 119.556 328.331 119.728C328.671 119.9 329.106 119.995 329.636 120.013V115.904ZM330.683 115.904V120.013C331.227 119.995 331.668 119.898 332.004 119.723C332.345 119.547 332.593 119.306 332.751 118.998C332.912 118.686 332.993 118.323 332.993 117.907C332.993 117.51 332.917 117.164 332.767 116.871C332.62 116.577 332.379 116.348 332.042 116.183C331.705 116.015 331.252 115.922 330.683 115.904ZM339.035 114.985C338.631 114.985 338.267 115.057 337.945 115.2C337.626 115.34 337.356 115.546 337.134 115.818C336.912 116.086 336.742 116.41 336.624 116.79C336.505 117.17 336.446 117.597 336.446 118.074C336.446 118.708 336.539 119.255 336.726 119.717C336.915 120.179 337.2 120.535 337.58 120.786C337.959 121.037 338.437 121.162 339.014 121.162C339.357 121.162 339.685 121.132 339.997 121.071C340.312 121.006 340.625 120.924 340.937 120.824V121.769C340.636 121.884 340.324 121.968 340.002 122.021C339.683 122.079 339.309 122.107 338.879 122.107C338.077 122.107 337.41 121.941 336.876 121.608C336.346 121.275 335.95 120.808 335.689 120.206C335.428 119.601 335.297 118.888 335.297 118.068C335.297 117.474 335.379 116.931 335.544 116.441C335.709 115.947 335.95 115.521 336.269 115.163C336.588 114.801 336.978 114.523 337.44 114.33C337.905 114.133 338.441 114.035 339.046 114.035C339.44 114.035 339.823 114.078 340.195 114.164C340.571 114.246 340.917 114.362 341.232 114.513L340.824 115.431C340.562 115.313 340.281 115.209 339.98 115.12C339.683 115.03 339.368 114.985 339.035 114.985ZM342.645 114.147H343.66V118.498C343.66 118.674 343.656 118.865 343.649 119.073C343.645 119.28 343.64 119.485 343.633 119.685C343.626 119.886 343.617 120.065 343.606 120.222C343.599 120.38 343.592 120.498 343.584 120.577H343.627L347.812 114.147H349.063V122H348.053V117.692C348.053 117.499 348.057 117.293 348.064 117.075C348.071 116.856 348.078 116.645 348.085 116.441C348.096 116.233 348.107 116.051 348.118 115.893C348.128 115.732 348.136 115.612 348.139 115.533H348.096L343.901 122H342.645V114.147ZM357.249 122H356.147V118.375H352.275V122H351.174V114.147H352.275V117.424H356.147V114.147H357.249V122Z" fill="#0D0628"/>
<path d="M285.335 51.1475C286.349 51.1475 287.088 51.3498 287.554 51.7544C288.023 52.159 288.257 52.7337 288.257 53.4785C288.257 53.8151 288.204 54.1356 288.096 54.4399C287.989 54.7407 287.813 55.0075 287.57 55.2402C287.33 55.4694 287.013 55.652 286.619 55.7881C286.225 55.9206 285.742 55.9868 285.169 55.9868H284.272V59H283.171V51.1475H285.335ZM285.25 52.0713H284.272V55.0576H285.051C285.506 55.0576 285.887 55.0075 286.195 54.9072C286.503 54.8034 286.736 54.6387 286.893 54.4131C287.051 54.1875 287.129 53.8903 287.129 53.5215C287.129 53.0345 286.977 52.6711 286.673 52.4312C286.368 52.1912 285.894 52.0713 285.25 52.0713ZM295.686 59H294.386L290.964 55.0146V59H289.863V51.1475H290.964V54.9502L294.305 51.1475H295.535L292.216 54.9502L295.686 59ZM302.824 59H301.723V55.3745H297.85V59H296.749V51.1475H297.85V54.4238H301.723V51.1475H302.824V59Z" fill="#0D0628"/>
<path opacity="0.3" d="M178.229 48.0654V51.1108H177.171V49H171.29V41.1475H172.391V48.0386H176.14V41.1475H177.23V48.0654H178.229ZM179.518 49V41.1475H184.218V42.0928H180.619V44.4077H181.699C182.451 44.4077 183.045 44.5026 183.482 44.6924C183.919 44.8822 184.23 45.1471 184.417 45.4873C184.606 45.8275 184.701 46.2196 184.701 46.6636C184.701 47.4012 184.474 47.9759 184.019 48.3877C183.568 48.7959 182.827 49 181.795 49H179.518ZM180.619 48.0708H181.704C182.363 48.0708 182.839 47.958 183.133 47.7324C183.426 47.5033 183.573 47.147 183.573 46.6636C183.573 46.3306 183.502 46.0674 183.358 45.874C183.219 45.6807 183 45.5446 182.703 45.4658C182.406 45.3835 182.023 45.3423 181.554 45.3423H180.619V48.0708ZM191.351 41.1475C192.364 41.1475 193.103 41.3498 193.569 41.7544C194.038 42.159 194.272 42.7337 194.272 43.4785C194.272 43.8151 194.219 44.1356 194.111 44.4399C194.004 44.7407 193.828 45.0075 193.585 45.2402C193.345 45.4694 193.028 45.652 192.634 45.7881C192.24 45.9206 191.757 45.9868 191.184 45.9868H190.287V49H189.186V41.1475H191.351ZM191.265 42.0713H190.287V45.0576H191.066C191.521 45.0576 191.902 45.0075 192.21 44.9072C192.518 44.8034 192.751 44.6387 192.908 44.4131C193.066 44.1875 193.145 43.8903 193.145 43.5215C193.145 43.0345 192.992 42.6711 192.688 42.4312C192.384 42.1912 191.909 42.0713 191.265 42.0713ZM199.815 41.0347V42.0015C200.653 42.0158 201.319 42.1554 201.813 42.4204C202.311 42.6818 202.667 43.0291 202.882 43.4624C203.101 43.8957 203.21 44.3809 203.21 44.918C203.21 45.2832 203.153 45.6413 203.038 45.9922C202.924 46.3395 202.736 46.6546 202.474 46.9375C202.216 47.2204 201.869 47.4495 201.432 47.625C200.999 47.7969 200.46 47.8882 199.815 47.8989V49.1074H198.768V47.8989C198.113 47.8882 197.565 47.7933 197.125 47.6143C196.688 47.4352 196.34 47.2043 196.083 46.9214C195.828 46.6349 195.646 46.3198 195.535 45.9761C195.427 45.6287 195.374 45.2796 195.374 44.9287C195.374 44.5348 195.433 44.1642 195.551 43.8169C195.673 43.4696 195.866 43.1616 196.131 42.8931C196.396 42.6245 196.745 42.4115 197.178 42.2539C197.611 42.0964 198.141 42.0122 198.768 42.0015V41.0347H199.815ZM198.768 42.9038C198.202 42.9217 197.749 43.0148 197.409 43.1831C197.073 43.3514 196.829 43.5841 196.679 43.8813C196.532 44.175 196.458 44.5205 196.458 44.918C196.458 45.3369 196.541 45.7004 196.706 46.0083C196.87 46.3162 197.123 46.5562 197.463 46.728C197.803 46.8999 198.238 46.9948 198.768 47.0127V42.9038ZM199.815 42.9038V47.0127C200.36 46.9948 200.8 46.8981 201.137 46.7227C201.477 46.5472 201.726 46.3055 201.883 45.9976C202.044 45.686 202.125 45.3226 202.125 44.9072C202.125 44.5098 202.05 44.1642 201.899 43.8706C201.753 43.577 201.511 43.3478 201.174 43.1831C200.838 43.0148 200.385 42.9217 199.815 42.9038Z" fill="#0D0628"/>
<path opacity="0.3" d="M59.229 99.0654V102.111H58.1709V100H52.2896V92.1475H53.3906V99.0386H57.1396V92.1475H58.23V99.0654H59.229ZM60.5181 100V92.1475H65.2178V93.0928H61.6191V95.4077H62.6987C63.4507 95.4077 64.0451 95.5026 64.4819 95.6924C64.9188 95.8822 65.2303 96.1471 65.4165 96.4873C65.6063 96.8275 65.7012 97.2196 65.7012 97.6636C65.7012 98.4012 65.4738 98.9759 65.019 99.3877C64.5679 99.7959 63.8267 100 62.7954 100H60.5181ZM61.6191 99.0708H62.7041C63.363 99.0708 63.8392 98.958 64.1328 98.7324C64.4264 98.5033 64.5732 98.147 64.5732 97.6636C64.5732 97.3306 64.5016 97.0674 64.3584 96.874C64.2188 96.6807 64.0003 96.5446 63.7031 96.4658C63.4059 96.3835 63.0228 96.3423 62.5537 96.3423H61.6191V99.0708ZM72.3506 92.1475C73.3639 92.1475 74.1034 92.3498 74.5688 92.7544C75.0379 93.159 75.2725 93.7337 75.2725 94.4785C75.2725 94.8151 75.2188 95.1356 75.1113 95.4399C75.0039 95.7407 74.8285 96.0075 74.585 96.2402C74.3451 96.4694 74.0282 96.652 73.6343 96.7881C73.2404 96.9206 72.757 96.9868 72.1841 96.9868H71.2871V100H70.186V92.1475H72.3506ZM72.2646 93.0713H71.2871V96.0576H72.0659C72.5207 96.0576 72.902 96.0075 73.21 95.9072C73.5179 95.8034 73.7507 95.6387 73.9082 95.4131C74.0658 95.1875 74.1445 94.8903 74.1445 94.5215C74.1445 94.0345 73.9924 93.6711 73.688 93.4312C73.3836 93.1912 72.9092 93.0713 72.2646 93.0713ZM80.8154 92.0347V93.0015C81.6533 93.0158 82.3193 93.1554 82.8135 93.4204C83.3112 93.6818 83.6675 94.0291 83.8823 94.4624C84.1007 94.8957 84.21 95.3809 84.21 95.918C84.21 96.2832 84.1527 96.6413 84.0381 96.9922C83.9235 97.3395 83.7355 97.6546 83.4741 97.9375C83.2163 98.2204 82.869 98.4495 82.4321 98.625C81.9989 98.7969 81.46 98.8882 80.8154 98.8989V100.107H79.7681V98.8989C79.1128 98.8882 78.5649 98.7933 78.1245 98.6143C77.6877 98.4352 77.3403 98.2043 77.0825 97.9214C76.8283 97.6349 76.6457 97.3198 76.5347 96.9761C76.4272 96.6287 76.3735 96.2796 76.3735 95.9287C76.3735 95.5348 76.4326 95.1642 76.5508 94.8169C76.6725 94.4696 76.8659 94.1616 77.1309 93.8931C77.3958 93.6245 77.745 93.4115 78.1782 93.2539C78.6115 93.0964 79.1414 93.0122 79.7681 93.0015V92.0347H80.8154ZM79.7681 93.9038C79.2023 93.9217 78.7493 94.0148 78.4092 94.1831C78.0726 94.3514 77.8291 94.5841 77.6787 94.8813C77.5319 95.175 77.4585 95.5205 77.4585 95.918C77.4585 96.3369 77.5409 96.7004 77.7056 97.0083C77.8703 97.3162 78.1227 97.5562 78.4629 97.728C78.8031 97.8999 79.2381 97.9948 79.7681 98.0127V93.9038ZM80.8154 93.9038V98.0127C81.3597 97.9948 81.8001 97.8981 82.1367 97.7227C82.4769 97.5472 82.7257 97.3055 82.8833 96.9976C83.0444 96.686 83.125 96.3226 83.125 95.9072C83.125 95.5098 83.0498 95.1642 82.8994 94.8706C82.7526 94.577 82.5109 94.3478 82.1743 94.1831C81.8377 94.0148 81.3848 93.9217 80.8154 93.9038Z" fill="#0D0628"/>
<path d="M355.635 287.147C356.649 287.147 357.388 287.35 357.854 287.754C358.323 288.159 358.557 288.734 358.557 289.479C358.557 289.815 358.503 290.136 358.396 290.44C358.289 290.741 358.113 291.007 357.87 291.24C357.63 291.469 357.313 291.652 356.919 291.788C356.525 291.921 356.042 291.987 355.469 291.987H354.572V295H353.471V287.147H355.635ZM355.549 288.071H354.572V291.058H355.351C355.805 291.058 356.187 291.007 356.495 290.907C356.803 290.803 357.035 290.639 357.193 290.413C357.35 290.188 357.429 289.89 357.429 289.521C357.429 289.035 357.277 288.671 356.973 288.431C356.668 288.191 356.194 288.071 355.549 288.071ZM365.201 292.03C365.201 292.517 365.137 292.952 365.008 293.335C364.882 293.715 364.698 294.037 364.455 294.302C364.215 294.563 363.925 294.764 363.584 294.903C363.244 295.039 362.859 295.107 362.43 295.107C362.029 295.107 361.66 295.039 361.323 294.903C360.99 294.764 360.702 294.563 360.458 294.302C360.215 294.037 360.027 293.715 359.895 293.335C359.762 292.952 359.696 292.517 359.696 292.03C359.696 291.382 359.807 290.83 360.029 290.375C360.251 289.917 360.568 289.57 360.979 289.333C361.395 289.094 361.889 288.974 362.462 288.974C363.006 288.974 363.484 289.094 363.896 289.333C364.308 289.573 364.628 289.921 364.857 290.375C365.087 290.83 365.201 291.382 365.201 292.03ZM360.802 292.03C360.802 292.485 360.86 292.877 360.974 293.206C361.092 293.532 361.271 293.783 361.511 293.958C361.755 294.133 362.068 294.221 362.451 294.221C362.827 294.221 363.137 294.133 363.38 293.958C363.624 293.783 363.803 293.532 363.917 293.206C364.032 292.877 364.089 292.485 364.089 292.03C364.089 291.579 364.032 291.192 363.917 290.87C363.803 290.547 363.624 290.3 363.38 290.128C363.14 289.957 362.827 289.871 362.44 289.871C361.875 289.871 361.459 290.06 361.194 290.44C360.933 290.816 360.802 291.346 360.802 292.03ZM369.079 295.107C368.535 295.107 368.059 294.998 367.65 294.78C367.242 294.561 366.925 294.228 366.7 293.781C366.478 293.33 366.367 292.76 366.367 292.073C366.367 291.357 366.487 290.771 366.727 290.316C366.966 289.858 367.298 289.52 367.72 289.301C368.146 289.083 368.633 288.974 369.181 288.974C369.503 288.974 369.804 289.006 370.083 289.07C370.366 289.135 370.603 289.215 370.792 289.312L370.47 290.188C370.27 290.109 370.053 290.039 369.82 289.978C369.591 289.917 369.373 289.887 369.165 289.887C368.785 289.887 368.47 289.971 368.22 290.139C367.973 290.304 367.786 290.547 367.661 290.87C367.536 291.192 367.473 291.589 367.473 292.062C367.473 292.52 367.534 292.909 367.656 293.228C367.781 293.543 367.964 293.783 368.204 293.947C368.447 294.112 368.75 294.194 369.111 294.194C369.43 294.194 369.716 294.159 369.971 294.087C370.225 294.015 370.459 293.924 370.674 293.813V294.764C370.467 294.878 370.237 294.964 369.987 295.021C369.736 295.079 369.434 295.107 369.079 295.107ZM374.45 295.107C373.906 295.107 373.43 294.998 373.021 294.78C372.613 294.561 372.296 294.228 372.071 293.781C371.849 293.33 371.738 292.76 371.738 292.073C371.738 291.357 371.858 290.771 372.098 290.316C372.338 289.858 372.669 289.52 373.091 289.301C373.517 289.083 374.004 288.974 374.552 288.974C374.875 288.974 375.175 289.006 375.455 289.07C375.737 289.135 375.974 289.215 376.164 289.312L375.841 290.188C375.641 290.109 375.424 290.039 375.191 289.978C374.962 289.917 374.744 289.887 374.536 289.887C374.157 289.887 373.841 289.971 373.591 290.139C373.344 290.304 373.158 290.547 373.032 290.87C372.907 291.192 372.844 291.589 372.844 292.062C372.844 292.52 372.905 292.909 373.027 293.228C373.152 293.543 373.335 293.783 373.575 293.947C373.818 294.112 374.121 294.194 374.482 294.194C374.801 294.194 375.088 294.159 375.342 294.087C375.596 294.015 375.831 293.924 376.045 293.813V294.764C375.838 294.878 375.609 294.964 375.358 295.021C375.107 295.079 374.805 295.107 374.45 295.107ZM381.696 289.957H379.751V295H378.677V289.957H376.754V289.081H381.696V289.957ZM385.112 288.979C385.842 288.979 386.388 289.142 386.75 289.468C387.112 289.79 387.292 290.3 387.292 290.999V295H386.519L386.31 294.141H386.267C386.102 294.355 385.93 294.535 385.751 294.678C385.572 294.821 385.364 294.928 385.128 295C384.895 295.072 384.611 295.107 384.274 295.107C383.916 295.107 383.597 295.043 383.318 294.914C383.039 294.785 382.818 294.592 382.657 294.334C382.5 294.073 382.421 293.741 382.421 293.34C382.421 292.739 382.652 292.282 383.114 291.971C383.576 291.659 384.276 291.489 385.214 291.46L386.234 291.417V291.084C386.234 290.623 386.131 290.297 385.923 290.107C385.719 289.917 385.432 289.822 385.063 289.822C384.759 289.822 384.467 289.867 384.188 289.957C383.909 290.042 383.64 290.146 383.382 290.268L383.039 289.484C383.318 289.341 383.635 289.221 383.989 289.124C384.347 289.027 384.722 288.979 385.112 288.979ZM386.224 292.126L385.396 292.164C384.713 292.189 384.231 292.304 383.952 292.508C383.676 292.708 383.538 292.989 383.538 293.351C383.538 293.666 383.633 293.897 383.823 294.044C384.013 294.191 384.263 294.264 384.575 294.264C385.055 294.264 385.448 294.13 385.756 293.861C386.068 293.589 386.224 293.188 386.224 292.658V292.126ZM393.351 289.957H391.407V295H390.333V289.957H388.41V289.081H393.351V289.957Z" fill="#0D0628"/>
<path opacity="0.3" d="M311.832 329.985C311.427 329.985 311.063 330.057 310.741 330.2C310.423 330.34 310.152 330.546 309.93 330.818C309.708 331.086 309.538 331.41 309.42 331.79C309.302 332.17 309.243 332.597 309.243 333.074C309.243 333.708 309.336 334.255 309.522 334.717C309.712 335.179 309.996 335.535 310.376 335.786C310.756 336.037 311.234 336.162 311.81 336.162C312.154 336.162 312.481 336.132 312.793 336.071C313.108 336.006 313.421 335.924 313.733 335.824V336.769C313.432 336.884 313.121 336.968 312.798 337.021C312.48 337.079 312.105 337.107 311.676 337.107C310.874 337.107 310.206 336.941 309.672 336.608C309.142 336.275 308.747 335.808 308.485 335.206C308.224 334.601 308.093 333.888 308.093 333.068C308.093 332.474 308.176 331.931 308.34 331.441C308.505 330.947 308.747 330.521 309.065 330.163C309.384 329.801 309.774 329.523 310.236 329.33C310.702 329.133 311.237 329.035 311.842 329.035C312.236 329.035 312.619 329.078 312.992 329.164C313.368 329.246 313.713 329.362 314.028 329.513L313.62 330.431C313.359 330.313 313.078 330.209 312.777 330.12C312.48 330.03 312.165 329.985 311.832 329.985ZM322.321 333.063C322.321 333.668 322.244 334.22 322.09 334.717C321.936 335.211 321.707 335.638 321.403 335.996C321.102 336.35 320.724 336.624 320.27 336.817C319.818 337.011 319.29 337.107 318.685 337.107C318.069 337.107 317.532 337.011 317.074 336.817C316.619 336.624 316.241 336.348 315.94 335.99C315.64 335.632 315.414 335.204 315.264 334.707C315.117 334.209 315.043 333.657 315.043 333.052C315.043 332.247 315.176 331.541 315.441 330.936C315.706 330.331 316.109 329.862 316.649 329.529C317.194 329.192 317.878 329.024 318.701 329.024C319.496 329.024 320.162 329.19 320.699 329.523C321.236 329.856 321.641 330.326 321.913 330.931C322.185 331.532 322.321 332.243 322.321 333.063ZM316.198 333.063C316.198 333.7 316.286 334.252 316.461 334.717C316.64 335.179 316.913 335.537 317.278 335.792C317.647 336.042 318.116 336.167 318.685 336.167C319.262 336.167 319.732 336.042 320.098 335.792C320.463 335.537 320.731 335.179 320.903 334.717C321.075 334.252 321.161 333.7 321.161 333.063C321.161 332.096 320.964 331.341 320.57 330.796C320.176 330.249 319.553 329.975 318.701 329.975C318.128 329.975 317.657 330.1 317.289 330.351C316.92 330.598 316.646 330.952 316.467 331.414C316.288 331.872 316.198 332.422 316.198 333.063ZM333.901 333.063C333.901 333.668 333.828 334.22 333.681 334.717C333.538 335.211 333.321 335.638 333.031 335.996C332.745 336.354 332.383 336.629 331.946 336.823C331.513 337.013 331.008 337.107 330.432 337.107C329.69 337.107 329.067 336.953 328.562 336.646C328.061 336.338 327.676 335.904 327.408 335.346C327.143 334.787 326.992 334.132 326.957 333.38H325.136V337H324.035V329.147H325.136V332.429H326.973C327.03 331.742 327.195 331.142 327.467 330.63C327.739 330.118 328.12 329.722 328.611 329.443C329.105 329.164 329.71 329.024 330.426 329.024C331.189 329.024 331.828 329.192 332.344 329.529C332.859 329.862 333.248 330.331 333.509 330.936C333.771 331.541 333.901 332.25 333.901 333.063ZM328.101 333.052C328.101 333.69 328.181 334.241 328.342 334.707C328.507 335.172 328.759 335.532 329.1 335.786C329.443 336.04 329.882 336.167 330.416 336.167C330.96 336.167 331.404 336.042 331.748 335.792C332.095 335.537 332.349 335.179 332.51 334.717C332.671 334.252 332.752 333.7 332.752 333.063C332.752 332.426 332.671 331.876 332.51 331.414C332.349 330.952 332.098 330.598 331.758 330.351C331.418 330.1 330.978 329.975 330.437 329.975C329.896 329.975 329.454 330.098 329.11 330.345C328.767 330.592 328.512 330.947 328.348 331.409C328.183 331.867 328.101 332.415 328.101 333.052Z" fill="#0D0628"/>
<path opacity="0.3" d="M155.042 329.035V330.001C155.88 330.016 156.546 330.155 157.041 330.42C157.538 330.682 157.895 331.029 158.109 331.462C158.328 331.896 158.437 332.381 158.437 332.918C158.437 333.283 158.38 333.641 158.265 333.992C158.151 334.34 157.963 334.655 157.701 334.938C157.443 335.22 157.096 335.45 156.659 335.625C156.226 335.797 155.687 335.888 155.042 335.899V337.107H153.995V335.899C153.34 335.888 152.792 335.793 152.352 335.614C151.915 335.435 151.567 335.204 151.31 334.921C151.055 334.635 150.873 334.32 150.762 333.976C150.654 333.629 150.601 333.28 150.601 332.929C150.601 332.535 150.66 332.164 150.778 331.817C150.9 331.47 151.093 331.162 151.358 330.893C151.623 330.625 151.972 330.411 152.405 330.254C152.839 330.096 153.368 330.012 153.995 330.001V329.035H155.042ZM153.995 330.904C153.429 330.922 152.976 331.015 152.636 331.183C152.3 331.351 152.056 331.584 151.906 331.881C151.759 332.175 151.686 332.521 151.686 332.918C151.686 333.337 151.768 333.7 151.933 334.008C152.097 334.316 152.35 334.556 152.69 334.728C153.03 334.9 153.465 334.995 153.995 335.013V330.904ZM155.042 330.904V335.013C155.587 334.995 156.027 334.898 156.364 334.723C156.704 334.547 156.953 334.306 157.11 333.998C157.271 333.686 157.352 333.323 157.352 332.907C157.352 332.51 157.277 332.164 157.126 331.871C156.98 331.577 156.738 331.348 156.401 331.183C156.065 331.015 155.612 330.922 155.042 330.904ZM163.395 329.985C162.99 329.985 162.626 330.057 162.304 330.2C161.986 330.34 161.715 330.546 161.493 330.818C161.271 331.086 161.101 331.41 160.983 331.79C160.865 332.17 160.806 332.597 160.806 333.074C160.806 333.708 160.899 334.255 161.085 334.717C161.275 335.179 161.559 335.535 161.939 335.786C162.319 336.037 162.797 336.162 163.373 336.162C163.717 336.162 164.044 336.132 164.356 336.071C164.671 336.006 164.984 335.924 165.296 335.824V336.769C164.995 336.884 164.684 336.968 164.361 337.021C164.043 337.079 163.668 337.107 163.239 337.107C162.437 337.107 161.769 336.941 161.235 336.608C160.705 336.275 160.31 335.808 160.048 335.206C159.787 334.601 159.656 333.888 159.656 333.068C159.656 332.474 159.739 331.931 159.903 331.441C160.068 330.947 160.31 330.521 160.628 330.163C160.947 329.801 161.337 329.523 161.799 329.33C162.265 329.133 162.8 329.035 163.405 329.035C163.799 329.035 164.182 329.078 164.555 329.164C164.931 329.246 165.276 329.362 165.591 329.513L165.183 330.431C164.922 330.313 164.641 330.209 164.34 330.12C164.043 330.03 163.728 329.985 163.395 329.985ZM170.345 329.985C169.94 329.985 169.577 330.057 169.254 330.2C168.936 330.34 168.665 330.546 168.443 330.818C168.221 331.086 168.051 331.41 167.933 331.79C167.815 332.17 167.756 332.597 167.756 333.074C167.756 333.708 167.849 334.255 168.035 334.717C168.225 335.179 168.51 335.535 168.889 335.786C169.269 336.037 169.747 336.162 170.323 336.162C170.667 336.162 170.995 336.132 171.306 336.071C171.621 336.006 171.935 335.924 172.246 335.824V336.769C171.945 336.884 171.634 336.968 171.312 337.021C170.993 337.079 170.619 337.107 170.189 337.107C169.387 337.107 168.719 336.941 168.186 336.608C167.656 336.275 167.26 335.808 166.999 335.206C166.737 334.601 166.606 333.888 166.606 333.068C166.606 332.474 166.689 331.931 166.854 331.441C167.018 330.947 167.26 330.521 167.579 330.163C167.897 329.801 168.288 329.523 168.75 329.33C169.215 329.133 169.75 329.035 170.355 329.035C170.749 329.035 171.132 329.078 171.505 329.164C171.881 329.246 172.226 329.362 172.542 329.513L172.133 330.431C171.872 330.313 171.591 330.209 171.29 330.12C170.993 330.03 170.678 329.985 170.345 329.985ZM173.943 337V329.147H179.884V337H178.793V330.098H175.044V337H173.943Z" fill="#0D0628"/>
<path d="M363.462 175H359.053V167.147H363.462V168.093H360.154V170.429H363.264V171.364H360.154V174.049H363.462V175ZM369.113 167.035V168.001C369.951 168.016 370.617 168.155 371.111 168.42C371.609 168.682 371.965 169.029 372.18 169.462C372.398 169.896 372.507 170.381 372.507 170.918C372.507 171.283 372.45 171.641 372.335 171.992C372.221 172.34 372.033 172.655 371.771 172.938C371.514 173.22 371.166 173.45 370.729 173.625C370.296 173.797 369.757 173.888 369.113 173.899V175.107H368.065V173.899C367.41 173.888 366.862 173.793 366.422 173.614C365.985 173.435 365.638 173.204 365.38 172.921C365.126 172.635 364.943 172.32 364.832 171.976C364.725 171.629 364.671 171.28 364.671 170.929C364.671 170.535 364.73 170.164 364.848 169.817C364.97 169.47 365.163 169.162 365.428 168.893C365.693 168.625 366.042 168.411 366.476 168.254C366.909 168.096 367.439 168.012 368.065 168.001V167.035H369.113ZM368.065 168.904C367.5 168.922 367.047 169.015 366.707 169.183C366.37 169.351 366.126 169.584 365.976 169.881C365.829 170.175 365.756 170.521 365.756 170.918C365.756 171.337 365.838 171.7 366.003 172.008C366.168 172.316 366.42 172.556 366.76 172.728C367.1 172.9 367.535 172.995 368.065 173.013V168.904ZM369.113 168.904V173.013C369.657 172.995 370.097 172.898 370.434 172.723C370.774 172.547 371.023 172.306 371.181 171.998C371.342 171.686 371.422 171.323 371.422 170.907C371.422 170.51 371.347 170.164 371.197 169.871C371.05 169.577 370.808 169.348 370.472 169.183C370.135 169.015 369.682 168.922 369.113 168.904ZM376.278 167.147C377.291 167.147 378.031 167.35 378.496 167.754C378.965 168.159 379.2 168.734 379.2 169.479C379.2 169.815 379.146 170.136 379.039 170.44C378.931 170.741 378.756 171.007 378.512 171.24C378.272 171.469 377.955 171.652 377.562 171.788C377.168 171.921 376.684 171.987 376.111 171.987H375.214V175H374.113V167.147H376.278ZM376.192 168.071H375.214V171.058H375.993C376.448 171.058 376.829 171.007 377.137 170.907C377.445 170.803 377.678 170.639 377.835 170.413C377.993 170.188 378.072 169.89 378.072 169.521C378.072 169.035 377.92 168.671 377.615 168.431C377.311 168.191 376.836 168.071 376.192 168.071ZM384.157 167.985C383.753 167.985 383.389 168.057 383.067 168.2C382.748 168.34 382.478 168.546 382.256 168.818C382.034 169.086 381.864 169.41 381.746 169.79C381.627 170.17 381.568 170.597 381.568 171.074C381.568 171.708 381.661 172.255 381.848 172.717C382.037 173.179 382.322 173.535 382.702 173.786C383.081 174.037 383.559 174.162 384.136 174.162C384.479 174.162 384.807 174.132 385.119 174.071C385.434 174.006 385.747 173.924 386.059 173.824V174.769C385.758 174.884 385.446 174.968 385.124 175.021C384.805 175.079 384.431 175.107 384.001 175.107C383.199 175.107 382.532 174.941 381.998 174.608C381.468 174.275 381.072 173.808 380.811 173.206C380.55 172.601 380.419 171.888 380.419 171.068C380.419 170.474 380.501 169.931 380.666 169.441C380.831 168.947 381.072 168.521 381.391 168.163C381.71 167.801 382.1 167.523 382.562 167.33C383.028 167.133 383.563 167.035 384.168 167.035C384.562 167.035 384.945 167.078 385.317 167.164C385.693 167.246 386.039 167.362 386.354 167.513L385.946 168.431C385.684 168.313 385.403 168.209 385.103 168.12C384.805 168.03 384.49 167.985 384.157 167.985ZM387.756 175V167.147H392.456V168.093H388.857V170.408H389.937C390.688 170.408 391.283 170.503 391.72 170.692C392.157 170.882 392.468 171.147 392.654 171.487C392.844 171.827 392.939 172.22 392.939 172.664C392.939 173.401 392.712 173.976 392.257 174.388C391.806 174.796 391.064 175 390.033 175H387.756ZM388.857 174.071H389.942C390.601 174.071 391.077 173.958 391.371 173.732C391.664 173.503 391.811 173.147 391.811 172.664C391.811 172.331 391.739 172.067 391.596 171.874C391.457 171.681 391.238 171.545 390.941 171.466C390.644 171.383 390.261 171.342 389.792 171.342H388.857V174.071Z" fill="#0D0628"/>
<path d="M24.7471 291H19.5156V290.151L21.5835 288.051C21.9774 287.654 22.3032 287.306 22.561 287.009C22.8224 286.708 23.0194 286.418 23.1519 286.139C23.2843 285.856 23.3506 285.548 23.3506 285.215C23.3506 284.807 23.2306 284.496 22.9907 284.281C22.7508 284.066 22.4321 283.958 22.0347 283.958C21.6766 283.958 21.3525 284.025 21.0625 284.157C20.776 284.286 20.4788 284.472 20.1709 284.716L19.5908 283.996C19.8021 283.817 20.0312 283.656 20.2783 283.513C20.5254 283.366 20.7957 283.25 21.0894 283.164C21.383 283.078 21.7088 283.035 22.0669 283.035C22.5575 283.035 22.98 283.121 23.3345 283.292C23.6925 283.464 23.9683 283.708 24.1616 284.023C24.355 284.338 24.4517 284.707 24.4517 285.129C24.4517 285.548 24.3675 285.937 24.1992 286.295C24.0345 286.649 23.8 287.002 23.4956 287.353C23.1912 287.704 22.8314 288.078 22.416 288.476L20.8853 289.99V290.039H24.7471V291ZM30.897 283.147V284.104H27.4487V291H26.3477V283.147H30.897ZM32.1914 283.147H33.2065V287.498C33.2065 287.674 33.203 287.865 33.1958 288.073C33.1922 288.28 33.1868 288.485 33.1797 288.685C33.1725 288.886 33.1636 289.065 33.1528 289.222C33.1457 289.38 33.1385 289.498 33.1313 289.577H33.1743L37.3584 283.147H38.6099V291H37.6001V286.692C37.6001 286.499 37.6037 286.293 37.6108 286.075C37.618 285.856 37.6252 285.645 37.6323 285.441C37.6431 285.233 37.6538 285.051 37.6646 284.893C37.6753 284.732 37.6825 284.612 37.686 284.533H37.6431L33.4482 291H32.1914V283.147ZM44.0723 283.985C43.6676 283.985 43.3042 284.057 42.9819 284.2C42.6632 284.34 42.3929 284.546 42.1709 284.818C41.9489 285.086 41.7788 285.41 41.6606 285.79C41.5425 286.17 41.4834 286.597 41.4834 287.074C41.4834 287.708 41.5765 288.255 41.7627 288.717C41.9525 289.179 42.2371 289.535 42.6167 289.786C42.9963 290.037 43.4743 290.162 44.0508 290.162C44.3945 290.162 44.7222 290.132 45.0337 290.071C45.3488 290.006 45.6621 289.924 45.9736 289.824V290.769C45.6729 290.884 45.3613 290.968 45.0391 291.021C44.7204 291.079 44.3462 291.107 43.9165 291.107C43.1144 291.107 42.4466 290.941 41.9131 290.608C41.3831 290.275 40.9875 289.808 40.7261 289.206C40.4647 288.601 40.334 287.888 40.334 287.068C40.334 286.474 40.4163 285.931 40.5811 285.441C40.7458 284.947 40.9875 284.521 41.3062 284.163C41.6248 283.801 42.0151 283.523 42.4771 283.33C42.9425 283.133 43.4779 283.035 44.083 283.035C44.4769 283.035 44.86 283.078 45.2324 283.164C45.6084 283.246 45.9539 283.362 46.269 283.513L45.8608 284.431C45.5994 284.313 45.3184 284.209 45.0176 284.12C44.7204 284.03 44.4053 283.985 44.0723 283.985Z" fill="#0D0628"/>
<path d="M85.9897 358.035V359.001C86.8276 359.016 87.4937 359.155 87.9878 359.42C88.4855 359.682 88.8418 360.029 89.0566 360.462C89.2751 360.896 89.3843 361.381 89.3843 361.918C89.3843 362.283 89.327 362.641 89.2124 362.992C89.0978 363.34 88.9098 363.655 88.6484 363.938C88.3906 364.22 88.0433 364.45 87.6064 364.625C87.1732 364.797 86.6343 364.888 85.9897 364.899V366.107H84.9424V364.899C84.2871 364.888 83.7393 364.793 83.2988 364.614C82.862 364.435 82.5146 364.204 82.2568 363.921C82.0026 363.635 81.82 363.32 81.709 362.976C81.6016 362.629 81.5479 362.28 81.5479 361.929C81.5479 361.535 81.6069 361.164 81.7251 360.817C81.8468 360.47 82.0402 360.162 82.3052 359.893C82.5701 359.625 82.9193 359.411 83.3525 359.254C83.7858 359.096 84.3158 359.012 84.9424 359.001V358.035H85.9897ZM84.9424 359.904C84.3766 359.922 83.9237 360.015 83.5835 360.183C83.2469 360.351 83.0034 360.584 82.853 360.881C82.7062 361.175 82.6328 361.521 82.6328 361.918C82.6328 362.337 82.7152 362.7 82.8799 363.008C83.0446 363.316 83.297 363.556 83.6372 363.728C83.9774 363.9 84.4124 363.995 84.9424 364.013V359.904ZM85.9897 359.904V364.013C86.534 363.995 86.9744 363.898 87.311 363.723C87.6512 363.547 87.9001 363.306 88.0576 362.998C88.2188 362.686 88.2993 362.323 88.2993 361.907C88.2993 361.51 88.2241 361.164 88.0737 360.871C87.9269 360.577 87.6852 360.348 87.3486 360.183C87.012 360.015 86.5591 359.922 85.9897 359.904ZM95.8887 366L95.0186 363.664H91.9409L91.0815 366H89.9375L92.9346 358.115H94.0625L97.0435 366H95.8887ZM94.7124 362.708L93.8853 360.393C93.8602 360.314 93.8208 360.196 93.7671 360.038C93.717 359.881 93.665 359.718 93.6113 359.549C93.5612 359.381 93.52 359.241 93.4878 359.13C93.452 359.277 93.4108 359.433 93.3643 359.598C93.3177 359.759 93.2712 359.911 93.2246 360.054C93.1816 360.194 93.1458 360.307 93.1172 360.393L92.2793 362.708H94.7124ZM101.464 358.985C101.059 358.985 100.696 359.057 100.374 359.2C100.055 359.34 99.7845 359.546 99.5625 359.818C99.3405 360.086 99.1704 360.41 99.0522 360.79C98.9341 361.17 98.875 361.597 98.875 362.074C98.875 362.708 98.9681 363.255 99.1543 363.717C99.3441 364.179 99.6287 364.535 100.008 364.786C100.388 365.037 100.866 365.162 101.442 365.162C101.786 365.162 102.114 365.132 102.425 365.071C102.74 365.006 103.054 364.924 103.365 364.824V365.769C103.064 365.884 102.753 365.968 102.431 366.021C102.112 366.079 101.738 366.107 101.308 366.107C100.506 366.107 99.8382 365.941 99.3047 365.608C98.7747 365.275 98.3791 364.808 98.1177 364.206C97.8563 363.601 97.7256 362.888 97.7256 362.068C97.7256 361.474 97.8079 360.931 97.9727 360.441C98.1374 359.947 98.3791 359.521 98.6978 359.163C99.0164 358.801 99.4067 358.523 99.8687 358.33C100.334 358.133 100.869 358.035 101.475 358.035C101.868 358.035 102.252 358.078 102.624 358.164C103 358.246 103.346 358.362 103.661 358.513L103.252 359.431C102.991 359.313 102.71 359.209 102.409 359.12C102.112 359.03 101.797 358.985 101.464 358.985Z" fill="#0D0628"/>
<path d="M254.462 359H250.053V351.147H254.462V352.093H251.154V354.429H254.264V355.364H251.154V358.049H254.462V359ZM260.725 351.147V352.104H257.277V359H256.176V351.147H260.725ZM264.173 351.147C265.187 351.147 265.926 351.35 266.392 351.754C266.861 352.159 267.095 352.734 267.095 353.479C267.095 353.815 267.042 354.136 266.934 354.44C266.827 354.741 266.651 355.007 266.408 355.24C266.168 355.469 265.851 355.652 265.457 355.788C265.063 355.921 264.58 355.987 264.007 355.987H263.11V359H262.009V351.147H264.173ZM264.087 352.071H263.11V355.058H263.889C264.343 355.058 264.725 355.007 265.033 354.907C265.341 354.803 265.573 354.639 265.731 354.413C265.889 354.188 265.967 353.89 265.967 353.521C265.967 353.035 265.815 352.671 265.511 352.431C265.206 352.191 264.732 352.071 264.087 352.071ZM278.568 355.063C278.568 355.668 278.494 356.22 278.348 356.717C278.204 357.211 277.988 357.638 277.698 357.996C277.411 358.354 277.05 358.629 276.613 358.823C276.18 359.013 275.675 359.107 275.098 359.107C274.357 359.107 273.734 358.953 273.229 358.646C272.728 358.338 272.343 357.904 272.074 357.346C271.809 356.787 271.659 356.132 271.623 355.38H269.802V359H268.701V351.147H269.802V354.429H271.639C271.696 353.742 271.861 353.142 272.133 352.63C272.405 352.118 272.787 351.722 273.277 351.443C273.771 351.164 274.377 351.024 275.093 351.024C275.855 351.024 276.495 351.192 277.01 351.529C277.526 351.862 277.914 352.331 278.176 352.936C278.437 353.541 278.568 354.25 278.568 355.063ZM272.767 355.052C272.767 355.69 272.848 356.241 273.009 356.707C273.174 357.172 273.426 357.532 273.766 357.786C274.11 358.04 274.549 358.167 275.082 358.167C275.626 358.167 276.07 358.042 276.414 357.792C276.761 357.537 277.016 357.179 277.177 356.717C277.338 356.252 277.418 355.7 277.418 355.063C277.418 354.426 277.338 353.876 277.177 353.414C277.016 352.952 276.765 352.598 276.425 352.351C276.085 352.1 275.644 351.975 275.104 351.975C274.563 351.975 274.121 352.098 273.777 352.345C273.433 352.592 273.179 352.947 273.014 353.409C272.849 353.867 272.767 354.415 272.767 355.052ZM286.034 359H284.938V352.098H282.548C282.498 352.481 282.444 352.888 282.387 353.317C282.333 353.743 282.276 354.17 282.215 354.596C282.158 355.022 282.098 355.426 282.038 355.81C281.977 356.189 281.918 356.526 281.86 356.819C281.767 357.306 281.649 357.722 281.506 358.065C281.363 358.406 281.171 358.667 280.931 358.85C280.691 359.029 280.376 359.118 279.986 359.118C279.857 359.118 279.728 359.106 279.599 359.081C279.474 359.059 279.363 359.03 279.266 358.995V358.076C279.352 358.112 279.443 358.142 279.54 358.167C279.64 358.189 279.748 358.2 279.862 358.2C280.066 358.2 280.229 358.121 280.351 357.963C280.473 357.802 280.571 357.589 280.646 357.324C280.725 357.056 280.795 356.76 280.856 356.438C280.899 356.209 280.949 355.913 281.006 355.552C281.067 355.19 281.132 354.777 281.2 354.311C281.268 353.846 281.338 353.344 281.409 352.807C281.484 352.27 281.558 351.717 281.629 351.147H286.034V359Z" fill="#0D0628"/>
<path d="M166.675 186.292C168.057 186.292 169.065 186.575 169.7 187.142C170.334 187.708 170.652 188.501 170.652 189.522C170.652 189.986 170.579 190.428 170.432 190.848C170.291 191.263 170.056 191.631 169.729 191.954C169.402 192.271 168.97 192.522 168.433 192.708C167.9 192.894 167.244 192.986 166.462 192.986H165.32V197H163.562V186.292H166.675ZM166.558 187.75H165.32V191.521H166.279C166.831 191.521 167.3 191.458 167.686 191.331C168.071 191.199 168.364 190.992 168.564 190.708C168.765 190.425 168.865 190.052 168.865 189.588C168.865 188.968 168.677 188.506 168.301 188.204C167.93 187.901 167.349 187.75 166.558 187.75ZM176.724 188.738C176.86 188.738 177.009 188.746 177.17 188.76C177.332 188.775 177.471 188.794 177.588 188.819L177.427 190.43C177.324 190.401 177.197 190.379 177.046 190.364C176.899 190.35 176.768 190.342 176.65 190.342C176.343 190.342 176.05 190.394 175.771 190.496C175.493 190.594 175.247 190.745 175.032 190.95C174.817 191.15 174.648 191.402 174.526 191.705C174.404 192.007 174.343 192.359 174.343 192.759V197H172.615V188.892H173.962L174.197 190.32H174.277C174.438 190.032 174.639 189.769 174.878 189.529C175.117 189.29 175.391 189.1 175.698 188.958C176.011 188.812 176.353 188.738 176.724 188.738ZM182.268 188.738C183.293 188.738 184.067 188.965 184.59 189.419C185.117 189.874 185.381 190.582 185.381 191.543V197H184.158L183.828 195.85H183.77C183.54 196.143 183.303 196.385 183.059 196.575C182.815 196.766 182.532 196.907 182.209 197C181.892 197.098 181.504 197.146 181.045 197.146C180.562 197.146 180.129 197.059 179.749 196.883C179.368 196.702 179.067 196.429 178.848 196.062C178.628 195.696 178.518 195.232 178.518 194.671C178.518 193.836 178.828 193.208 179.448 192.789C180.073 192.369 181.016 192.137 182.275 192.093L183.682 192.042V191.617C183.682 191.055 183.55 190.655 183.286 190.416C183.027 190.176 182.661 190.057 182.188 190.057C181.782 190.057 181.389 190.115 181.008 190.232C180.627 190.35 180.256 190.494 179.895 190.665L179.338 189.449C179.734 189.239 180.183 189.068 180.686 188.936C181.194 188.804 181.721 188.738 182.268 188.738ZM183.674 193.125L182.627 193.162C181.768 193.191 181.165 193.338 180.818 193.602C180.471 193.865 180.298 194.227 180.298 194.686C180.298 195.086 180.417 195.379 180.657 195.564C180.896 195.745 181.211 195.835 181.602 195.835C182.197 195.835 182.69 195.667 183.081 195.33C183.477 194.988 183.674 194.488 183.674 193.829V193.125ZM189.644 197L186.56 188.892H188.384L190.054 193.653C190.161 193.956 190.259 194.283 190.347 194.634C190.435 194.986 190.496 195.281 190.53 195.521H190.588C190.623 195.271 190.688 194.974 190.786 194.627C190.884 194.275 190.984 193.951 191.086 193.653L192.756 188.892H194.573L191.489 197H189.644ZM202.981 192.928C202.981 193.602 202.893 194.2 202.717 194.722C202.542 195.245 202.285 195.687 201.948 196.048C201.611 196.404 201.206 196.678 200.732 196.868C200.259 197.054 199.724 197.146 199.128 197.146C198.572 197.146 198.062 197.054 197.598 196.868C197.134 196.678 196.731 196.404 196.389 196.048C196.052 195.687 195.791 195.245 195.605 194.722C195.42 194.2 195.327 193.602 195.327 192.928C195.327 192.034 195.481 191.277 195.789 190.657C196.101 190.032 196.545 189.556 197.122 189.229C197.698 188.902 198.384 188.738 199.18 188.738C199.927 188.738 200.586 188.902 201.157 189.229C201.729 189.556 202.175 190.032 202.498 190.657C202.82 191.282 202.981 192.039 202.981 192.928ZM197.1 192.928C197.1 193.519 197.17 194.024 197.312 194.444C197.458 194.864 197.683 195.186 197.986 195.411C198.289 195.63 198.679 195.74 199.158 195.74C199.636 195.74 200.027 195.63 200.33 195.411C200.632 195.186 200.854 194.864 200.996 194.444C201.138 194.024 201.208 193.519 201.208 192.928C201.208 192.337 201.138 191.836 200.996 191.426C200.854 191.011 200.632 190.696 200.33 190.481C200.027 190.262 199.634 190.152 199.15 190.152C198.438 190.152 197.917 190.391 197.59 190.87C197.263 191.348 197.1 192.034 197.1 192.928ZM208.848 197H207.083V187.786H203.948V186.292H211.975V187.786H208.848V197ZM216.67 188.738C217.393 188.738 218.013 188.887 218.53 189.185C219.048 189.483 219.446 189.905 219.724 190.452C220.002 190.999 220.142 191.653 220.142 192.415V193.338H214.729C214.749 194.124 214.958 194.729 215.359 195.154C215.764 195.579 216.331 195.792 217.058 195.792C217.576 195.792 218.04 195.743 218.45 195.645C218.865 195.542 219.292 195.394 219.731 195.198V196.597C219.326 196.788 218.914 196.927 218.494 197.015C218.074 197.103 217.571 197.146 216.985 197.146C216.189 197.146 215.488 196.993 214.883 196.685C214.282 196.373 213.811 195.909 213.469 195.293C213.132 194.678 212.964 193.914 212.964 193.001C212.964 192.093 213.118 191.321 213.425 190.687C213.733 190.052 214.165 189.568 214.722 189.236C215.278 188.904 215.928 188.738 216.67 188.738ZM216.67 190.035C216.128 190.035 215.688 190.21 215.352 190.562C215.02 190.914 214.824 191.429 214.766 192.107H218.457C218.452 191.702 218.384 191.343 218.252 191.031C218.125 190.718 217.93 190.474 217.666 190.298C217.407 190.123 217.075 190.035 216.67 190.035ZM225.349 197.146C224.583 197.146 223.918 196.998 223.357 196.7C222.795 196.402 222.363 195.945 222.061 195.33C221.758 194.715 221.606 193.934 221.606 192.986C221.606 192 221.772 191.194 222.104 190.569C222.437 189.944 222.896 189.483 223.481 189.185C224.072 188.887 224.749 188.738 225.51 188.738C225.994 188.738 226.431 188.787 226.821 188.885C227.217 188.978 227.551 189.092 227.825 189.229L227.312 190.606C227.014 190.484 226.709 190.381 226.396 190.298C226.084 190.215 225.784 190.174 225.496 190.174C225.022 190.174 224.626 190.279 224.309 190.489C223.997 190.699 223.762 191.011 223.606 191.426C223.455 191.841 223.379 192.356 223.379 192.972C223.379 193.567 223.457 194.07 223.613 194.48C223.77 194.886 224.001 195.193 224.309 195.403C224.617 195.608 224.995 195.711 225.444 195.711C225.889 195.711 226.287 195.657 226.638 195.55C226.99 195.442 227.322 195.303 227.634 195.132V196.626C227.327 196.802 226.997 196.932 226.646 197.015C226.294 197.103 225.862 197.146 225.349 197.146ZM231.26 185.604V188.467C231.26 188.765 231.25 189.056 231.23 189.339C231.216 189.622 231.199 189.842 231.179 189.998H231.274C231.445 189.715 231.655 189.483 231.904 189.302C232.153 189.117 232.432 188.978 232.739 188.885C233.052 188.792 233.384 188.746 233.735 188.746C234.355 188.746 234.883 188.851 235.317 189.061C235.752 189.266 236.084 189.585 236.313 190.02C236.548 190.455 236.665 191.019 236.665 191.712V197H234.944V192.034C234.944 191.404 234.814 190.933 234.556 190.621C234.297 190.303 233.896 190.145 233.354 190.145C232.832 190.145 232.417 190.254 232.109 190.474C231.807 190.689 231.589 191.009 231.458 191.434C231.326 191.854 231.26 192.366 231.26 192.972V197H229.539V185.604H231.26Z" fill="#0D0628"/>
<path d="M171.091 204.292H174.277C175.659 204.292 176.702 204.492 177.405 204.893C178.108 205.293 178.459 205.984 178.459 206.965C178.459 207.375 178.386 207.747 178.24 208.079C178.098 208.406 177.891 208.677 177.617 208.892C177.344 209.102 177.007 209.243 176.606 209.316V209.39C177.021 209.463 177.39 209.592 177.712 209.778C178.04 209.963 178.296 210.229 178.481 210.576C178.672 210.923 178.767 211.372 178.767 211.924C178.767 212.578 178.611 213.135 178.298 213.594C177.991 214.053 177.549 214.402 176.973 214.641C176.401 214.88 175.723 215 174.937 215H171.091V204.292ZM172.849 208.708H174.534C175.33 208.708 175.881 208.579 176.189 208.32C176.497 208.062 176.65 207.683 176.65 207.185C176.65 206.677 176.467 206.311 176.101 206.086C175.74 205.862 175.164 205.75 174.373 205.75H172.849V208.708ZM172.849 210.129V213.528H174.702C175.522 213.528 176.099 213.369 176.431 213.052C176.763 212.734 176.929 212.305 176.929 211.763C176.929 211.431 176.853 211.143 176.702 210.898C176.555 210.654 176.313 210.466 175.977 210.334C175.64 210.198 175.186 210.129 174.614 210.129H172.849ZM182.524 206.892V215H180.803V206.892H182.524ZM181.675 203.787C181.938 203.787 182.166 203.857 182.356 203.999C182.551 204.141 182.649 204.385 182.649 204.731C182.649 205.073 182.551 205.317 182.356 205.464C182.166 205.605 181.938 205.676 181.675 205.676C181.401 205.676 181.169 205.605 180.979 205.464C180.793 205.317 180.701 205.073 180.701 204.731C180.701 204.385 180.793 204.141 180.979 203.999C181.169 203.857 181.401 203.787 181.675 203.787ZM187.307 218.604C186.208 218.604 185.366 218.406 184.78 218.01C184.194 217.615 183.901 217.061 183.901 216.348C183.901 215.85 184.058 215.427 184.37 215.081C184.683 214.739 185.129 214.502 185.71 214.37C185.491 214.272 185.3 214.121 185.139 213.916C184.983 213.706 184.905 213.474 184.905 213.22C184.905 212.917 184.99 212.659 185.161 212.444C185.332 212.229 185.588 212.021 185.93 211.821C185.505 211.641 185.164 211.348 184.905 210.942C184.651 210.532 184.524 210.051 184.524 209.5C184.524 208.914 184.648 208.416 184.897 208.005C185.146 207.59 185.51 207.275 185.989 207.061C186.467 206.841 187.046 206.731 187.725 206.731C187.871 206.731 188.03 206.741 188.201 206.76C188.376 206.775 188.538 206.794 188.684 206.819C188.835 206.838 188.95 206.86 189.028 206.885H191.833V207.844L190.457 208.101C190.588 208.286 190.693 208.499 190.771 208.738C190.85 208.972 190.889 209.229 190.889 209.507C190.889 210.347 190.598 211.008 190.017 211.492C189.441 211.97 188.645 212.209 187.629 212.209C187.385 212.2 187.148 212.18 186.919 212.151C186.743 212.258 186.609 212.378 186.516 212.51C186.423 212.637 186.377 212.781 186.377 212.942C186.377 213.074 186.423 213.181 186.516 213.264C186.609 213.342 186.746 213.401 186.926 213.44C187.112 213.479 187.336 213.499 187.6 213.499H188.999C189.888 213.499 190.566 213.687 191.035 214.062C191.504 214.438 191.738 214.99 191.738 215.718C191.738 216.641 191.357 217.351 190.596 217.849C189.834 218.352 188.738 218.604 187.307 218.604ZM187.373 217.395C187.974 217.395 188.479 217.336 188.889 217.219C189.299 217.102 189.609 216.934 189.819 216.714C190.029 216.499 190.134 216.243 190.134 215.945C190.134 215.681 190.068 215.479 189.937 215.337C189.805 215.195 189.607 215.098 189.343 215.044C189.08 214.99 188.752 214.963 188.362 214.963H187.087C186.77 214.963 186.489 215.012 186.245 215.11C186.001 215.212 185.811 215.359 185.674 215.549C185.542 215.74 185.476 215.969 185.476 216.238C185.476 216.609 185.64 216.895 185.967 217.095C186.299 217.295 186.768 217.395 187.373 217.395ZM187.71 211.082C188.213 211.082 188.586 210.945 188.831 210.671C189.075 210.393 189.197 210.002 189.197 209.5C189.197 208.953 189.07 208.542 188.816 208.269C188.567 207.996 188.196 207.859 187.703 207.859C187.219 207.859 186.851 207.998 186.597 208.276C186.348 208.555 186.223 208.967 186.223 209.514C186.223 210.007 186.348 210.393 186.597 210.671C186.851 210.945 187.222 211.082 187.71 211.082ZM206.079 209.543C206.079 210.75 205.854 211.758 205.405 212.568C204.956 213.374 204.304 213.982 203.45 214.392C202.595 214.797 201.565 215 200.359 215H197.385V204.292H200.681C201.79 204.292 202.747 204.492 203.552 204.893C204.358 205.288 204.98 205.876 205.42 206.658C205.859 207.434 206.079 208.396 206.079 209.543ZM204.248 209.595C204.248 208.716 204.109 207.993 203.831 207.427C203.557 206.86 203.152 206.44 202.615 206.167C202.083 205.889 201.426 205.75 200.645 205.75H199.143V213.528H200.388C201.682 213.528 202.649 213.198 203.289 212.539C203.928 211.88 204.248 210.898 204.248 209.595ZM211.389 206.738C212.415 206.738 213.188 206.965 213.711 207.419C214.238 207.874 214.502 208.582 214.502 209.543V215H213.279L212.949 213.85H212.891C212.661 214.143 212.424 214.385 212.18 214.575C211.936 214.766 211.653 214.907 211.331 215C211.013 215.098 210.625 215.146 210.166 215.146C209.683 215.146 209.25 215.059 208.87 214.883C208.489 214.702 208.188 214.429 207.969 214.062C207.749 213.696 207.639 213.232 207.639 212.671C207.639 211.836 207.949 211.208 208.569 210.789C209.194 210.369 210.137 210.137 211.396 210.093L212.803 210.042V209.617C212.803 209.055 212.671 208.655 212.407 208.416C212.148 208.176 211.782 208.057 211.309 208.057C210.903 208.057 210.51 208.115 210.129 208.232C209.749 208.35 209.377 208.494 209.016 208.665L208.459 207.449C208.855 207.239 209.304 207.068 209.807 206.936C210.315 206.804 210.842 206.738 211.389 206.738ZM212.795 211.125L211.748 211.162C210.889 211.191 210.286 211.338 209.939 211.602C209.592 211.865 209.419 212.227 209.419 212.686C209.419 213.086 209.539 213.379 209.778 213.564C210.017 213.745 210.332 213.835 210.723 213.835C211.318 213.835 211.812 213.667 212.202 213.33C212.598 212.988 212.795 212.488 212.795 211.829V211.125ZM219.929 213.755C220.154 213.755 220.376 213.735 220.596 213.696C220.815 213.652 221.016 213.601 221.196 213.542V214.846C221.006 214.929 220.759 215 220.457 215.059C220.154 215.117 219.839 215.146 219.512 215.146C219.053 215.146 218.64 215.071 218.274 214.919C217.908 214.763 217.617 214.497 217.402 214.121C217.188 213.745 217.08 213.225 217.08 212.561V208.203H215.974V207.434L217.161 206.826L217.725 205.09H218.809V206.892H221.13V208.203H218.809V212.539C218.809 212.949 218.911 213.254 219.116 213.455C219.321 213.655 219.592 213.755 219.929 213.755ZM226.023 206.738C227.048 206.738 227.822 206.965 228.345 207.419C228.872 207.874 229.136 208.582 229.136 209.543V215H227.913L227.583 213.85H227.524C227.295 214.143 227.058 214.385 226.814 214.575C226.57 214.766 226.287 214.907 225.964 215C225.647 215.098 225.259 215.146 224.8 215.146C224.316 215.146 223.884 215.059 223.503 214.883C223.123 214.702 222.822 214.429 222.603 214.062C222.383 213.696 222.273 213.232 222.273 212.671C222.273 211.836 222.583 211.208 223.203 210.789C223.828 210.369 224.771 210.137 226.03 210.093L227.437 210.042V209.617C227.437 209.055 227.305 208.655 227.041 208.416C226.782 208.176 226.416 208.057 225.942 208.057C225.537 208.057 225.144 208.115 224.763 208.232C224.382 208.35 224.011 208.494 223.65 208.665L223.093 207.449C223.489 207.239 223.938 207.068 224.441 206.936C224.949 206.804 225.476 206.738 226.023 206.738ZM227.429 211.125L226.382 211.162C225.522 211.191 224.919 211.338 224.573 211.602C224.226 211.865 224.053 212.227 224.053 212.686C224.053 213.086 224.172 213.379 224.412 213.564C224.651 213.745 224.966 213.835 225.356 213.835C225.952 213.835 226.445 213.667 226.836 213.33C227.231 212.988 227.429 212.488 227.429 211.829V211.125Z" fill="#8C26EA"/>
<defs>
<filter id="filter0_f_2984_18664" x="135" y="135" width="130" height="130" filterUnits="userSpaceOnUse" color-interpolation-filters="sRGB">
<feFlood flood-opacity="0" result="BackgroundImageFix"/>
<feBlend mode="normal" in="SourceGraphic" in2="BackgroundImageFix" result="shape"/>
<feGaussianBlur stdDeviation="8" result="effect1_foregroundBlur_2984_18664"/>
</filter>
</defs>
</svg>
