<svg width="78" height="68" viewBox="0 0 78 68" fill="none" xmlns="http://www.w3.org/2000/svg">
<path d="M64.75 47.5C64.75 48.0949 64.3651 48.8879 63.1319 49.8059C61.9218 50.7065 60.091 51.5706 57.7165 52.3181C52.9822 53.8085 46.3647 54.75 39 54.75C31.6353 54.75 25.0178 53.8085 20.2835 52.3181C17.909 51.5706 16.0782 50.7065 14.8681 49.8059C13.6349 48.8879 13.25 48.0949 13.25 47.5C13.25 46.9051 13.6349 46.1121 14.8681 45.1942C16.0782 44.2935 17.909 43.4294 20.2835 42.6819C25.0178 41.1915 31.6353 40.25 39 40.25C46.3647 40.25 52.9822 41.1915 57.7165 42.6819C60.091 43.4294 61.9218 44.2935 63.1319 45.1942C64.3651 46.1121 64.75 46.9051 64.75 47.5Z" fill="white" stroke="#8C26EA" stroke-width="2.5"/>
<mask id="path-2-inside-1_2984_18872" fill="white">
<path fill-rule="evenodd" clip-rule="evenodd" d="M12 47.6875H13.2673C16.7489 51.1225 27.0114 53.6114 39.1297 53.6114C51.248 53.6114 61.5105 51.1225 64.9922 47.6875H66.0686V57.8254V58.3081H66.0318C65.2919 63.1495 53.4877 66.9977 39.0343 66.9977C24.5809 66.9977 12.7767 63.1495 12.0368 58.3081H12V57.8254V47.6875Z"/>
</mask>
<path fill-rule="evenodd" clip-rule="evenodd" d="M12 47.6875H13.2673C16.7489 51.1225 27.0114 53.6114 39.1297 53.6114C51.248 53.6114 61.5105 51.1225 64.9922 47.6875H66.0686V57.8254V58.3081H66.0318C65.2919 63.1495 53.4877 66.9977 39.0343 66.9977C24.5809 66.9977 12.7767 63.1495 12.0368 58.3081H12V57.8254V47.6875Z" fill="white"/>
<path d="M13.2673 47.6875L15.0231 45.9078L14.2929 45.1875H13.2673V47.6875ZM12 47.6875V45.1875H9.5V47.6875H12ZM64.9922 47.6875V45.1875H63.9665L63.2364 45.9078L64.9922 47.6875ZM66.0686 47.6875H68.5686V45.1875H66.0686V47.6875ZM66.0686 58.3081V60.8081H68.5686V58.3081H66.0686ZM66.0318 58.3081V55.8081H63.8849L63.5605 57.9304L66.0318 58.3081ZM12.0368 58.3081L14.5081 57.9304L14.1838 55.8081H12.0368V58.3081ZM12 58.3081H9.5V60.8081H12V58.3081ZM13.2673 45.1875H12V50.1875H13.2673V45.1875ZM39.1297 51.1114C33.229 51.1114 27.8273 50.5042 23.5268 49.5027C19.0992 48.4716 16.2459 47.1143 15.0231 45.9078L11.5115 49.4672C13.7703 51.6957 17.789 53.3003 22.3927 54.3724C27.1234 55.4741 32.9122 56.1114 39.1297 56.1114V51.1114ZM63.2364 45.9078C62.0136 47.1143 59.1602 48.4716 54.7327 49.5027C50.4321 50.5042 45.0304 51.1114 39.1297 51.1114V56.1114C45.3473 56.1114 51.136 55.4741 55.8667 54.3724C60.4704 53.3003 64.4891 51.6957 66.748 49.4672L63.2364 45.9078ZM66.0686 45.1875H64.9922V50.1875H66.0686V45.1875ZM68.5686 57.8254V47.6875H63.5686V57.8254H68.5686ZM68.5686 58.3081V57.8254H63.5686V58.3081H68.5686ZM66.0318 60.8081H66.0686V55.8081H66.0318V60.8081ZM39.0343 69.4977C46.4554 69.4977 53.2895 68.513 58.4443 66.8473C61.0132 66.0173 63.2772 64.9824 65.0014 63.7323C66.6853 62.5113 68.1731 60.8455 68.5031 58.6858L63.5605 57.9304C63.5206 58.1914 63.2554 58.8222 62.0663 59.6844C60.9174 60.5174 59.1883 61.3524 56.9069 62.0895C52.3613 63.5584 46.0666 64.4977 39.0343 64.4977V69.4977ZM9.56549 58.6858C9.89555 60.8455 11.3833 62.5113 13.0673 63.7323C14.7914 64.9824 17.0554 66.0173 19.6243 66.8473C24.7791 68.513 31.6132 69.4977 39.0343 69.4977V64.4977C32.002 64.4977 25.7073 63.5584 21.1617 62.0895C18.8804 61.3524 17.1513 60.5174 16.0023 59.6844C14.8132 58.8222 14.548 58.1914 14.5081 57.9304L9.56549 58.6858ZM12 60.8081H12.0368V55.8081H12V60.8081ZM9.5 57.8254V58.3081H14.5V57.8254H9.5ZM9.5 47.6875V57.8254H14.5V47.6875H9.5Z" fill="#8C26EA" mask="url(#path-2-inside-1_2984_18872)"/>
<path d="M64.75 28.5C64.75 29.0949 64.3651 29.8879 63.1319 30.8059C61.9218 31.7065 60.091 32.5706 57.7165 33.3181C52.9822 34.8085 46.3647 35.75 39 35.75C31.6353 35.75 25.0178 34.8085 20.2835 33.3181C17.909 32.5706 16.0782 31.7065 14.8681 30.8059C13.6349 29.8879 13.25 29.0949 13.25 28.5C13.25 27.9051 13.6349 27.1121 14.8681 26.1942C16.0782 25.2935 17.909 24.4294 20.2835 23.6819C25.0178 22.1915 31.6353 21.25 39 21.25C46.3647 21.25 52.9822 22.1915 57.7165 23.6819C60.091 24.4294 61.9218 25.2935 63.1319 26.1942C64.3651 27.1121 64.75 27.9051 64.75 28.5Z" fill="white" stroke="#8C26EA" stroke-width="2.5"/>
<mask id="path-5-inside-2_2984_18872" fill="white">
<path fill-rule="evenodd" clip-rule="evenodd" d="M12 28.6875H13.2673C16.7489 32.1225 27.0114 34.6114 39.1297 34.6114C51.248 34.6114 61.5105 32.1225 64.9922 28.6875H66.0686V38.8254V39.3081H66.0318C65.2919 44.1495 53.4877 47.9977 39.0343 47.9977C24.5809 47.9977 12.7767 44.1495 12.0368 39.3081H12V38.8254V28.6875Z"/>
</mask>
<path fill-rule="evenodd" clip-rule="evenodd" d="M12 28.6875H13.2673C16.7489 32.1225 27.0114 34.6114 39.1297 34.6114C51.248 34.6114 61.5105 32.1225 64.9922 28.6875H66.0686V38.8254V39.3081H66.0318C65.2919 44.1495 53.4877 47.9977 39.0343 47.9977C24.5809 47.9977 12.7767 44.1495 12.0368 39.3081H12V38.8254V28.6875Z" fill="white"/>
<path d="M13.2673 28.6875L15.0231 26.9078L14.2929 26.1875H13.2673V28.6875ZM12 28.6875V26.1875H9.5V28.6875H12ZM64.9922 28.6875V26.1875H63.9665L63.2364 26.9078L64.9922 28.6875ZM66.0686 28.6875H68.5686V26.1875H66.0686V28.6875ZM66.0686 39.3081V41.8081H68.5686V39.3081H66.0686ZM66.0318 39.3081V36.8081H63.8849L63.5605 38.9304L66.0318 39.3081ZM12.0368 39.3081L14.5081 38.9304L14.1838 36.8081H12.0368V39.3081ZM12 39.3081H9.5V41.8081H12V39.3081ZM13.2673 26.1875H12V31.1875H13.2673V26.1875ZM39.1297 32.1114C33.229 32.1114 27.8273 31.5042 23.5268 30.5027C19.0992 29.4716 16.2459 28.1143 15.0231 26.9078L11.5115 30.4672C13.7703 32.6957 17.789 34.3003 22.3927 35.3724C27.1234 36.4741 32.9122 37.1114 39.1297 37.1114V32.1114ZM63.2364 26.9078C62.0136 28.1143 59.1602 29.4716 54.7327 30.5027C50.4321 31.5042 45.0304 32.1114 39.1297 32.1114V37.1114C45.3473 37.1114 51.136 36.4741 55.8667 35.3724C60.4704 34.3003 64.4891 32.6957 66.748 30.4672L63.2364 26.9078ZM66.0686 26.1875H64.9922V31.1875H66.0686V26.1875ZM68.5686 38.8254V28.6875H63.5686V38.8254H68.5686ZM68.5686 39.3081V38.8254H63.5686V39.3081H68.5686ZM66.0318 41.8081H66.0686V36.8081H66.0318V41.8081ZM39.0343 50.4977C46.4554 50.4977 53.2895 49.513 58.4443 47.8473C61.0132 47.0173 63.2772 45.9824 65.0014 44.7323C66.6853 43.5113 68.1731 41.8455 68.5031 39.6858L63.5605 38.9304C63.5206 39.1914 63.2554 39.8222 62.0663 40.6844C60.9174 41.5174 59.1883 42.3524 56.9069 43.0895C52.3613 44.5584 46.0666 45.4977 39.0343 45.4977V50.4977ZM9.56549 39.6858C9.89555 41.8455 11.3833 43.5113 13.0673 44.7323C14.7914 45.9824 17.0554 47.0173 19.6243 47.8473C24.7791 49.513 31.6132 50.4977 39.0343 50.4977V45.4977C32.002 45.4977 25.7073 44.5584 21.1617 43.0895C18.8804 42.3524 17.1513 41.5174 16.0023 40.6844C14.8132 39.8222 14.548 39.1914 14.5081 38.9304L9.56549 39.6858ZM12 41.8081H12.0368V36.8081H12V41.8081ZM9.5 38.8254V39.3081H14.5V38.8254H9.5ZM9.5 28.6875V38.8254H14.5V28.6875H9.5Z" fill="#8C26EA" mask="url(#path-5-inside-2_2984_18872)"/>
<path d="M64.75 9.5C64.75 10.0949 64.3651 10.8879 63.1319 11.8059C61.9218 12.7065 60.091 13.5706 57.7165 14.3181C52.9822 15.8085 46.3647 16.75 39 16.75C31.6353 16.75 25.0178 15.8085 20.2835 14.3181C17.909 13.5706 16.0782 12.7065 14.8681 11.8059C13.6349 10.8879 13.25 10.0949 13.25 9.5C13.25 8.90506 13.6349 8.11207 14.8681 7.19415C16.0782 6.29346 17.909 5.42944 20.2835 4.6819C25.0178 3.19146 31.6353 2.25 39 2.25C46.3647 2.25 52.9822 3.19146 57.7165 4.6819C60.091 5.42944 61.9218 6.29346 63.1319 7.19415C64.3651 8.11207 64.75 8.90505 64.75 9.5Z" fill="white" stroke="#8C26EA" stroke-width="2.5"/>
<mask id="path-8-inside-3_2984_18872" fill="white">
<path fill-rule="evenodd" clip-rule="evenodd" d="M12 9.6875H13.2673C16.7489 13.1225 27.0114 15.6114 39.1297 15.6114C51.248 15.6114 61.5105 13.1225 64.9922 9.6875H66.0686V19.8254V20.3081H66.0318C65.2919 25.1495 53.4877 28.9977 39.0343 28.9977C24.5809 28.9977 12.7767 25.1495 12.0368 20.3081H12V19.8254V9.6875Z"/>
</mask>
<path fill-rule="evenodd" clip-rule="evenodd" d="M12 9.6875H13.2673C16.7489 13.1225 27.0114 15.6114 39.1297 15.6114C51.248 15.6114 61.5105 13.1225 64.9922 9.6875H66.0686V19.8254V20.3081H66.0318C65.2919 25.1495 53.4877 28.9977 39.0343 28.9977C24.5809 28.9977 12.7767 25.1495 12.0368 20.3081H12V19.8254V9.6875Z" fill="white"/>
<path d="M13.2673 9.6875L15.0231 7.90785L14.2929 7.1875H13.2673V9.6875ZM12 9.6875V7.1875H9.5V9.6875H12ZM64.9922 9.6875V7.1875H63.9665L63.2364 7.90785L64.9922 9.6875ZM66.0686 9.6875H68.5686V7.1875H66.0686V9.6875ZM66.0686 20.3081V22.8081H68.5686V20.3081H66.0686ZM66.0318 20.3081V17.8081H63.8849L63.5605 19.9304L66.0318 20.3081ZM12.0368 20.3081L14.5081 19.9304L14.1838 17.8081H12.0368V20.3081ZM12 20.3081H9.5V22.8081H12V20.3081ZM13.2673 7.1875H12V12.1875H13.2673V7.1875ZM39.1297 13.1114C33.229 13.1114 27.8273 12.5042 23.5268 11.5027C19.0992 10.4716 16.2459 9.11427 15.0231 7.90785L11.5115 11.4672C13.7703 13.6957 17.789 15.3003 22.3927 16.3724C27.1234 17.4741 32.9122 18.1114 39.1297 18.1114V13.1114ZM63.2364 7.90785C62.0136 9.11427 59.1602 10.4716 54.7327 11.5027C50.4321 12.5042 45.0304 13.1114 39.1297 13.1114V18.1114C45.3473 18.1114 51.136 17.4741 55.8667 16.3724C60.4704 15.3003 64.4891 13.6957 66.748 11.4672L63.2364 7.90785ZM66.0686 7.1875H64.9922V12.1875H66.0686V7.1875ZM68.5686 19.8254V9.6875H63.5686V19.8254H68.5686ZM68.5686 20.3081V19.8254H63.5686V20.3081H68.5686ZM66.0318 22.8081H66.0686V17.8081H66.0318V22.8081ZM39.0343 31.4977C46.4554 31.4977 53.2895 30.513 58.4443 28.8473C61.0132 28.0173 63.2772 26.9824 65.0014 25.7323C66.6853 24.5113 68.1731 22.8455 68.5031 20.6858L63.5605 19.9304C63.5206 20.1914 63.2554 20.8222 62.0663 21.6844C60.9174 22.5174 59.1883 23.3524 56.9069 24.0895C52.3613 25.5584 46.0666 26.4977 39.0343 26.4977V31.4977ZM9.56549 20.6858C9.89555 22.8455 11.3833 24.5113 13.0673 25.7323C14.7914 26.9824 17.0554 28.0173 19.6243 28.8473C24.7791 30.513 31.6132 31.4977 39.0343 31.4977V26.4977C32.002 26.4977 25.7073 25.5584 21.1617 24.0895C18.8804 23.3524 17.1513 22.5174 16.0023 21.6844C14.8132 20.8222 14.548 20.1914 14.5081 19.9304L9.56549 20.6858ZM12 22.8081H12.0368V17.8081H12V22.8081ZM9.5 19.8254V20.3081H14.5V19.8254H9.5ZM9.5 9.6875V19.8254H14.5V9.6875H9.5Z" fill="#8C26EA" mask="url(#path-8-inside-3_2984_18872)"/>
</svg>
