<svg width="56" height="56" viewBox="0 0 56 56" fill="none" xmlns="http://www.w3.org/2000/svg">
<g clip-path="url(#clip0_2984_18721)">
<path d="M11 33V44C11 52.0139 11 56.0208 13.4896 58.5104C15.9792 61 19.9861 61 28 61C36.0138 61 40.0209 61 42.5103 58.5104C45 56.0208 45 52.0139 45 44V33" stroke="#EBD5FF" stroke-width="2.5"/>
<path d="M11 21V12C11 3.98612 11 -0.0208189 13.4896 -2.5104C15.9792 -5 19.9861 -5 28 -5C36.0138 -5 40.0209 -5 42.5103 -2.5104C45 -0.0208189 45 3.98612 45 12V21" stroke="#CC94FF" stroke-width="2.5"/>
<path d="M11 23C11 14.9861 11 10.9792 13.4896 8.4896C15.9792 6 19.9861 6 28 6C36.0138 6 40.0209 6 42.5104 8.4896C45 10.9792 45 14.9861 45 23" stroke="#D9AFFF" stroke-width="2.5"/>
<path d="M11 33C11 41.0139 11 45.0208 13.4896 47.5104C15.9792 50 19.9861 50 28 50C36.0138 50 40.0209 50 42.5104 47.5104C45 45.0208 45 41.0139 45 33" stroke="#EBD5FF" stroke-width="2.5"/>
<path d="M9 28C9 23.4495 9 21.1744 10.0354 19.4363C10.9462 17.9075 12.3996 16.6645 14.1871 15.8856C16.2193 15 18.8795 15 24.2 15H31.8C37.1206 15 39.7808 15 41.813 15.8856C43.6005 16.6645 45.0538 17.9075 45.9645 19.4363C47 21.1744 47 23.4495 47 28C47 32.5505 47 34.8257 45.9645 36.5638C45.0538 38.0926 43.6005 39.3355 41.813 40.1144C39.7808 41 37.1206 41 31.8 41H24.2C18.8795 41 16.2193 41 14.1871 40.1144C12.3996 39.3355 10.9462 38.0926 10.0354 36.5638C9 34.8257 9 32.5505 9 28Z" fill="#BF79FF" stroke="white" stroke-width="2.5"/>
<path d="M28 23V33M28 33L32 28.8333M28 33L24 28.8333" stroke="white" stroke-width="2.5" stroke-linecap="round" stroke-linejoin="round"/>
</g>
<defs>
<clipPath id="clip0_2984_18721">
<rect width="56" height="56" fill="white"/>
</clipPath>
</defs>
</svg>
