<svg width="32" height="32" viewBox="0 0 32 32" fill="none" xmlns="http://www.w3.org/2000/svg">
<path d="M15.9897 14.4859L10.7397 19.7033C10.5407 19.9011 10.3005 19.9966 10.0191 19.9898C9.73776 19.983 9.49757 19.8807 9.29854 19.6829C9.09951 19.4851 9 19.243 9 18.9565C9 18.6701 9.09951 18.428 9.29854 18.2302L15.2691 12.2967C15.3789 12.1875 15.4922 12.1108 15.6088 12.0665C15.7255 12.0222 15.8525 12 15.9897 12C16.127 12 16.2539 12.0222 16.3706 12.0665C16.4873 12.1108 16.6005 12.1875 16.7103 12.2967L22.7015 18.2506C22.9005 18.4484 23 18.6905 23 18.977C23 19.2634 22.9005 19.5056 22.7015 19.7033C22.5025 19.9011 22.2588 20 21.9706 20C21.6824 20 21.4387 19.9011 21.2397 19.7033L15.9897 14.4859Z" fill="#8C26EA"/>
</svg>
