<svg width="41" height="40" viewBox="0 0 41 40" fill="none" xmlns="http://www.w3.org/2000/svg">
<path d="M4 20.0026C4 12.1459 4 8.21749 6.44078 5.77672C8.88155 3.33594 12.8099 3.33594 20.6667 3.33594C28.5233 3.33594 32.4518 3.33594 34.8925 5.77672C37.3333 8.21749 37.3333 12.1459 37.3333 20.0026C37.3333 27.8593 37.3333 31.7878 34.8925 34.2284C32.4518 36.6693 28.5233 36.6693 20.6667 36.6693C12.8099 36.6693 8.88155 36.6693 6.44078 34.2284C4 31.7878 4 27.8593 4 20.0026Z" stroke="#8C26EA" stroke-width="2.5"/>
<path d="M10.6719 11.668V28.3346" stroke="#8C26EA" stroke-width="2.5" stroke-linecap="round"/>
<path d="M19 20C19 17.2385 21.2385 15 24 15C26.7615 15 29 17.2385 29 20C29 22.7615 26.7615 25 24 25C21.2385 25 19 22.7615 19 20Z" stroke="#8C26EA" stroke-width="2.5"/>
<path d="M28.1719 15.8359L30.6719 13.3359" stroke="#8C26EA" stroke-width="2.5" stroke-linecap="round"/>
<path d="M17.3359 26.668L19.8359 24.168" stroke="#8C26EA" stroke-width="2.5" stroke-linecap="round"/>
<path d="M19.8359 15.8359L17.3359 13.3359" stroke="#8C26EA" stroke-width="2.5" stroke-linecap="round"/>
<path d="M30.6719 26.668L28.1719 24.168" stroke="#8C26EA" stroke-width="2.5" stroke-linecap="round"/>
</svg>
