<svg width="82" height="72" viewBox="0 0 82 72" fill="none" xmlns="http://www.w3.org/2000/svg">
<path d="M34.597 15.9716L33.9387 17.5615L41.0007 31.5L48.0586 17.5615L47.4003 15.9716C46.7813 14.4766 45.3226 13.5018 43.7045 13.5018L38.2927 13.5018C36.6747 13.5018 35.216 14.4766 34.597 15.9716Z" fill="white" stroke="#8C26EA" stroke-width="2.5" stroke-linejoin="round"/>
<path d="M35.617 5.34286L37.7088 13.5039L44.2832 13.5039L46.375 5.34286L43.8387 4.72443C41.9709 4.26899 40.021 4.26899 38.1532 4.72443L35.617 5.34286Z" fill="white" stroke="#8C26EA" stroke-width="2.5" stroke-linejoin="round"/>
<path d="M42.2461 2C42.2461 1.30964 41.6864 0.75 40.9961 0.75C40.3057 0.75 39.7461 1.30964 39.7461 2L42.2461 2ZM39.7461 2L39.7461 4.02985L42.2461 4.02985L42.2461 2L39.7461 2Z" fill="#8C26EA"/>
<path d="M27.5491 60.8633C27.2129 56.1269 30.2386 53.7588 32.9282 51.3906H48.729C51.4185 53.7588 54.4442 56.1269 54.108 60.8633H50.0738L46.3757 56.8036L43.6862 62.8931L47.3843 67.6294C47.3843 67.6294 46.3955 69.951 40.8286 69.9969C35.2616 69.951 34.2729 67.6294 34.2729 67.6294L37.971 62.8931L35.2815 56.8036L31.5834 60.8633H27.5491Z" fill="white"/>
<path d="M40.9967 69.9976C35.2815 69.9976 34.2729 67.6294 34.2729 67.6294L37.971 62.8931L35.2815 56.8036L31.5834 60.8633H27.5491C27.2129 56.1269 30.2386 53.7588 32.9282 51.3906H48.729C51.4185 53.7588 54.4442 56.1269 54.108 60.8633H50.0738L46.3757 56.8036L43.6862 62.8931L47.3843 67.6294C47.3843 67.6294 46.3757 69.9976 40.6605 69.9976" stroke="#8C26EA" stroke-width="2.5" stroke-linejoin="round"/>
<path d="M21.8351 23.3142C21.1722 12.6408 40.7699 13.8057 41 31.6722C41.2301 13.8057 60.8278 12.6408 60.1649 23.3142C52.0963 16.5706 47.5748 23.3142 48.3983 29.0654C49.2217 34.8166 52.9032 40.3649 56.1306 38.1997C56.803 37.8614 58.0805 35.9669 57.8115 31.0952C58.8874 30.554 73.0521 18.4651 80 12.4883C80 15.7586 77.7812 23.6525 68.9058 29.0654L78.9914 28.0505C77.6467 30.3059 73.0745 35.1549 65.5439 36.5082L77.3105 38.1997C75.1813 39.6657 69.4437 42.7331 63.5268 43.2744C65.3198 44.0637 69.1747 46.3868 70.2505 49.3639C69.5781 50.2661 66.8886 51.1908 61.5096 47.6724V53.0853L57.8115 49.3639L54.4497 51.3938C54.1135 50.1533 52.6342 47.6724 49.4068 47.6724H32.5932C29.3658 47.6724 27.8865 50.1533 27.5503 51.3938L24.1885 49.3639L20.4904 53.0853V47.6724C15.1114 51.1908 12.4218 50.2661 11.7495 49.3639C12.8253 46.3868 16.6802 44.0637 18.4732 43.2744C12.5563 42.7331 6.8187 39.6657 4.68951 38.1997L16.4561 36.5082C8.92549 35.1549 4.35332 30.3059 3.00857 28.0505L13.0942 29.0654C4.21885 23.6525 2 15.7586 2 12.4883C8.9479 18.4651 23.1126 30.554 24.1885 31.0952C23.9195 35.9669 25.197 37.8614 25.8694 38.1997C29.0968 40.3649 32.7783 34.8166 33.6017 29.0654C34.4252 23.3142 29.9037 16.5706 21.8351 23.3142Z" fill="white"/>
<path d="M40.9979 32.4484C41.3341 13.8414 21.1628 12.4883 21.8351 23.3142C29.9037 16.5706 34.4252 23.3142 33.6017 29.0654C32.7783 34.8166 29.0968 40.3649 25.8694 38.1997C25.197 37.8614 23.9195 35.9669 24.1885 31.0952C23.1126 30.554 8.9479 18.4651 2 12.4883C2 15.7586 4.21885 23.6525 13.0942 29.0654L3.00857 28.0505C4.35332 30.3059 8.92549 35.1549 16.4561 36.5082L4.68951 38.1997C6.8187 39.6657 12.5563 42.7331 18.4732 43.2744C16.6802 44.0637 12.8253 46.3868 11.7495 49.3639C12.4218 50.2661 15.1114 51.1908 20.4904 47.6724V53.0853L24.1885 49.3639L27.5503 51.3938C27.8865 50.1533 29.3658 47.6724 32.5932 47.6724H49.4068C52.6342 47.6724 54.1135 50.1533 54.4497 51.3938L57.8115 49.3639L61.5096 53.0853V47.6724C66.8886 51.1908 69.5781 50.2661 70.2505 49.3639C69.1747 46.3868 65.3198 44.0637 63.5268 43.2744C69.4437 42.7331 75.1813 39.6657 77.3105 38.1997L65.5439 36.5082C73.0745 35.1549 77.6467 30.3059 78.9914 28.0505L68.9058 29.0654C77.7812 23.6525 80 15.7586 80 12.4883C73.0521 18.4651 58.8874 30.554 57.8115 31.0952C58.0805 35.9669 56.803 37.8614 56.1306 38.1997C52.9032 40.3649 49.2217 34.8166 48.3983 29.0654C47.5748 23.3142 52.0963 16.5706 60.1649 23.3142C60.8372 12.4883 40.6659 13.8414 41.0021 32.4484" stroke="#8C26EA" stroke-width="2.5" stroke-linejoin="round"/>
<path d="M32.9297 32.4453H49.0667V51.3906L40.9982 54.4354L32.9297 51.3906V32.4453Z" fill="white" stroke="#8C26EA" stroke-width="2.5" stroke-linejoin="round"/>
<path d="M24.1864 10.3952L25.5872 16.8867L29.9016 16.3142L30.9102 10.3952L30.8155 10.3684C28.6793 9.76396 26.4173 9.76396 24.2811 10.3684L24.1864 10.3952Z" fill="white" stroke="#8C26EA" stroke-width="2.5" stroke-linejoin="round"/>
<path d="M28.8008 7.41406C28.8008 6.72371 28.2411 6.16406 27.5508 6.16406C26.8604 6.16406 26.3008 6.72371 26.3008 7.41406L28.8008 7.41406ZM26.3008 7.41406L26.3008 9.44391L28.8008 9.44391L28.8008 7.41406L26.3008 7.41406Z" fill="#8C26EA"/>
<path d="M57.8097 10.3952L56.4089 16.8867L52.0945 16.3142L51.0859 10.3952L51.1806 10.3684C53.3168 9.76396 55.5788 9.76396 57.715 10.3684L57.8097 10.3952Z" fill="white" stroke="#8C26EA" stroke-width="2.5" stroke-linejoin="round"/>
<path d="M53.1953 7.41406C53.1953 6.72371 53.755 6.16406 54.4453 6.16406C55.1357 6.16406 55.6953 6.72371 55.6953 7.41406L53.1953 7.41406ZM55.6953 7.41406L55.6953 9.44391L53.1953 9.44391L53.1953 7.41406L55.6953 7.41406Z" fill="#8C26EA"/>
<path d="M25.6379 68.8305C26.0896 69.3529 26.8767 69.4079 27.3958 68.9533C27.915 68.4987 27.9696 67.7066 27.5178 67.1842L25.6379 68.8305ZM27.5178 67.1842L20.7562 59.3652L18.8762 61.0115L25.6379 68.8305L27.5178 67.1842Z" fill="#8C26EA"/>
<ellipse cx="61.5062" cy="65.2635" rx="3.0257" ry="3.04478" fill="white" stroke="#8C26EA" stroke-width="2.5" stroke-linejoin="round"/>
<ellipse cx="18.8101" cy="58.8345" rx="2.01713" ry="2.02985" fill="white" stroke="#8C26EA" stroke-width="2.5" stroke-linejoin="round"/>
<path d="M51.7578 60.8672L54.7835 65.2652H58.4816" stroke="#8C26EA" stroke-width="2.5" stroke-linejoin="round"/>
<path d="M30.2383 60.8672L27.2126 65.2652H23.8507" stroke="#8C26EA" stroke-width="2.5" stroke-linejoin="round"/>
</svg>
