<svg width="41" height="40" viewBox="0 0 41 40" fill="none" xmlns="http://www.w3.org/2000/svg">
<path d="M20.4987 3.33594C29.7034 3.33594 37.1654 10.7979 37.1654 20.0026C37.1654 29.2073 29.7034 36.6693 20.4987 36.6693C11.294 36.6693 3.83203 29.2073 3.83203 20.0026C3.83203 15.3403 5.74643 11.1251 8.83203 8.10022" stroke="#8C26EA" stroke-width="2.5" stroke-linecap="round"/>
<path d="M8.83203 20.0026C8.83203 26.4459 14.0554 31.6693 20.4987 31.6693C26.942 31.6693 32.1654 26.4459 32.1654 20.0026C32.1654 13.5593 26.942 8.33594 20.4987 8.33594" stroke="#8C26EA" stroke-width="2.5" stroke-linecap="round"/>
<path d="M20.5 26.6693C24.1819 26.6693 27.1667 23.6845 27.1667 20.0026C27.1667 16.3207 24.1819 13.3359 20.5 13.3359" stroke="#8C26EA" stroke-width="2.5" stroke-linecap="round"/>
</svg>
