<svg width="40" height="40" viewBox="0 0 40 40" fill="none" xmlns="http://www.w3.org/2000/svg">
<path d="M33.3346 36.6654V26.6654C33.3346 19.3016 27.3651 13.332 20.0013 13.332C12.6375 13.332 6.66797 19.3016 6.66797 26.6654V36.6654" stroke="#8C26EA" stroke-width="2.5"/>
<path d="M23.8203 19.168C25.4915 19.8444 26.8259 21.1789 27.5024 22.85" stroke="#8C26EA" stroke-width="2.5" stroke-linecap="round"/>
<path d="M3.33203 36.668H36.6654" stroke="#8C26EA" stroke-width="2.5" stroke-linecap="round"/>
<path d="M20 3.33203V8.33203" stroke="#8C26EA" stroke-width="2.5" stroke-linecap="round"/>
<path d="M35 10L32.5 12.5" stroke="#8C26EA" stroke-width="2.5" stroke-linecap="round"/>
<path d="M5 10L7.5 12.5" stroke="#8C26EA" stroke-width="2.5" stroke-linecap="round"/>
<path d="M22.5 29.168C22.5 30.5487 21.3807 31.668 20 31.668C18.6193 31.668 17.5 30.5487 17.5 29.168C17.5 27.7873 18.6193 26.668 20 26.668C21.3807 26.668 22.5 27.7873 22.5 29.168Z" stroke="#8C26EA" stroke-width="2.5"/>
<path d="M20 31.668V36.668" stroke="#8C26EA" stroke-width="2.5" stroke-linecap="round"/>
</svg>
