<svg width="40" height="40" viewBox="0 0 40 40" fill="none" xmlns="http://www.w3.org/2000/svg">
<path d="M34.9064 5.09874C39.0221 9.21429 35.6858 19.2233 27.4546 27.4544C19.2236 35.6854 9.2146 39.0218 5.09905 34.9063C0.983515 30.7906 4.31982 20.7818 12.5509 12.5506C20.7819 4.3195 30.7909 0.983178 34.9064 5.09874ZM5.09874 5.09897C0.983185 9.21452 4.31949 19.2234 12.5506 27.4546C20.7816 35.6858 30.7906 39.0221 34.9061 34.9064C39.0218 30.7909 35.6854 20.7819 27.4543 12.5508C19.2233 4.31974 9.21427 0.983412 5.09874 5.09897Z" stroke="#8C26EA" stroke-width="2.5"/>
<path d="M24.1693 20.0026C24.1693 22.3038 22.3038 24.1693 20.0026 24.1693C17.7014 24.1693 15.8359 22.3038 15.8359 20.0026C15.8359 17.7014 17.7014 15.8359 20.0026 15.8359C22.3038 15.8359 24.1693 17.7014 24.1693 20.0026Z" stroke="#8C26EA" stroke-width="2.5"/>
</svg>
