<svg width="40" height="40" viewBox="0 0 40 40" fill="none" xmlns="http://www.w3.org/2000/svg">
<path d="M36.6693 36.668L3.33594 36.668" stroke="#8C26EA" stroke-width="2.5" stroke-linecap="round"/>
<path d="M5 36.667V18.9123C5 17.4841 5.61074 16.1241 6.67818 15.1753L16.6782 6.28639C18.5726 4.60245 21.4274 4.60245 23.3218 6.28639L33.3218 15.1753C34.3893 16.1241 35 17.4841 35 18.9123V36.667" stroke="#8C26EA" stroke-width="2.5" stroke-linecap="round"/>
<path d="M16.668 15H23.3346" stroke="#8C26EA" stroke-width="2.5" stroke-linecap="round"/>
<path d="M15 25.832H25" stroke="#8C26EA" stroke-width="2.5" stroke-linecap="round"/>
<path d="M15 30.832H25" stroke="#8C26EA" stroke-width="2.5" stroke-linecap="round"/>
<path d="M30 36.6667V26.6667C30 23.524 30 21.9526 29.0237 20.9763C28.0474 20 26.476 20 23.3333 20H16.6667C13.524 20 11.9526 20 10.9763 20.9763C10 21.9526 10 23.524 10 26.6667V36.6667" stroke="#8C26EA" stroke-width="2.5"/>
</svg>
