<svg width="41" height="40" viewBox="0 0 41 40" fill="none" xmlns="http://www.w3.org/2000/svg">
<path d="M37.0013 36.668L3.66797 36.668" stroke="#8C26EA" stroke-width="2.5" stroke-linecap="round"/>
<path d="M28.6706 36.6693V10.0026C28.6706 6.85991 28.6706 5.28856 27.6943 4.31225C26.718 3.33594 25.1466 3.33594 22.0039 3.33594H18.6706C15.5279 3.33594 13.9565 3.33594 12.9802 4.31225C12.0039 5.28856 12.0039 6.85991 12.0039 10.0026V36.6693" stroke="#8C26EA" stroke-width="2.5"/>
<path d="M35.3372 36.6693V19.1693C35.3372 16.8285 35.3372 15.6581 34.7755 14.8174C34.5323 14.4534 34.2198 14.1409 33.8558 13.8977C33.0151 13.3359 31.8447 13.3359 29.5039 13.3359" stroke="#8C26EA" stroke-width="2.5"/>
<path d="M5.33594 36.6693V19.1693C5.33594 16.8285 5.33594 15.6581 5.89771 14.8174C6.1409 14.4534 6.4534 14.1409 6.81737 13.8977C7.65812 13.3359 8.8285 13.3359 11.1693 13.3359" stroke="#8C26EA" stroke-width="2.5"/>
<path d="M20.3359 36.668V31.668" stroke="#8C26EA" stroke-width="2.5" stroke-linecap="round"/>
<path d="M17.0039 8.33594H23.6706" stroke="#8C26EA" stroke-width="2.5" stroke-linecap="round"/>
<path d="M17.0039 13.3359H23.6706" stroke="#8C26EA" stroke-width="2.5" stroke-linecap="round"/>
<path d="M17.0039 18.3359H23.6706" stroke="#8C26EA" stroke-width="2.5" stroke-linecap="round"/>
<path d="M17.0039 23.3359H23.6706" stroke="#8C26EA" stroke-width="2.5" stroke-linecap="round"/>
</svg>
