<svg width="206" height="26" viewBox="0 0 206 26" fill="none" xmlns="http://www.w3.org/2000/svg">
<path d="M6.62793 4.29492C8.65462 4.29492 10.1335 4.71029 11.0645 5.54102C11.9954 6.37174 12.4609 7.53548 12.4609 9.03223C12.4609 9.71257 12.3535 10.3607 12.1387 10.9766C11.931 11.5853 11.5872 12.126 11.1074 12.5986C10.6276 13.0641 9.99382 13.4329 9.20605 13.7051C8.42546 13.9772 7.46224 14.1133 6.31641 14.1133H4.64062V20H2.0625V4.29492H6.62793ZM6.45605 6.43262H4.64062V11.9648H6.04785C6.8571 11.9648 7.5446 11.8717 8.11035 11.6855C8.67611 11.4922 9.10579 11.1878 9.39941 10.7725C9.69303 10.3571 9.83984 9.80924 9.83984 9.12891C9.83984 8.2194 9.56413 7.54264 9.0127 7.09863C8.46842 6.65462 7.61621 6.43262 6.45605 6.43262ZM21.3662 7.88281C21.5667 7.88281 21.7852 7.89355 22.0215 7.91504C22.2578 7.93652 22.4619 7.96517 22.6338 8.00098L22.3975 10.3643C22.2471 10.3213 22.0609 10.2891 21.8389 10.2676C21.624 10.2461 21.4307 10.2354 21.2588 10.2354C20.8076 10.2354 20.3779 10.3105 19.9697 10.4609C19.5615 10.6042 19.1999 10.8262 18.8848 11.127C18.5697 11.4206 18.3226 11.7894 18.1436 12.2334C17.9645 12.6774 17.875 13.193 17.875 13.7803V20H15.3398V8.1084H17.3164L17.6602 10.2031H17.7783C18.0146 9.7806 18.3083 9.39388 18.6592 9.04297C19.0101 8.69206 19.4111 8.41276 19.8623 8.20508C20.3206 7.99023 20.8219 7.88281 21.3662 7.88281ZM29.498 7.88281C31.002 7.88281 32.137 8.21582 32.9033 8.88184C33.6768 9.54785 34.0635 10.5863 34.0635 11.9971V20H32.2695L31.7861 18.3135H31.7002C31.3636 18.7432 31.0163 19.0977 30.6582 19.377C30.3001 19.6562 29.8848 19.8639 29.4121 20C28.9466 20.1432 28.3773 20.2148 27.7041 20.2148C26.9951 20.2148 26.3613 20.0859 25.8027 19.8281C25.2441 19.5632 24.8037 19.1621 24.4814 18.625C24.1592 18.0879 23.998 17.4076 23.998 16.584C23.998 15.3594 24.4528 14.4391 25.3623 13.8232C26.279 13.2074 27.6611 12.8672 29.5088 12.8027L31.5713 12.7275V12.1045C31.5713 11.2809 31.3779 10.6937 30.9912 10.3428C30.6117 9.99186 30.0745 9.81641 29.3799 9.81641C28.7855 9.81641 28.209 9.90234 27.6504 10.0742C27.0918 10.2461 26.5475 10.4574 26.0176 10.708L25.2012 8.9248C25.7812 8.61686 26.4401 8.36621 27.1777 8.17285C27.9225 7.97949 28.696 7.88281 29.498 7.88281ZM31.5605 14.3174L30.0244 14.3711C28.764 14.4141 27.8796 14.6289 27.3711 15.0156C26.8626 15.4023 26.6084 15.9323 26.6084 16.6055C26.6084 17.1927 26.7839 17.6224 27.1348 17.8945C27.4857 18.1595 27.9476 18.292 28.5205 18.292C29.3942 18.292 30.1175 18.0449 30.6904 17.5508C31.2705 17.0495 31.5605 16.3154 31.5605 15.3486V14.3174ZM40.3154 20L35.793 8.1084H38.4678L40.917 15.0908C41.0745 15.5348 41.2178 16.0146 41.3467 16.5303C41.4756 17.0459 41.5651 17.4792 41.6152 17.8301H41.7012C41.7513 17.4648 41.848 17.028 41.9912 16.5195C42.1344 16.0039 42.2812 15.5277 42.4316 15.0908L44.8809 8.1084H47.5449L43.0225 20H40.3154ZM59.877 14.0273C59.877 15.0156 59.748 15.8929 59.4902 16.6592C59.2324 17.4255 58.8564 18.0736 58.3623 18.6035C57.8682 19.1263 57.2738 19.5273 56.5791 19.8066C55.8844 20.0788 55.1003 20.2148 54.2266 20.2148C53.4102 20.2148 52.6618 20.0788 51.9814 19.8066C51.3011 19.5273 50.7103 19.1263 50.209 18.6035C49.7148 18.0736 49.3317 17.4255 49.0596 16.6592C48.7874 15.8929 48.6514 15.0156 48.6514 14.0273C48.6514 12.7168 48.877 11.6068 49.3281 10.6973C49.7865 9.7806 50.4382 9.08236 51.2832 8.60254C52.1283 8.12272 53.1344 7.88281 54.3018 7.88281C55.3975 7.88281 56.3643 8.12272 57.2021 8.60254C58.04 9.08236 58.6953 9.7806 59.168 10.6973C59.6406 11.6139 59.877 12.724 59.877 14.0273ZM51.251 14.0273C51.251 14.8939 51.3548 15.6351 51.5625 16.251C51.7773 16.8669 52.1068 17.3395 52.5508 17.6689C52.9948 17.9912 53.5677 18.1523 54.2695 18.1523C54.9714 18.1523 55.5443 17.9912 55.9883 17.6689C56.4323 17.3395 56.7581 16.8669 56.9658 16.251C57.1735 15.6351 57.2773 14.8939 57.2773 14.0273C57.2773 13.1608 57.1735 12.4268 56.9658 11.8252C56.7581 11.2165 56.4323 10.7546 55.9883 10.4395C55.5443 10.1172 54.9678 9.95605 54.2588 9.95605C53.2132 9.95605 52.4505 10.307 51.9707 11.0088C51.4909 11.7106 51.251 12.7168 51.251 14.0273ZM68.4814 20H65.8926V6.48633H61.2949V4.29492H73.0684V6.48633H68.4814V20ZM79.9541 7.88281C81.014 7.88281 81.9235 8.10124 82.6826 8.53809C83.4417 8.97493 84.0254 9.5944 84.4336 10.3965C84.8418 11.1986 85.0459 12.1582 85.0459 13.2754V14.6289H77.1074C77.1361 15.7819 77.444 16.6699 78.0312 17.293C78.6257 17.916 79.4564 18.2275 80.5234 18.2275C81.2826 18.2275 81.9629 18.1559 82.5645 18.0127C83.1732 17.8623 83.7998 17.6439 84.4443 17.3574V19.4092C83.8499 19.6885 83.2448 19.8926 82.6289 20.0215C82.013 20.1504 81.2754 20.2148 80.416 20.2148C79.2487 20.2148 78.221 19.9893 77.333 19.5381C76.4521 19.0798 75.7611 18.3994 75.2598 17.4971C74.7656 16.5947 74.5186 15.474 74.5186 14.1348C74.5186 12.8027 74.7441 11.6712 75.1953 10.7402C75.6465 9.80924 76.2803 9.10026 77.0967 8.61328C77.9131 8.1263 78.8656 7.88281 79.9541 7.88281ZM79.9541 9.78418C79.1592 9.78418 78.5146 10.042 78.0205 10.5576C77.5335 11.0732 77.2471 11.8288 77.1611 12.8242H82.5752C82.568 12.2298 82.4678 11.7035 82.2744 11.2451C82.0882 10.7868 81.8018 10.4287 81.415 10.1709C81.0355 9.91309 80.5485 9.78418 79.9541 9.78418ZM92.6836 20.2148C91.5592 20.2148 90.5853 19.9964 89.7617 19.5596C88.9382 19.1227 88.3044 18.4531 87.8604 17.5508C87.4163 16.6484 87.1943 15.5026 87.1943 14.1133C87.1943 12.6667 87.4378 11.485 87.9248 10.5684C88.4118 9.65169 89.085 8.97493 89.9443 8.53809C90.8109 8.10124 91.8027 7.88281 92.9199 7.88281C93.6289 7.88281 94.2699 7.95443 94.8428 8.09766C95.4229 8.23372 95.9134 8.40202 96.3145 8.60254L95.5625 10.6221C95.1257 10.443 94.6781 10.2926 94.2197 10.1709C93.7614 10.0492 93.321 9.98828 92.8984 9.98828C92.2038 9.98828 91.6237 10.1423 91.1582 10.4502C90.6999 10.7581 90.3561 11.2165 90.127 11.8252C89.9049 12.4339 89.7939 13.1895 89.7939 14.0918C89.7939 14.9655 89.9085 15.7031 90.1377 16.3047C90.3669 16.8991 90.707 17.3503 91.1582 17.6582C91.6094 17.959 92.1644 18.1094 92.8232 18.1094C93.4749 18.1094 94.0586 18.0306 94.5742 17.873C95.0898 17.7155 95.5768 17.5114 96.0352 17.2607V19.4521C95.584 19.71 95.1006 19.8997 94.585 20.0215C94.0693 20.1504 93.4355 20.2148 92.6836 20.2148ZM101.353 3.28516V7.48535C101.353 7.9222 101.338 8.34831 101.31 8.76367C101.288 9.17904 101.263 9.5013 101.234 9.73047H101.374C101.625 9.3151 101.933 8.97493 102.298 8.70996C102.663 8.43783 103.071 8.23372 103.522 8.09766C103.981 7.96159 104.468 7.89355 104.983 7.89355C105.893 7.89355 106.666 8.04753 107.304 8.35547C107.941 8.65625 108.428 9.12533 108.765 9.7627C109.108 10.4001 109.28 11.2272 109.28 12.2441V20H106.756V12.7168C106.756 11.793 106.566 11.1019 106.187 10.6436C105.807 10.1781 105.22 9.94531 104.425 9.94531C103.659 9.94531 103.05 10.1064 102.599 10.4287C102.155 10.7438 101.836 11.2129 101.643 11.8359C101.449 12.4518 101.353 13.2038 101.353 14.0918V20H98.8281V3.28516H101.353Z" fill="#0D0628"/>
<path d="M118.787 4.29492H123.46C125.487 4.29492 127.016 4.58854 128.047 5.17578C129.078 5.76302 129.594 6.77637 129.594 8.21582C129.594 8.81738 129.486 9.36165 129.271 9.84863C129.064 10.3285 128.759 10.7259 128.358 11.041C127.957 11.349 127.463 11.5566 126.876 11.6641V11.7715C127.485 11.8789 128.025 12.0687 128.498 12.3408C128.978 12.613 129.354 13.0033 129.626 13.5117C129.905 14.0202 130.045 14.679 130.045 15.4883C130.045 16.4479 129.816 17.2643 129.357 17.9375C128.906 18.6107 128.258 19.1227 127.413 19.4736C126.575 19.8245 125.58 20 124.427 20H118.787V4.29492ZM121.365 10.7725H123.836C125.003 10.7725 125.812 10.5827 126.264 10.2031C126.715 9.82357 126.94 9.26855 126.94 8.53809C126.94 7.79329 126.672 7.25618 126.135 6.92676C125.605 6.59733 124.76 6.43262 123.6 6.43262H121.365V10.7725ZM121.365 12.8564V17.8408H124.083C125.286 17.8408 126.131 17.6081 126.618 17.1426C127.105 16.6771 127.349 16.0469 127.349 15.252C127.349 14.765 127.238 14.3424 127.016 13.9844C126.801 13.6263 126.446 13.3506 125.952 13.1572C125.458 12.9567 124.792 12.8564 123.954 12.8564H121.365ZM135.556 8.1084V20H133.031V8.1084H135.556ZM134.31 3.55371C134.696 3.55371 135.029 3.65755 135.309 3.86523C135.595 4.07292 135.738 4.43099 135.738 4.93945C135.738 5.44076 135.595 5.79883 135.309 6.01367C135.029 6.22135 134.696 6.3252 134.31 6.3252C133.909 6.3252 133.568 6.22135 133.289 6.01367C133.017 5.79883 132.881 5.44076 132.881 4.93945C132.881 4.43099 133.017 4.07292 133.289 3.86523C133.568 3.65755 133.909 3.55371 134.31 3.55371ZM142.57 25.2852C140.959 25.2852 139.724 24.9951 138.864 24.415C138.005 23.835 137.575 23.0221 137.575 21.9766C137.575 21.2461 137.804 20.6266 138.263 20.1182C138.721 19.6169 139.376 19.2695 140.229 19.0762C139.906 18.9329 139.627 18.7109 139.391 18.4102C139.161 18.1022 139.047 17.762 139.047 17.3896C139.047 16.9456 139.172 16.5661 139.423 16.251C139.674 15.9359 140.049 15.6315 140.551 15.3379C139.928 15.0729 139.426 14.6432 139.047 14.0488C138.674 13.4473 138.488 12.7419 138.488 11.9326C138.488 11.0732 138.671 10.3428 139.036 9.74121C139.401 9.13249 139.935 8.67057 140.637 8.35547C141.339 8.0332 142.187 7.87207 143.183 7.87207C143.397 7.87207 143.63 7.88639 143.881 7.91504C144.139 7.93652 144.375 7.96517 144.59 8.00098C144.812 8.02962 144.98 8.06185 145.095 8.09766H149.209V9.50488L147.189 9.88086C147.383 10.153 147.537 10.4645 147.651 10.8154C147.766 11.1592 147.823 11.5352 147.823 11.9434C147.823 13.1751 147.397 14.1455 146.545 14.8545C145.7 15.5563 144.533 15.9072 143.043 15.9072C142.685 15.8929 142.338 15.8643 142.001 15.8213C141.743 15.9788 141.546 16.1543 141.41 16.3477C141.274 16.5339 141.206 16.7451 141.206 16.9814C141.206 17.1748 141.274 17.3324 141.41 17.4541C141.546 17.5687 141.747 17.6546 142.012 17.7119C142.284 17.7692 142.613 17.7979 143 17.7979H145.052C146.355 17.7979 147.351 18.0736 148.038 18.625C148.726 19.1764 149.069 19.9857 149.069 21.0527C149.069 22.4062 148.511 23.4482 147.394 24.1787C146.276 24.9163 144.669 25.2852 142.57 25.2852ZM142.667 23.5127C143.548 23.5127 144.289 23.4268 144.891 23.2549C145.492 23.083 145.947 22.8359 146.255 22.5137C146.563 22.1986 146.717 21.8226 146.717 21.3857C146.717 20.999 146.62 20.7018 146.427 20.4941C146.233 20.2865 145.943 20.1432 145.557 20.0645C145.17 19.9857 144.69 19.9463 144.117 19.9463H142.248C141.783 19.9463 141.371 20.0179 141.013 20.1611C140.655 20.3115 140.375 20.5264 140.175 20.8057C139.981 21.085 139.885 21.4215 139.885 21.8154C139.885 22.3597 140.125 22.7786 140.604 23.0723C141.091 23.3659 141.779 23.5127 142.667 23.5127ZM143.161 14.2529C143.899 14.2529 144.447 14.0524 144.805 13.6514C145.163 13.2432 145.342 12.6702 145.342 11.9326C145.342 11.1305 145.156 10.529 144.783 10.1279C144.418 9.72689 143.874 9.52637 143.15 9.52637C142.441 9.52637 141.901 9.73047 141.528 10.1387C141.163 10.5469 140.98 11.152 140.98 11.9541C140.98 12.6774 141.163 13.2432 141.528 13.6514C141.901 14.0524 142.445 14.2529 143.161 14.2529ZM170.103 11.9971C170.103 13.766 169.773 15.2448 169.114 16.4336C168.455 17.6152 167.499 18.5068 166.246 19.1084C164.993 19.7028 163.482 20 161.713 20H157.352V4.29492H162.186C163.811 4.29492 165.215 4.58854 166.396 5.17578C167.578 5.75586 168.491 6.61882 169.136 7.76465C169.78 8.90332 170.103 10.3141 170.103 11.9971ZM167.417 12.0723C167.417 10.7832 167.213 9.72331 166.805 8.89258C166.404 8.06185 165.809 7.44596 165.021 7.04492C164.241 6.63672 163.278 6.43262 162.132 6.43262H159.93V17.8408H161.756C163.654 17.8408 165.072 17.3574 166.01 16.3906C166.948 15.4238 167.417 13.9844 167.417 12.0723ZM177.891 7.88281C179.395 7.88281 180.53 8.21582 181.296 8.88184C182.069 9.54785 182.456 10.5863 182.456 11.9971V20H180.662L180.179 18.3135H180.093C179.756 18.7432 179.409 19.0977 179.051 19.377C178.693 19.6562 178.277 19.8639 177.805 20C177.339 20.1432 176.77 20.2148 176.097 20.2148C175.388 20.2148 174.754 20.0859 174.195 19.8281C173.637 19.5632 173.196 19.1621 172.874 18.625C172.552 18.0879 172.391 17.4076 172.391 16.584C172.391 15.3594 172.845 14.4391 173.755 13.8232C174.672 13.2074 176.054 12.8672 177.901 12.8027L179.964 12.7275V12.1045C179.964 11.2809 179.771 10.6937 179.384 10.3428C179.004 9.99186 178.467 9.81641 177.772 9.81641C177.178 9.81641 176.602 9.90234 176.043 10.0742C175.484 10.2461 174.94 10.4574 174.41 10.708L173.594 8.9248C174.174 8.61686 174.833 8.36621 175.57 8.17285C176.315 7.97949 177.089 7.88281 177.891 7.88281ZM179.953 14.3174L178.417 14.3711C177.157 14.4141 176.272 14.6289 175.764 15.0156C175.255 15.4023 175.001 15.9323 175.001 16.6055C175.001 17.1927 175.176 17.6224 175.527 17.8945C175.878 18.1595 176.34 18.292 176.913 18.292C177.787 18.292 178.51 18.0449 179.083 17.5508C179.663 17.0495 179.953 16.3154 179.953 15.3486V14.3174ZM190.416 18.1738C190.745 18.1738 191.071 18.1452 191.394 18.0879C191.716 18.0234 192.009 17.9482 192.274 17.8623V19.7744C191.995 19.8962 191.633 20 191.189 20.0859C190.745 20.1719 190.284 20.2148 189.804 20.2148C189.131 20.2148 188.525 20.1038 187.988 19.8818C187.451 19.6527 187.025 19.2624 186.71 18.7109C186.395 18.1595 186.237 17.3968 186.237 16.4229V10.0312H184.615V8.90332L186.355 8.01172L187.183 5.46582H188.772V8.1084H192.178V10.0312H188.772V16.3906C188.772 16.9922 188.923 17.4398 189.224 17.7334C189.524 18.027 189.922 18.1738 190.416 18.1738ZM199.354 7.88281C200.857 7.88281 201.993 8.21582 202.759 8.88184C203.532 9.54785 203.919 10.5863 203.919 11.9971V20H202.125L201.642 18.3135H201.556C201.219 18.7432 200.872 19.0977 200.514 19.377C200.156 19.6562 199.74 19.8639 199.268 20C198.802 20.1432 198.233 20.2148 197.56 20.2148C196.851 20.2148 196.217 20.0859 195.658 19.8281C195.1 19.5632 194.659 19.1621 194.337 18.625C194.015 18.0879 193.854 17.4076 193.854 16.584C193.854 15.3594 194.308 14.4391 195.218 13.8232C196.134 13.2074 197.517 12.8672 199.364 12.8027L201.427 12.7275V12.1045C201.427 11.2809 201.233 10.6937 200.847 10.3428C200.467 9.99186 199.93 9.81641 199.235 9.81641C198.641 9.81641 198.064 9.90234 197.506 10.0742C196.947 10.2461 196.403 10.4574 195.873 10.708L195.057 8.9248C195.637 8.61686 196.296 8.36621 197.033 8.17285C197.778 7.97949 198.551 7.88281 199.354 7.88281ZM201.416 14.3174L199.88 14.3711C198.619 14.4141 197.735 14.6289 197.227 15.0156C196.718 15.4023 196.464 15.9323 196.464 16.6055C196.464 17.1927 196.639 17.6224 196.99 17.8945C197.341 18.1595 197.803 18.292 198.376 18.292C199.25 18.292 199.973 18.0449 200.546 17.5508C201.126 17.0495 201.416 16.3154 201.416 15.3486V14.3174Z" fill="#8C26EA"/>
</svg>
