<svg width="41" height="40" viewBox="0 0 41 40" fill="none" xmlns="http://www.w3.org/2000/svg">
<path d="M13.5718 6.33555C16.953 4.33321 18.6436 3.33203 20.5 3.33203C22.3564 3.33203 24.047 4.33321 27.4282 6.33555L28.5718 7.01279C31.953 9.01514 33.6436 10.0163 34.5718 11.6654C35.5 13.3144 35.5 15.3168 35.5 19.3215V20.6759C35.5 24.6806 35.5 26.683 34.5718 28.332C33.6436 29.9811 31.953 30.9823 28.5718 32.9846L27.4282 33.6618C24.047 35.6642 22.3564 36.6654 20.5 36.6654C18.6436 36.6654 16.953 35.6642 13.5718 33.6618L12.4282 32.9846C9.047 30.9823 7.35641 29.9811 6.4282 28.332C5.5 26.683 5.5 24.6806 5.5 20.6759V19.3215C5.5 15.3168 5.5 13.3144 6.4282 11.6654C7.35641 10.0163 9.047 9.01514 12.4282 7.01279L13.5718 6.33555Z" stroke="#8C26EA" stroke-width="2.5"/>
<circle cx="20.5" cy="20" r="5" stroke="#8C26EA" stroke-width="2.5"/>
</svg>
