<svg width="20" height="20" viewBox="0 0 20 20" fill="none" xmlns="http://www.w3.org/2000/svg">
<path d="M9.99497 13.7512C9.89497 13.7512 9.80122 13.7339 9.71372 13.6992C9.62622 13.6644 9.54775 13.6124 9.4783 13.5429L5.52701 9.59167C5.36954 9.4342 5.29427 9.25477 5.30122 9.05338C5.30816 8.85199 5.38802 8.67491 5.5408 8.52213C5.69358 8.36935 5.87066 8.29297 6.07205 8.29297C6.27344 8.29297 6.45052 8.36935 6.6033 8.52213L9.99912 11.9387L13.4158 8.52213C13.5686 8.36935 13.7456 8.29644 13.947 8.30338C14.1484 8.31033 14.3255 8.39019 14.4783 8.54297C14.6311 8.69574 14.7074 8.87283 14.7074 9.07422C14.7074 9.2756 14.6287 9.45465 14.4712 9.61134L10.5199 13.5429C10.4449 13.6124 10.3637 13.6644 10.2762 13.6992C10.1887 13.7339 10.0949 13.7512 9.99497 13.7512Z" fill="#0D0628"/>
</svg>
