<svg width="506" height="477" viewBox="0 0 506 477" fill="none" xmlns="http://www.w3.org/2000/svg">
<g filter="url(#filter0_dddd_2984_19435)">
<g clip-path="url(#clip0_2984_19435)">
<rect x="189.43" y="34" width="255.569" height="339.302" rx="24" fill="#E5CAFF"/>
<g style="mix-blend-mode:plus-darker">
<path d="M270.934 226.299C269.002 228.243 265.842 228.254 264.052 226.179C254.083 214.627 248.071 200.095 246.995 184.745C245.802 167.732 250.752 150.857 260.936 137.224C271.12 123.59 285.852 114.113 302.425 110.536C318.998 106.959 336.297 109.521 351.143 117.752C365.988 125.983 377.382 139.33 383.229 155.338C389.076 171.346 388.983 188.941 382.969 204.886C376.954 220.831 365.421 234.056 350.49 242.129C337.014 249.415 321.588 252.062 306.553 249.75C303.854 249.335 302.183 246.67 302.78 244.005C303.38 241.33 306.038 239.672 308.752 240.056C321.457 241.856 334.45 239.549 345.827 233.397C358.668 226.455 368.586 215.081 373.759 201.368C378.931 187.656 379.011 172.525 373.982 158.757C368.954 144.99 359.156 133.512 346.389 126.433C333.622 119.355 318.744 117.151 304.492 120.228C290.239 123.304 277.569 131.454 268.811 143.179C260.053 154.904 255.795 169.416 256.821 184.047C257.732 197.035 262.752 209.342 271.078 219.198C272.831 221.273 272.849 224.372 270.934 226.299Z" fill="#ECF0F1"/>
</g>
<path d="M271.184 226.047C269.114 228.13 265.728 228.142 263.821 225.909C256.885 217.789 251.854 208.172 249.135 197.772C245.965 185.646 246.052 172.891 249.388 160.81C252.724 148.729 259.188 137.756 268.12 129.013C277.052 120.27 288.131 114.07 300.224 111.048C312.318 108.026 324.992 108.29 336.952 111.812C348.911 115.335 359.726 121.99 368.291 131.097C376.856 140.204 382.864 151.436 385.701 163.645C388.136 174.13 388.158 185.012 385.795 195.466C385.15 198.318 382.166 199.884 379.374 199.019C376.595 198.159 375.06 195.216 375.666 192.37C377.51 183.712 377.436 174.727 375.423 166.063C373.012 155.685 367.905 146.137 360.625 138.396C353.345 130.655 344.152 124.999 333.986 122.005C323.821 119.011 313.048 118.786 302.768 121.355C292.489 123.924 283.071 129.194 275.479 136.625C267.887 144.057 262.393 153.384 259.557 163.652C256.722 173.921 256.648 184.763 259.342 195.07C261.591 203.672 265.701 211.644 271.352 218.427C273.215 220.663 273.236 223.983 271.184 226.047Z" fill="#8C26EA"/>
<g style="mix-blend-mode:plus-darker">
<path d="M259.96 236.578C257.97 238.568 254.729 238.578 252.861 236.472C240.117 222.099 232.585 203.785 231.586 184.502C230.5 163.518 237.228 142.875 250.472 126.562C263.716 110.248 282.536 99.4219 303.296 96.1736C324.056 92.9253 345.283 97.4857 362.877 108.974C380.471 120.462 393.184 138.063 398.559 158.376C403.934 178.69 401.591 200.274 391.981 218.961C382.372 237.647 366.178 252.11 346.529 259.555C328.473 266.396 308.676 266.865 290.392 260.977C287.712 260.114 286.417 257.144 287.439 254.52C288.461 251.897 291.412 250.617 294.099 251.458C310.026 256.443 327.219 255.969 342.917 250.021C360.209 243.47 374.459 230.743 382.915 214.299C391.371 197.854 393.434 178.86 388.703 160.984C383.973 143.108 372.786 127.62 357.303 117.51C341.821 107.4 323.141 103.387 304.872 106.246C286.603 109.104 270.042 118.632 258.387 132.987C246.732 147.343 240.811 165.509 241.767 183.975C242.636 200.739 249.116 216.672 260.086 229.249C261.936 231.371 261.951 234.587 259.96 236.578Z" fill="#ECF0F1"/>
</g>
<path d="M259.96 236.578C257.97 238.568 254.729 238.578 252.862 236.472C244.963 227.564 239.012 217.08 235.416 205.691C231.307 192.68 230.393 178.87 232.75 165.43C235.108 151.99 240.668 139.316 248.96 128.48C257.253 117.643 268.033 108.964 280.389 103.175C292.746 97.3871 306.315 94.6601 319.948 95.2253C333.581 95.7904 346.878 99.6311 358.713 106.422C370.548 113.214 380.573 122.756 387.94 134.241C394.388 144.294 398.633 155.577 400.422 167.347C400.845 170.13 398.763 172.613 395.959 172.868C393.156 173.124 390.694 171.054 390.248 168.274C388.623 158.134 384.922 148.42 379.359 139.745C372.876 129.638 364.054 121.241 353.639 115.265C343.224 109.288 331.523 105.909 319.526 105.411C307.528 104.914 295.588 107.314 284.714 112.407C273.841 117.501 264.354 125.139 257.057 134.675C249.759 144.211 244.867 155.364 242.792 167.191C240.717 179.019 241.522 191.171 245.138 202.622C248.241 212.449 253.336 221.51 260.086 229.249C261.936 231.371 261.951 234.587 259.96 236.578Z" fill="#BF79FF"/>
<g style="mix-blend-mode:plus-darker">
<rect x="292.43" y="299.152" width="102" height="8" rx="4" fill="#ECF0F1" fill-opacity="0.8"/>
</g>
<g style="mix-blend-mode:plus-darker">
<rect x="292.43" y="314.152" width="102" height="8" rx="4" fill="#ECF0F1" fill-opacity="0.8"/>
</g>
<g style="mix-blend-mode:plus-darker">
<rect x="292.43" y="329.152" width="77" height="8" rx="4" fill="#ECF0F1" fill-opacity="0.8"/>
</g>
<g style="mix-blend-mode:plus-darker" filter="url(#filter1_f_2984_19435)">
<rect x="289.43" y="18.1523" width="19" height="373" fill="#C9C9C9"/>
</g>
</g>
<rect x="190.43" y="35" width="253.569" height="337.302" rx="23" stroke="url(#paint0_linear_2984_19435)" stroke-opacity="0.06" stroke-width="2"/>
<rect x="6" y="5" width="291" height="397" rx="23.8835" fill="white"/>
<rect x="6.99515" y="5.99515" width="289.01" height="395.01" rx="22.8883" stroke="url(#paint1_linear_2984_19435)" stroke-opacity="0.05" stroke-width="1.99029"/>
<path d="M101.354 233.537C99.2603 235.644 95.8357 235.655 93.8952 233.406C85.2231 223.356 79.2767 211.183 76.6841 198.068C73.7415 183.182 75.2518 167.753 81.024 153.731C86.7963 139.709 96.5712 127.724 109.113 119.292C121.654 110.86 136.399 106.359 151.483 106.359C166.566 106.359 181.311 110.86 193.853 119.292C206.394 127.724 216.169 139.709 221.942 153.731C227.714 167.753 229.224 183.182 226.281 198.068C223.689 211.183 217.743 223.356 209.07 233.406C207.13 235.655 203.705 235.644 201.611 233.537C199.536 231.449 199.555 228.089 201.455 225.84C208.671 217.299 213.625 207.024 215.81 195.972C218.34 183.17 217.042 169.901 212.077 157.842C207.113 145.783 198.707 135.476 187.921 128.225C177.135 120.973 164.455 117.103 151.483 117.103C138.511 117.103 125.83 120.973 115.045 128.225C104.259 135.476 95.8524 145.783 90.8882 157.842C85.9241 169.901 84.6253 183.17 87.156 195.972C89.3408 207.024 94.2951 217.299 101.511 225.84C103.411 228.089 103.43 231.449 101.354 233.537Z" fill="#ECF0F1"/>
<path d="M101.626 233.264C99.3821 235.521 95.7116 235.535 93.6446 233.114C86.6359 224.909 81.4161 215.287 78.3529 204.87C74.7443 192.599 74.2431 179.614 76.8947 167.098C79.5463 154.582 85.2667 142.932 93.5351 133.208C100.551 124.958 109.212 118.317 118.931 113.701C121.808 112.334 125.156 113.844 126.288 116.821C127.414 119.782 125.92 123.071 123.077 124.466C115.114 128.372 108.013 133.888 102.227 140.692C95.1991 148.957 90.3368 158.859 88.0829 169.498C85.829 180.137 86.2551 191.173 89.3224 201.604C91.8509 210.203 96.108 218.164 101.808 225.004C103.827 227.428 103.849 231.026 101.626 233.264Z" fill="#8C26EA"/>
<path d="M91.3658 243.528C89.2381 245.667 85.7628 245.677 83.7677 243.414C73.152 231.372 65.8817 216.685 62.7463 200.84C59.2553 183.198 61.047 164.911 67.8948 148.292C74.7426 131.674 86.339 117.47 101.217 107.476C116.096 97.4825 133.588 92.1484 151.483 92.1484C169.377 92.1484 186.869 97.4825 201.748 107.476C216.626 117.47 228.223 131.674 235.07 148.292C241.918 164.911 243.71 183.198 240.219 200.84C237.083 216.685 229.813 231.372 219.197 243.414C217.202 245.677 213.727 245.667 211.599 243.528C209.487 241.405 209.503 237.986 211.467 235.725C220.594 225.213 226.85 212.457 229.571 198.711C232.643 183.186 231.066 167.093 225.04 152.469C219.014 137.845 208.809 125.345 195.716 116.551C182.623 107.756 167.229 103.062 151.483 103.062C135.736 103.062 120.342 107.756 107.249 116.551C94.1562 125.345 83.9514 137.845 77.9253 152.469C71.8992 167.093 70.3225 183.186 73.3946 198.711C76.1147 212.457 82.3713 225.213 91.4986 235.725C93.4621 237.986 93.4779 241.405 91.3658 243.528Z" fill="#ECF0F1"/>
<path d="M91.3658 243.528C89.2381 245.667 85.7629 245.678 83.7679 243.414C77.1127 235.865 71.7447 227.244 67.8948 217.901C63.348 206.867 61.0078 195.04 61.0078 183.097C61.0078 171.153 63.348 159.327 67.8948 148.292C72.4416 137.258 79.1059 127.232 87.5073 118.787C95.9086 110.341 105.882 103.642 116.859 99.0715C127.836 94.5009 139.601 92.1484 151.483 92.1484C163.364 92.1484 175.129 94.5009 186.106 99.0715C195.417 102.949 204.007 108.357 211.527 115.064C213.762 117.058 213.752 120.502 211.639 122.625C209.512 124.764 206.062 124.748 203.792 122.76C197.302 117.074 189.927 112.476 181.951 109.155C172.291 105.132 161.938 103.062 151.483 103.062C141.027 103.062 130.674 105.132 121.014 109.155C111.355 113.177 102.578 119.072 95.1843 126.504C87.7911 133.936 81.9265 142.759 77.9253 152.469C73.9242 162.179 71.8648 172.587 71.8648 183.097C71.8648 193.607 73.9242 204.015 77.9253 213.725C81.2367 221.761 85.8245 229.19 91.4988 235.725C93.4622 237.986 93.4779 241.405 91.3658 243.528Z" fill="#BF79FF"/>
<path d="M80.1054 254.002C77.8264 256.28 74.1182 256.291 71.968 253.89C59.3151 239.763 50.6548 222.472 46.9411 203.802C42.8471 183.22 44.9483 161.886 52.9789 142.499C61.0095 123.111 74.6089 106.54 92.0574 94.8815C109.506 83.2228 130.02 77 151.005 77C171.99 77 192.503 83.2228 209.952 94.8815C227.4 106.54 241 123.111 249.03 142.499C257.061 161.886 259.162 183.22 255.068 203.802C251.354 222.472 242.694 239.763 230.041 253.89C227.891 256.291 224.183 256.28 221.904 254.002C219.625 251.723 219.64 248.039 221.774 245.624C232.803 233.14 240.358 217.931 243.621 201.525C247.265 183.207 245.395 164.22 238.248 146.965C231.1 129.71 218.997 114.962 203.468 104.586C187.939 94.2095 169.681 88.6712 151.005 88.6712C132.328 88.6712 114.071 94.2095 98.5416 104.586C83.0125 114.962 70.909 129.71 63.7617 146.965C56.6145 164.22 54.7444 183.207 58.3881 201.525C61.6514 217.931 69.2061 233.14 80.2353 245.624C82.3691 248.039 82.3843 251.723 80.1054 254.002Z" fill="#ECF0F1"/>
<path d="M80.1054 254.002C77.8264 256.28 74.1182 256.291 71.9679 253.89C60.6787 241.285 52.5481 226.14 48.2914 209.705C43.5462 191.383 43.788 172.126 48.9917 153.929C54.1954 135.733 64.1717 119.259 77.8862 106.217C91.6008 93.1741 108.554 84.0374 126.989 79.7536C145.424 75.4698 164.669 76.195 182.73 81.8539C200.79 87.5129 217.008 97.8996 229.702 111.937C242.396 125.975 251.104 143.152 254.924 161.689C258.35 178.317 257.731 195.496 253.156 211.787C252.285 214.89 248.952 216.516 245.901 215.475C242.851 214.434 241.241 211.122 242.091 208.013C246.006 193.698 246.499 178.633 243.493 164.045C240.093 147.547 232.343 132.259 221.045 119.765C209.747 107.272 195.313 98.0277 179.24 92.9913C163.166 87.9548 146.038 87.3094 129.631 91.1219C113.224 94.9345 98.1352 103.066 85.9293 114.674C73.7233 126.282 64.8445 140.943 60.2131 157.138C55.5818 173.333 55.3666 190.472 59.5899 206.779C63.3245 221.198 70.4096 234.502 80.2353 245.624C82.3692 248.039 82.3843 251.723 80.1054 254.002Z" fill="#E5CAFF"/>
<path d="M115.748 167.561H118.162C119.227 167.561 120.028 167.72 120.564 168.039C121.101 168.358 121.369 168.9 121.369 169.666C121.369 169.997 121.305 170.294 121.176 170.558C121.052 170.819 120.869 171.034 120.628 171.205C120.387 171.376 120.09 171.495 119.736 171.561V171.619C120.109 171.678 120.44 171.785 120.727 171.94C121.015 172.096 121.241 172.313 121.404 172.593C121.567 172.873 121.649 173.229 121.649 173.66C121.649 174.185 121.526 174.628 121.281 174.99C121.04 175.351 120.698 175.625 120.255 175.812C119.812 175.995 119.287 176.086 118.681 176.086H115.748V167.561ZM116.739 171.217H118.372C119.114 171.217 119.627 171.095 119.911 170.85C120.199 170.605 120.343 170.247 120.343 169.777C120.343 169.291 120.172 168.941 119.829 168.727C119.491 168.514 118.951 168.407 118.208 168.407H116.739V171.217ZM116.739 172.051V175.24H118.512C119.27 175.24 119.806 175.093 120.121 174.797C120.436 174.498 120.593 174.096 120.593 173.59C120.593 173.268 120.521 172.992 120.378 172.762C120.238 172.533 120.008 172.358 119.69 172.238C119.375 172.113 118.953 172.051 118.424 172.051H116.739ZM125.643 176.203C125.068 176.203 124.561 176.084 124.121 175.847C123.682 175.61 123.34 175.248 123.095 174.762C122.85 174.276 122.728 173.664 122.728 172.926C122.728 172.152 122.856 171.52 123.112 171.031C123.373 170.537 123.731 170.171 124.185 169.934C124.64 169.697 125.157 169.579 125.736 169.579C126.055 169.579 126.362 169.612 126.658 169.678C126.957 169.74 127.202 169.82 127.392 169.917L127.101 170.727C126.906 170.65 126.681 170.58 126.424 170.517C126.172 170.455 125.935 170.424 125.713 170.424C125.27 170.424 124.901 170.519 124.605 170.71C124.314 170.9 124.094 171.18 123.946 171.549C123.802 171.919 123.731 172.374 123.731 172.914C123.731 173.431 123.801 173.872 123.94 174.238C124.084 174.603 124.296 174.883 124.576 175.077C124.86 175.268 125.214 175.363 125.637 175.363C125.975 175.363 126.281 175.328 126.553 175.258C126.825 175.184 127.072 175.099 127.293 175.001V175.864C127.079 175.973 126.84 176.057 126.576 176.115C126.316 176.173 126.005 176.203 125.643 176.203ZM131.031 169.579C131.575 169.579 132.042 169.699 132.431 169.94C132.819 170.181 133.117 170.519 133.323 170.955C133.529 171.386 133.632 171.892 133.632 172.471V173.071H129.218C129.229 173.822 129.416 174.393 129.777 174.786C130.139 175.178 130.648 175.375 131.305 175.375C131.709 175.375 132.067 175.338 132.378 175.264C132.689 175.19 133.012 175.081 133.346 174.937V175.789C133.023 175.932 132.703 176.037 132.384 176.103C132.069 176.17 131.696 176.203 131.264 176.203C130.65 176.203 130.114 176.078 129.655 175.829C129.2 175.577 128.846 175.207 128.594 174.721C128.341 174.236 128.215 173.641 128.215 172.937C128.215 172.249 128.329 171.654 128.559 171.153C128.792 170.648 129.119 170.259 129.538 169.987C129.962 169.715 130.46 169.579 131.031 169.579ZM131.019 170.372C130.502 170.372 130.09 170.541 129.783 170.879C129.476 171.217 129.294 171.689 129.235 172.296H132.617C132.613 171.915 132.553 171.581 132.436 171.293C132.324 171.001 132.151 170.776 131.917 170.617C131.684 170.453 131.385 170.372 131.019 170.372ZM138.915 169.695V170.517H136.011V176.086H135.037V169.695H138.915ZM145.463 172.879C145.463 173.404 145.395 173.872 145.259 174.284C145.123 174.696 144.927 175.044 144.67 175.328C144.414 175.612 144.103 175.829 143.737 175.981C143.376 176.129 142.966 176.203 142.507 176.203C142.079 176.203 141.687 176.129 141.329 175.981C140.975 175.829 140.668 175.612 140.408 175.328C140.151 175.044 139.951 174.696 139.807 174.284C139.667 173.872 139.597 173.404 139.597 172.879C139.597 172.179 139.716 171.584 139.953 171.095C140.19 170.601 140.528 170.226 140.968 169.969C141.411 169.709 141.937 169.579 142.548 169.579C143.131 169.579 143.64 169.709 144.075 169.969C144.515 170.23 144.855 170.607 145.096 171.1C145.341 171.59 145.463 172.183 145.463 172.879ZM140.6 172.879C140.6 173.392 140.668 173.837 140.804 174.214C140.94 174.591 141.15 174.883 141.434 175.089C141.718 175.295 142.083 175.398 142.53 175.398C142.973 175.398 143.337 175.295 143.621 175.089C143.908 174.883 144.12 174.591 144.256 174.214C144.392 173.837 144.46 173.392 144.46 172.879C144.46 172.37 144.392 171.93 144.256 171.561C144.12 171.188 143.91 170.9 143.626 170.698C143.343 170.496 142.975 170.395 142.524 170.395C141.86 170.395 141.372 170.615 141.061 171.054C140.754 171.493 140.6 172.101 140.6 172.879ZM152.764 169.579C153.561 169.579 154.196 169.853 154.671 170.401C155.145 170.949 155.382 171.773 155.382 172.873C155.382 173.6 155.273 174.21 155.056 174.704C154.838 175.198 154.531 175.571 154.134 175.824C153.742 176.076 153.277 176.203 152.741 176.203C152.402 176.203 152.105 176.158 151.848 176.068C151.592 175.979 151.372 175.859 151.19 175.707C151.007 175.555 150.855 175.39 150.735 175.211H150.665C150.676 175.363 150.69 175.546 150.706 175.759C150.725 175.973 150.735 176.16 150.735 176.319V178.943H149.761V169.695H150.56L150.688 170.64H150.735C150.859 170.445 151.011 170.269 151.19 170.109C151.368 169.946 151.586 169.818 151.843 169.724C152.103 169.627 152.41 169.579 152.764 169.579ZM152.595 170.395C152.152 170.395 151.794 170.48 151.522 170.652C151.254 170.823 151.057 171.079 150.933 171.421C150.809 171.759 150.743 172.185 150.735 172.698V172.885C150.735 173.425 150.793 173.882 150.91 174.255C151.03 174.628 151.227 174.912 151.499 175.106C151.775 175.301 152.144 175.398 152.607 175.398C153.003 175.398 153.333 175.291 153.598 175.077C153.862 174.863 154.058 174.566 154.187 174.185C154.319 173.8 154.385 173.359 154.385 172.861C154.385 172.107 154.237 171.509 153.942 171.066C153.65 170.618 153.201 170.395 152.595 170.395ZM157.755 169.695V173.713C157.755 173.79 157.754 173.892 157.75 174.016C157.746 174.136 157.74 174.267 157.732 174.407C157.724 174.543 157.717 174.675 157.709 174.803C157.705 174.928 157.699 175.031 157.691 175.112L161.178 169.695H162.368V176.086H161.464V172.168C161.464 172.043 161.466 171.884 161.47 171.689C161.474 171.495 161.479 171.305 161.487 171.118C161.495 170.928 161.501 170.78 161.505 170.675L158.03 176.086H156.834V169.695H157.755ZM166.747 176.203C166.172 176.203 165.664 176.084 165.225 175.847C164.786 175.61 164.444 175.248 164.199 174.762C163.954 174.276 163.832 173.664 163.832 172.926C163.832 172.152 163.96 171.52 164.216 171.031C164.477 170.537 164.834 170.171 165.289 169.934C165.744 169.697 166.261 169.579 166.84 169.579C167.159 169.579 167.466 169.612 167.762 169.678C168.061 169.74 168.306 169.82 168.496 169.917L168.205 170.727C168.01 170.65 167.785 170.58 167.528 170.517C167.276 170.455 167.039 170.424 166.817 170.424C166.374 170.424 166.005 170.519 165.709 170.71C165.418 170.9 165.198 171.18 165.05 171.549C164.906 171.919 164.834 172.374 164.834 172.914C164.834 173.431 164.904 173.872 165.044 174.238C165.188 174.603 165.4 174.883 165.68 175.077C165.964 175.268 166.317 175.363 166.741 175.363C167.079 175.363 167.385 175.328 167.657 175.258C167.929 175.184 168.176 175.099 168.397 175.001V175.864C168.183 175.973 167.944 176.057 167.68 176.115C167.419 176.173 167.109 176.203 166.747 176.203ZM173.4 169.695H174.467L171.709 172.78L174.689 176.086H173.552L170.648 172.844V176.086H169.674V169.695H170.648V172.797L173.4 169.695ZM181.115 172.879C181.115 173.404 181.047 173.872 180.911 174.284C180.775 174.696 180.578 175.044 180.322 175.328C180.065 175.612 179.754 175.829 179.389 175.981C179.027 176.129 178.617 176.203 178.159 176.203C177.731 176.203 177.338 176.129 176.981 175.981C176.627 175.829 176.32 175.612 176.059 175.328C175.803 175.044 175.603 174.696 175.459 174.284C175.319 173.872 175.249 173.404 175.249 172.879C175.249 172.179 175.368 171.584 175.605 171.095C175.842 170.601 176.18 170.226 176.619 169.969C177.062 169.709 177.589 169.579 178.199 169.579C178.782 169.579 179.292 169.709 179.727 169.969C180.166 170.23 180.507 170.607 180.748 171.1C180.992 171.59 181.115 172.183 181.115 172.879ZM176.252 172.879C176.252 173.392 176.32 173.837 176.456 174.214C176.592 174.591 176.802 174.883 177.086 175.089C177.369 175.295 177.735 175.398 178.182 175.398C178.625 175.398 178.989 175.295 179.272 175.089C179.56 174.883 179.772 174.591 179.908 174.214C180.044 173.837 180.112 173.392 180.112 172.879C180.112 172.37 180.044 171.93 179.908 171.561C179.772 171.188 179.562 170.9 179.278 170.698C178.994 170.496 178.627 170.395 178.176 170.395C177.511 170.395 177.024 170.615 176.713 171.054C176.405 171.493 176.252 172.101 176.252 172.879ZM187.628 171.299C187.628 171.699 187.512 172.012 187.278 172.238C187.045 172.459 186.744 172.609 186.375 172.687V172.733C186.775 172.788 187.119 172.931 187.407 173.165C187.698 173.394 187.844 173.746 187.844 174.22C187.844 174.585 187.757 174.908 187.582 175.188C187.407 175.468 187.133 175.687 186.759 175.847C186.386 176.006 185.9 176.086 185.302 176.086H182.55V169.695H185.278C185.737 169.695 186.141 169.748 186.491 169.853C186.845 169.954 187.123 170.121 187.325 170.354C187.527 170.587 187.628 170.902 187.628 171.299ZM186.835 174.22C186.835 173.843 186.691 173.571 186.404 173.404C186.12 173.237 185.706 173.153 185.162 173.153H183.523V175.299H185.185C185.722 175.299 186.13 175.217 186.41 175.054C186.693 174.887 186.835 174.609 186.835 174.22ZM186.643 171.41C186.643 171.106 186.532 170.881 186.31 170.733C186.089 170.582 185.725 170.506 185.22 170.506H183.523V172.342H185.051C185.576 172.342 185.972 172.267 186.24 172.115C186.509 171.963 186.643 171.728 186.643 171.41Z" fill="#5F5B70"/>
<path d="M129.003 199.875H126.71V190.73C126.71 190.426 126.713 190.121 126.719 189.817C126.726 189.512 126.732 189.214 126.739 188.923C126.752 188.631 126.768 188.352 126.787 188.087C126.651 188.236 126.483 188.398 126.282 188.573C126.088 188.748 125.88 188.929 125.66 189.117L124.027 190.419L122.881 188.971L127.098 185.667H129.003V199.875ZM138.071 185.473C138.893 185.473 139.635 185.602 140.296 185.861C140.957 186.114 141.482 186.493 141.87 186.998C142.259 187.504 142.453 188.129 142.453 188.874C142.453 189.451 142.334 189.953 142.094 190.38C141.861 190.808 141.543 191.184 141.141 191.508C140.74 191.825 140.289 192.107 139.791 192.353C140.348 192.625 140.86 192.939 141.326 193.296C141.799 193.646 142.178 194.057 142.463 194.53C142.755 195.003 142.9 195.557 142.9 196.192C142.9 196.989 142.696 197.679 142.288 198.262C141.887 198.838 141.326 199.285 140.607 199.603C139.888 199.914 139.049 200.069 138.09 200.069C137.06 200.069 136.182 199.917 135.456 199.613C134.731 199.308 134.18 198.874 133.804 198.31C133.428 197.74 133.241 197.06 133.241 196.27C133.241 195.615 133.37 195.048 133.629 194.569C133.888 194.089 134.235 193.675 134.669 193.325C135.11 192.975 135.592 192.68 136.117 192.441C135.67 192.175 135.262 191.877 134.893 191.546C134.523 191.21 134.229 190.824 134.008 190.39C133.794 189.949 133.688 189.441 133.688 188.864C133.688 188.126 133.885 187.507 134.28 187.008C134.676 186.503 135.204 186.12 135.864 185.861C136.532 185.602 137.267 185.473 138.071 185.473ZM135.417 196.182C135.417 196.804 135.638 197.316 136.078 197.718C136.519 198.119 137.176 198.32 138.051 198.32C138.919 198.32 139.58 198.122 140.034 197.727C140.487 197.332 140.714 196.811 140.714 196.163C140.714 195.748 140.597 195.382 140.364 195.064C140.137 194.747 139.83 194.465 139.441 194.219C139.059 193.966 138.634 193.733 138.168 193.519L137.857 193.393C137.351 193.607 136.917 193.85 136.554 194.122C136.192 194.387 135.91 194.689 135.709 195.026C135.515 195.363 135.417 195.748 135.417 196.182ZM138.051 187.232C137.423 187.232 136.904 187.387 136.496 187.698C136.094 188.003 135.894 188.443 135.894 189.02C135.894 189.428 135.991 189.778 136.185 190.069C136.386 190.361 136.655 190.614 136.992 190.827C137.329 191.035 137.701 191.229 138.109 191.41C138.505 191.236 138.861 191.044 139.178 190.837C139.502 190.623 139.758 190.371 139.946 190.079C140.14 189.781 140.238 189.425 140.238 189.01C140.238 188.44 140.034 188.003 139.625 187.698C139.224 187.387 138.699 187.232 138.051 187.232ZM155.758 185.667L150.462 199.875H148.324L153.62 185.667H155.758ZM170.269 188.913C170.269 189.554 170.139 190.111 169.88 190.584C169.621 191.057 169.264 191.446 168.811 191.751C168.364 192.049 167.845 192.262 167.256 192.392V192.46C168.39 192.603 169.245 192.959 169.821 193.529C170.405 194.099 170.696 194.854 170.696 195.793C170.696 196.616 170.499 197.352 170.103 197.999C169.708 198.641 169.102 199.146 168.286 199.515C167.47 199.885 166.42 200.069 165.137 200.069C164.366 200.069 163.65 200.008 162.99 199.885C162.335 199.762 161.713 199.564 161.124 199.292V197.261C161.726 197.559 162.368 197.789 163.048 197.951C163.728 198.113 164.373 198.194 164.982 198.194C166.167 198.194 167.013 197.973 167.518 197.533C168.024 197.086 168.276 196.47 168.276 195.686C168.276 195.181 168.143 194.766 167.878 194.443C167.619 194.119 167.214 193.876 166.663 193.714C166.119 193.552 165.416 193.471 164.554 193.471H163.301V191.634H164.564C165.387 191.634 166.048 191.537 166.546 191.342C167.045 191.142 167.405 190.866 167.625 190.516C167.852 190.166 167.965 189.758 167.965 189.292C167.965 188.683 167.768 188.21 167.372 187.873C166.977 187.53 166.391 187.358 165.613 187.358C165.134 187.358 164.697 187.413 164.302 187.523C163.913 187.633 163.553 187.773 163.223 187.941C162.892 188.109 162.578 188.291 162.28 188.485L161.182 186.901C161.72 186.499 162.361 186.159 163.106 185.881C163.851 185.602 164.719 185.463 165.711 185.463C167.168 185.463 168.292 185.777 169.083 186.406C169.873 187.028 170.269 187.863 170.269 188.913ZM181.26 188.913C181.26 189.554 181.131 190.111 180.871 190.584C180.612 191.057 180.256 191.446 179.802 191.751C179.355 192.049 178.837 192.262 178.248 192.392V192.46C179.381 192.603 180.237 192.959 180.813 193.529C181.396 194.099 181.688 194.854 181.688 195.793C181.688 196.616 181.49 197.352 181.095 197.999C180.7 198.641 180.094 199.146 179.278 199.515C178.461 199.885 177.412 200.069 176.129 200.069C175.358 200.069 174.642 200.008 173.981 199.885C173.327 199.762 172.705 199.564 172.115 199.292V197.261C172.718 197.559 173.359 197.789 174.04 197.951C174.72 198.113 175.364 198.194 175.974 198.194C177.159 198.194 178.005 197.973 178.51 197.533C179.015 197.086 179.268 196.47 179.268 195.686C179.268 195.181 179.135 194.766 178.87 194.443C178.61 194.119 178.205 193.876 177.655 193.714C177.111 193.552 176.408 193.471 175.546 193.471H174.292V191.634H175.556C176.378 191.634 177.039 191.537 177.538 191.342C178.037 191.142 178.397 190.866 178.617 190.516C178.844 190.166 178.957 189.758 178.957 189.292C178.957 188.683 178.759 188.21 178.364 187.873C177.969 187.53 177.383 187.358 176.605 187.358C176.126 187.358 175.688 187.413 175.293 187.523C174.904 187.633 174.545 187.773 174.215 187.941C173.884 188.109 173.57 188.291 173.272 188.485L172.174 186.901C172.711 186.499 173.353 186.159 174.098 185.881C174.843 185.602 175.711 185.463 176.702 185.463C178.16 185.463 179.284 185.777 180.075 186.406C180.865 187.028 181.26 187.863 181.26 188.913Z" fill="#0D0628"/>
<rect x="49.5" y="288.523" width="9.95146" height="9.95146" rx="3.98058" fill="#8C26EA"/>
<path d="M72.6989 298H71.4977L67.5793 293.673V298H66.5881V289.475H67.5793V293.603L71.3986 289.475H72.5356L68.763 293.615L72.6989 298ZM76.495 291.493C77.2919 291.493 77.9275 291.767 78.4018 292.315C78.876 292.863 79.1131 293.687 79.1131 294.787C79.1131 295.514 79.0043 296.124 78.7866 296.618C78.5689 297.112 78.2618 297.485 77.8653 297.738C77.4727 297.99 77.0082 298.117 76.4717 298.117C76.1335 298.117 75.8362 298.072 75.5796 297.983C75.323 297.893 75.1034 297.773 74.9207 297.621C74.738 297.469 74.5864 297.304 74.4659 297.125H74.3959C74.4076 297.277 74.4212 297.46 74.4367 297.673C74.4562 297.887 74.4659 298.074 74.4659 298.233V300.857H73.4921V291.609H74.291L74.4192 292.554H74.4659C74.5903 292.36 74.7419 292.183 74.9207 292.023C75.0995 291.86 75.3172 291.732 75.5738 291.638C75.8342 291.541 76.1413 291.493 76.495 291.493ZM76.326 292.309C75.8828 292.309 75.5252 292.395 75.2531 292.566C74.9848 292.737 74.7885 292.993 74.6641 293.335C74.5397 293.673 74.4737 294.099 74.4659 294.612V294.799C74.4659 295.339 74.5242 295.796 74.6408 296.169C74.7613 296.542 74.9576 296.826 75.2297 297.02C75.5057 297.215 75.875 297.312 76.3376 297.312C76.7341 297.312 77.0645 297.205 77.3289 296.991C77.5932 296.777 77.7895 296.48 77.9178 296.099C78.05 295.714 78.116 295.273 78.116 294.775C78.116 294.021 77.9683 293.423 77.6729 292.98C77.3813 292.533 76.9324 292.309 76.326 292.309ZM81.4866 291.609V295.627C81.4866 295.705 81.4846 295.806 81.4807 295.93C81.4768 296.051 81.471 296.181 81.4632 296.321C81.4555 296.457 81.4477 296.589 81.4399 296.717C81.436 296.842 81.4302 296.945 81.4224 297.026L84.9093 291.609H86.0988V298H85.195V294.082C85.195 293.957 85.197 293.798 85.2009 293.603C85.2047 293.409 85.2106 293.219 85.2184 293.032C85.2261 292.842 85.232 292.694 85.2358 292.589L81.7606 298H80.5653V291.609H81.4866ZM92.274 292.431H90.169V298H89.2128V292.431H87.137V291.609H92.274V292.431ZM94.2218 291.609V295.627C94.2218 295.705 94.2198 295.806 94.2159 295.93C94.2121 296.051 94.2062 296.181 94.1985 296.321C94.1907 296.457 94.1829 296.589 94.1751 296.717C94.1712 296.842 94.1654 296.945 94.1576 297.026L97.6445 291.609H98.834V298H97.9303V294.082C97.9303 293.957 97.9322 293.798 97.9361 293.603C97.94 293.409 97.9458 293.219 97.9536 293.032C97.9613 292.842 97.9672 292.694 97.9711 292.589L94.4958 298H93.3005V291.609H94.2218ZM101.499 291.609V293.907C101.499 294.307 101.608 294.603 101.826 294.793C102.047 294.983 102.368 295.079 102.788 295.079C103.192 295.079 103.559 295.017 103.89 294.892C104.22 294.768 104.554 294.599 104.893 294.385V291.609H105.861V298H104.893V295.137C104.535 295.366 104.183 295.547 103.837 295.679C103.491 295.811 103.077 295.878 102.595 295.878C101.938 295.878 101.429 295.707 101.068 295.364C100.71 295.022 100.531 294.56 100.531 293.977V291.609H101.499ZM110.129 291.493C110.673 291.493 111.14 291.613 111.528 291.854C111.917 292.095 112.215 292.433 112.421 292.869C112.627 293.3 112.73 293.806 112.73 294.385V294.985H108.316C108.327 295.736 108.514 296.307 108.875 296.7C109.237 297.092 109.746 297.289 110.403 297.289C110.807 297.289 111.165 297.252 111.476 297.178C111.787 297.104 112.11 296.995 112.444 296.851V297.703C112.121 297.846 111.801 297.951 111.482 298.017C111.167 298.084 110.794 298.117 110.362 298.117C109.748 298.117 109.212 297.992 108.753 297.743C108.298 297.491 107.944 297.121 107.692 296.636C107.439 296.15 107.313 295.555 107.313 294.851C107.313 294.163 107.427 293.568 107.657 293.067C107.89 292.562 108.216 292.173 108.636 291.901C109.06 291.629 109.558 291.493 110.129 291.493ZM110.117 292.286C109.6 292.286 109.188 292.455 108.881 292.793C108.574 293.131 108.391 293.603 108.333 294.21H111.715C111.711 293.829 111.651 293.495 111.534 293.207C111.422 292.915 111.249 292.69 111.015 292.531C110.782 292.367 110.483 292.286 110.117 292.286ZM116.695 298.117C116.12 298.117 115.612 297.998 115.173 297.761C114.734 297.524 114.392 297.162 114.147 296.676C113.902 296.19 113.779 295.578 113.779 294.84C113.779 294.066 113.908 293.434 114.164 292.945C114.425 292.451 114.782 292.085 115.237 291.848C115.692 291.611 116.209 291.493 116.788 291.493C117.107 291.493 117.414 291.526 117.709 291.592C118.009 291.654 118.254 291.734 118.444 291.831L118.153 292.641C117.958 292.564 117.733 292.494 117.476 292.431C117.224 292.369 116.986 292.338 116.765 292.338C116.322 292.338 115.952 292.433 115.657 292.624C115.365 292.814 115.146 293.094 114.998 293.464C114.854 293.833 114.782 294.288 114.782 294.828C114.782 295.345 114.852 295.786 114.992 296.152C115.136 296.517 115.348 296.797 115.628 296.991C115.912 297.182 116.265 297.277 116.689 297.277C117.027 297.277 117.332 297.242 117.605 297.172C117.877 297.098 118.123 297.013 118.345 296.915V297.778C118.131 297.887 117.892 297.971 117.628 298.029C117.367 298.087 117.056 298.117 116.695 298.117ZM123.348 291.609H124.415L121.657 294.694L124.637 298H123.5L120.596 294.758V298H119.622V291.609H120.596V294.711L123.348 291.609ZM126.474 291.609V295.627C126.474 295.705 126.472 295.806 126.468 295.93C126.464 296.051 126.458 296.181 126.451 296.321C126.443 296.457 126.435 296.589 126.427 296.717C126.423 296.842 126.417 296.945 126.41 297.026L129.897 291.609H131.086V298H130.182V294.082C130.182 293.957 130.184 293.798 130.188 293.603C130.192 293.409 130.198 293.219 130.206 293.032C130.213 292.842 130.219 292.694 130.223 292.589L126.748 298H125.553V291.609H126.474ZM134.427 294.729L132.218 291.609H133.325L135.011 294.07L136.69 291.609H137.786L135.576 294.729L137.909 298H136.801L135.011 295.394L133.209 298H132.113L134.427 294.729ZM144.784 291.493C145.581 291.493 146.216 291.767 146.69 292.315C147.165 292.863 147.402 293.687 147.402 294.787C147.402 295.514 147.293 296.124 147.075 296.618C146.858 297.112 146.55 297.485 146.154 297.738C145.761 297.99 145.297 298.117 144.76 298.117C144.422 298.117 144.125 298.072 143.868 297.983C143.612 297.893 143.392 297.773 143.209 297.621C143.027 297.469 142.875 297.304 142.754 297.125H142.685C142.696 297.277 142.71 297.46 142.725 297.673C142.745 297.887 142.754 298.074 142.754 298.233V300.857H141.781V291.609H142.58L142.708 292.554H142.754C142.879 292.36 143.03 292.183 143.209 292.023C143.388 291.86 143.606 291.732 143.862 291.638C144.123 291.541 144.43 291.493 144.784 291.493ZM144.615 292.309C144.171 292.309 143.814 292.395 143.542 292.566C143.273 292.737 143.077 292.993 142.953 293.335C142.828 293.673 142.762 294.099 142.754 294.612V294.799C142.754 295.339 142.813 295.796 142.929 296.169C143.05 296.542 143.246 296.826 143.518 297.02C143.794 297.215 144.164 297.312 144.626 297.312C145.023 297.312 145.353 297.205 145.617 296.991C145.882 296.777 146.078 296.48 146.206 296.099C146.339 295.714 146.405 295.273 146.405 294.775C146.405 294.021 146.257 293.423 145.961 292.98C145.67 292.533 145.221 292.309 144.615 292.309ZM149.775 291.609V295.627C149.775 295.705 149.773 295.806 149.769 295.93C149.765 296.051 149.76 296.181 149.752 296.321C149.744 296.457 149.736 296.589 149.729 296.717C149.725 296.842 149.719 296.945 149.711 297.026L153.198 291.609H154.387V298H153.484V294.082C153.484 293.957 153.486 293.798 153.489 293.603C153.493 293.409 153.499 293.219 153.507 293.032C153.515 292.842 153.521 292.694 153.524 292.589L150.049 298H148.854V291.609H149.775ZM158.767 298.117C158.191 298.117 157.684 297.998 157.245 297.761C156.806 297.524 156.463 297.162 156.219 296.676C155.974 296.19 155.851 295.578 155.851 294.84C155.851 294.066 155.98 293.434 156.236 292.945C156.497 292.451 156.854 292.085 157.309 291.848C157.764 291.611 158.281 291.493 158.86 291.493C159.179 291.493 159.486 291.526 159.781 291.592C160.081 291.654 160.325 291.734 160.516 291.831L160.224 292.641C160.03 292.564 159.805 292.494 159.548 292.431C159.295 292.369 159.058 292.338 158.837 292.338C158.394 292.338 158.024 292.433 157.729 292.624C157.437 292.814 157.218 293.094 157.07 293.464C156.926 293.833 156.854 294.288 156.854 294.828C156.854 295.345 156.924 295.786 157.064 296.152C157.208 296.517 157.42 296.797 157.7 296.991C157.983 297.182 158.337 297.277 158.761 297.277C159.099 297.277 159.404 297.242 159.676 297.172C159.948 297.098 160.195 297.013 160.417 296.915V297.778C160.203 297.887 159.964 297.971 159.7 298.029C159.439 298.087 159.128 298.117 158.767 298.117ZM165.42 291.609H166.487L163.729 294.694L166.709 298H165.572L162.668 294.758V298H161.694V291.609H162.668V294.711L165.42 291.609ZM173.135 294.793C173.135 295.318 173.067 295.786 172.93 296.198C172.794 296.61 172.598 296.958 172.342 297.242C172.085 297.526 171.774 297.743 171.409 297.895C171.047 298.043 170.637 298.117 170.178 298.117C169.751 298.117 169.358 298.043 169 297.895C168.647 297.743 168.34 297.526 168.079 297.242C167.823 296.958 167.622 296.61 167.479 296.198C167.339 295.786 167.269 295.318 167.269 294.793C167.269 294.093 167.387 293.499 167.624 293.009C167.861 292.515 168.2 292.14 168.639 291.883C169.082 291.623 169.609 291.493 170.219 291.493C170.802 291.493 171.311 291.623 171.747 291.883C172.186 292.144 172.526 292.521 172.767 293.015C173.012 293.504 173.135 294.097 173.135 294.793ZM168.272 294.793C168.272 295.306 168.34 295.751 168.476 296.128C168.612 296.505 168.822 296.797 169.105 297.003C169.389 297.209 169.755 297.312 170.202 297.312C170.645 297.312 171.008 297.209 171.292 297.003C171.58 296.797 171.792 296.505 171.928 296.128C172.064 295.751 172.132 295.306 172.132 294.793C172.132 294.284 172.064 293.844 171.928 293.475C171.792 293.102 171.582 292.814 171.298 292.612C171.014 292.41 170.647 292.309 170.196 292.309C169.531 292.309 169.043 292.529 168.732 292.968C168.425 293.407 168.272 294.016 168.272 294.793ZM179.648 293.213C179.648 293.613 179.531 293.926 179.298 294.152C179.065 294.373 178.764 294.523 178.394 294.601V294.647C178.795 294.702 179.139 294.845 179.426 295.079C179.718 295.308 179.864 295.66 179.864 296.134C179.864 296.5 179.776 296.822 179.601 297.102C179.426 297.382 179.152 297.602 178.779 297.761C178.406 297.92 177.92 298 177.321 298H174.569V291.609H177.298C177.757 291.609 178.161 291.662 178.511 291.767C178.865 291.868 179.143 292.035 179.345 292.268C179.547 292.501 179.648 292.816 179.648 293.213ZM178.855 296.134C178.855 295.757 178.711 295.485 178.423 295.318C178.14 295.151 177.726 295.067 177.181 295.067H175.543V297.213H177.205C177.741 297.213 178.149 297.131 178.429 296.968C178.713 296.801 178.855 296.523 178.855 296.134ZM178.663 293.324C178.663 293.02 178.552 292.795 178.33 292.647C178.109 292.496 177.745 292.42 177.24 292.42H175.543V294.257H177.071C177.595 294.257 177.992 294.181 178.26 294.029C178.528 293.878 178.663 293.642 178.663 293.324Z" fill="#5F5B70"/>
<path d="M225.01 298L228.357 290.676H223.931V289.475H229.832V290.414L226.485 298H225.01ZM237.524 289.475L234.346 298H233.063L236.241 289.475H237.524ZM244.813 298H243.437V292.513C243.437 292.33 243.439 292.148 243.443 291.965C243.447 291.782 243.45 291.603 243.454 291.429C243.462 291.254 243.472 291.086 243.484 290.927C243.402 291.016 243.301 291.114 243.18 291.219C243.064 291.324 242.939 291.432 242.807 291.545L241.828 292.327L241.14 291.458L243.67 289.475H244.813V298ZM253.151 298H247.379V296.968L249.589 294.729C250.016 294.293 250.368 293.918 250.644 293.603C250.92 293.285 251.124 292.983 251.256 292.7C251.392 292.416 251.46 292.107 251.46 291.773C251.46 291.361 251.342 291.05 251.105 290.84C250.868 290.626 250.555 290.519 250.166 290.519C249.797 290.519 249.455 290.593 249.14 290.74C248.829 290.884 248.506 291.09 248.172 291.359L247.42 290.455C247.657 290.253 247.909 290.068 248.178 289.901C248.45 289.734 248.753 289.602 249.087 289.504C249.422 289.403 249.803 289.353 250.23 289.353C250.77 289.353 251.237 289.45 251.63 289.644C252.022 289.835 252.323 290.101 252.533 290.443C252.747 290.785 252.854 291.184 252.854 291.638C252.854 292.097 252.763 292.521 252.58 292.91C252.397 293.298 252.137 293.683 251.799 294.064C251.46 294.441 251.058 294.851 250.592 295.294L249.116 296.735V296.799H253.151V298Z" fill="#0D0628"/>
<line x1="49.5" y1="309.712" x2="254.5" y2="309.712" stroke="#C6D3D6" stroke-width="0.497573"/>
<rect x="49.5" y="321.445" width="9.95146" height="9.95146" rx="3.98058" fill="#BF79FF"/>
<path d="M70.2324 323.149C69.762 323.149 69.3383 323.231 68.9613 323.394C68.5881 323.554 68.2693 323.787 68.005 324.094C67.7445 324.397 67.5443 324.764 67.4044 325.196C67.2644 325.627 67.1945 326.113 67.1945 326.654C67.1945 327.369 67.3053 327.991 67.5268 328.52C67.7523 329.044 68.0866 329.451 68.5298 329.738C68.9768 330.026 69.5346 330.17 70.2032 330.17C70.5842 330.17 70.9418 330.139 71.2761 330.076C71.6143 330.01 71.9428 329.929 72.2616 329.831V330.694C71.9506 330.811 71.624 330.897 71.282 330.951C70.9399 331.009 70.5337 331.038 70.0633 331.038C69.1964 331.038 68.4715 330.86 67.8884 330.502C67.3092 330.141 66.8738 329.631 66.5822 328.974C66.2946 328.317 66.1507 327.542 66.1507 326.648C66.1507 326.003 66.2401 325.414 66.419 324.881C66.6017 324.345 66.866 323.882 67.212 323.493C67.5618 323.105 67.9894 322.805 68.4948 322.595C69.004 322.382 69.5871 322.275 70.2441 322.275C70.6755 322.275 71.0915 322.317 71.4919 322.403C71.8923 322.488 72.2538 322.611 72.5764 322.77L72.1799 323.61C71.9078 323.485 71.6085 323.379 71.282 323.289C70.9593 323.196 70.6095 323.149 70.2324 323.149ZM72.7166 324.531H73.7545L75.1656 328.24C75.2472 328.457 75.323 328.667 75.393 328.869C75.463 329.068 75.5252 329.258 75.5796 329.441C75.634 329.624 75.6768 329.8 75.7079 329.971H75.7487C75.8031 329.777 75.8809 329.522 75.9819 329.208C76.083 328.889 76.1918 328.564 76.3085 328.234L77.6437 324.531H78.6875L75.9061 331.861C75.7584 332.253 75.5854 332.595 75.3872 332.887C75.1928 333.178 74.9557 333.402 74.6758 333.557C74.3959 333.717 74.0577 333.797 73.6612 333.797C73.4785 333.797 73.3172 333.785 73.1772 333.762C73.0373 333.742 72.9168 333.719 72.8157 333.692V332.916C72.9012 332.935 73.0043 332.953 73.1248 332.969C73.2492 332.984 73.3774 332.992 73.5096 332.992C73.7506 332.992 73.9586 332.945 74.1335 332.852C74.3123 332.763 74.4659 332.63 74.5942 332.455C74.7224 332.28 74.8332 332.073 74.9265 331.832L75.2764 330.934L72.7166 324.531ZM88.0347 324.531V330.111H88.9502V333.12H87.9764V330.922H79.4691V324.531H80.437V330.1H83.265V324.531H84.2388V330.1H87.0726V324.531H88.0347ZM92.4081 324.415C92.9523 324.415 93.4188 324.535 93.8075 324.776C94.1963 325.017 94.4937 325.355 94.6997 325.791C94.9057 326.222 95.0087 326.727 95.0087 327.307V327.907H90.5947C90.6064 328.658 90.793 329.229 91.1545 329.622C91.516 330.014 92.0252 330.211 92.6822 330.211C93.0865 330.211 93.4441 330.174 93.7551 330.1C94.0661 330.026 94.3887 329.917 94.723 329.773V330.624C94.4004 330.768 94.0797 330.873 93.7609 330.939C93.446 331.005 93.0729 331.038 92.6414 331.038C92.0272 331.038 91.4907 330.914 91.032 330.665C90.5772 330.413 90.2235 330.043 89.9708 329.557C89.7181 329.072 89.5918 328.477 89.5918 327.773C89.5918 327.085 89.7065 326.49 89.9358 325.989C90.169 325.484 90.4956 325.095 90.9154 324.823C91.3391 324.551 91.8367 324.415 92.4081 324.415ZM92.3965 325.208C91.8795 325.208 91.4674 325.377 91.1603 325.715C90.8532 326.053 90.6705 326.525 90.6122 327.132H93.9941C93.9903 326.751 93.93 326.417 93.8134 326.129C93.7006 325.837 93.5277 325.612 93.2944 325.452C93.0612 325.289 92.7619 325.208 92.3965 325.208ZM98.974 331.038C98.3987 331.038 97.8914 330.92 97.4521 330.683C97.0129 330.446 96.6708 330.084 96.4259 329.598C96.181 329.112 96.0585 328.5 96.0585 327.762C96.0585 326.988 96.1868 326.356 96.4434 325.866C96.7038 325.373 97.0614 325.007 97.5163 324.77C97.9711 324.533 98.4881 324.415 99.0673 324.415C99.386 324.415 99.6931 324.448 99.9886 324.514C100.288 324.576 100.533 324.656 100.723 324.753L100.432 325.563C100.237 325.486 100.012 325.416 99.7553 325.353C99.5027 325.291 99.2655 325.26 99.044 325.26C98.6008 325.26 98.2315 325.355 97.9361 325.546C97.6445 325.736 97.4249 326.016 97.2772 326.385C97.1334 326.755 97.0614 327.21 97.0614 327.75C97.0614 328.267 97.1314 328.708 97.2714 329.073C97.4152 329.439 97.627 329.719 97.9069 329.913C98.1907 330.104 98.5444 330.199 98.9682 330.199C99.3064 330.199 99.6115 330.164 99.8836 330.094C100.156 330.02 100.403 329.935 100.624 329.837V330.7C100.41 330.809 100.171 330.893 99.9069 330.951C99.6465 331.009 99.3355 331.038 98.974 331.038ZM106.257 325.353H104.152V330.922H103.196V325.353H101.12V324.531H106.257V325.353ZM112.362 326.135C112.362 326.535 112.246 326.848 112.012 327.073C111.779 327.295 111.478 327.445 111.109 327.522V327.569C111.509 327.624 111.853 327.767 112.141 328.001C112.432 328.23 112.578 328.582 112.578 329.056C112.578 329.421 112.491 329.744 112.316 330.024C112.141 330.304 111.867 330.523 111.493 330.683C111.12 330.842 110.634 330.922 110.036 330.922H107.284V324.531H110.012C110.471 324.531 110.875 324.584 111.225 324.689C111.579 324.79 111.857 324.957 112.059 325.19C112.261 325.423 112.362 325.738 112.362 326.135ZM111.569 329.056C111.569 328.679 111.425 328.407 111.138 328.24C110.854 328.072 110.44 327.989 109.896 327.989H108.257V330.135H109.919C110.456 330.135 110.864 330.053 111.144 329.89C111.427 329.723 111.569 329.445 111.569 329.056ZM111.377 326.245C111.377 325.942 111.266 325.717 111.044 325.569C110.823 325.417 110.459 325.342 109.954 325.342H108.257V327.178H109.785C110.31 327.178 110.706 327.103 110.975 326.951C111.243 326.799 111.377 326.564 111.377 326.245ZM116.363 324.415C116.907 324.415 117.373 324.535 117.762 324.776C118.151 325.017 118.448 325.355 118.654 325.791C118.86 326.222 118.963 326.727 118.963 327.307V327.907H114.549C114.561 328.658 114.747 329.229 115.109 329.622C115.47 330.014 115.98 330.211 116.637 330.211C117.041 330.211 117.398 330.174 117.709 330.1C118.02 330.026 118.343 329.917 118.677 329.773V330.624C118.355 330.768 118.034 330.873 117.715 330.939C117.4 331.005 117.027 331.038 116.596 331.038C115.982 331.038 115.445 330.914 114.986 330.665C114.532 330.413 114.178 330.043 113.925 329.557C113.673 329.072 113.546 328.477 113.546 327.773C113.546 327.085 113.661 326.49 113.89 325.989C114.123 325.484 114.45 325.095 114.87 324.823C115.294 324.551 115.791 324.415 116.363 324.415ZM116.351 325.208C115.834 325.208 115.422 325.377 115.115 325.715C114.808 326.053 114.625 326.525 114.567 327.132H117.949C117.945 326.751 117.884 326.417 117.768 326.129C117.655 325.837 117.482 325.612 117.249 325.452C117.016 325.289 116.716 325.208 116.351 325.208ZM121.342 324.531V327.213H124.905V324.531H125.873V330.922H124.905V328.036H121.342V330.922H120.369V324.531H121.342ZM128.66 324.531V327.213H132.223V324.531H133.191V330.922H132.223V328.036H128.66V330.922H127.687V324.531H128.66ZM135.005 330.922V324.531H135.978V327.167H137.728C138.272 327.167 138.719 327.235 139.069 327.371C139.423 327.507 139.685 327.709 139.856 327.977C140.027 328.245 140.113 328.578 140.113 328.974C140.113 329.371 140.027 329.715 139.856 330.006C139.689 330.298 139.425 330.523 139.063 330.683C138.705 330.842 138.239 330.922 137.664 330.922H135.005ZM135.978 330.135H137.57C138.052 330.135 138.437 330.049 138.725 329.878C139.013 329.707 139.156 329.421 139.156 329.021C139.156 328.628 139.022 328.356 138.754 328.205C138.486 328.049 138.101 327.971 137.599 327.971H135.978V330.135ZM141.168 330.922V324.531H142.136V330.922H141.168ZM145.466 327.651L143.256 324.531H144.364L146.049 326.992L147.728 324.531H148.824L146.614 327.651L148.947 330.922H147.839L146.049 328.315L144.247 330.922H143.151L145.466 327.651ZM155.822 324.415C156.619 324.415 157.254 324.689 157.729 325.237C158.203 325.785 158.44 326.609 158.44 327.709C158.44 328.436 158.331 329.046 158.113 329.54C157.896 330.034 157.589 330.407 157.192 330.659C156.799 330.912 156.335 331.038 155.799 331.038C155.46 331.038 155.163 330.994 154.906 330.904C154.65 330.815 154.43 330.694 154.247 330.543C154.065 330.391 153.913 330.226 153.793 330.047H153.723C153.734 330.199 153.748 330.382 153.764 330.595C153.783 330.809 153.793 330.996 153.793 331.155V333.779H152.819V324.531H153.618L153.746 325.476H153.793C153.917 325.281 154.069 325.105 154.247 324.945C154.426 324.782 154.644 324.654 154.901 324.56C155.161 324.463 155.468 324.415 155.822 324.415ZM155.653 325.231C155.21 325.231 154.852 325.316 154.58 325.487C154.312 325.658 154.115 325.915 153.991 326.257C153.867 326.595 153.8 327.021 153.793 327.534V327.721C153.793 328.261 153.851 328.718 153.968 329.091C154.088 329.464 154.284 329.748 154.557 329.942C154.833 330.137 155.202 330.234 155.664 330.234C156.061 330.234 156.391 330.127 156.656 329.913C156.92 329.699 157.116 329.402 157.245 329.021C157.377 328.636 157.443 328.195 157.443 327.697C157.443 326.943 157.295 326.345 157 325.901C156.708 325.454 156.259 325.231 155.653 325.231ZM160.813 324.531V328.549C160.813 328.626 160.811 328.728 160.808 328.852C160.804 328.972 160.798 329.103 160.79 329.243C160.782 329.379 160.774 329.511 160.767 329.639C160.763 329.763 160.757 329.866 160.749 329.948L164.236 324.531H165.426V330.922H164.522V327.003C164.522 326.879 164.524 326.72 164.528 326.525C164.532 326.331 164.537 326.141 164.545 325.954C164.553 325.763 164.559 325.616 164.563 325.511L161.087 330.922H159.892V324.531H160.813ZM169.805 331.038C169.23 331.038 168.722 330.92 168.283 330.683C167.844 330.446 167.502 330.084 167.257 329.598C167.012 329.112 166.889 328.5 166.889 327.762C166.889 326.988 167.018 326.356 167.274 325.866C167.535 325.373 167.892 325.007 168.347 324.77C168.802 324.533 169.319 324.415 169.898 324.415C170.217 324.415 170.524 324.448 170.819 324.514C171.119 324.576 171.364 324.656 171.554 324.753L171.263 325.563C171.068 325.486 170.843 325.416 170.586 325.353C170.334 325.291 170.096 325.26 169.875 325.26C169.432 325.26 169.062 325.355 168.767 325.546C168.475 325.736 168.256 326.016 168.108 326.385C167.964 326.755 167.892 327.21 167.892 327.75C167.892 328.267 167.962 328.708 168.102 329.073C168.246 329.439 168.458 329.719 168.738 329.913C169.022 330.104 169.375 330.199 169.799 330.199C170.137 330.199 170.442 330.164 170.715 330.094C170.987 330.02 171.233 329.935 171.455 329.837V330.7C171.241 330.809 171.002 330.893 170.738 330.951C170.477 331.009 170.166 331.038 169.805 331.038ZM176.458 324.531H177.525L174.767 327.616L177.747 330.922H176.61L173.706 327.68V330.922H172.732V324.531H173.706V327.633L176.458 324.531ZM184.173 327.715C184.173 328.24 184.105 328.708 183.969 329.12C183.833 329.532 183.636 329.88 183.38 330.164C183.123 330.448 182.812 330.665 182.447 330.817C182.085 330.965 181.675 331.038 181.216 331.038C180.789 331.038 180.396 330.965 180.039 330.817C179.685 330.665 179.378 330.448 179.117 330.164C178.861 329.88 178.661 329.532 178.517 329.12C178.377 328.708 178.307 328.24 178.307 327.715C178.307 327.015 178.425 326.42 178.663 325.931C178.9 325.437 179.238 325.062 179.677 324.805C180.12 324.545 180.647 324.415 181.257 324.415C181.84 324.415 182.35 324.545 182.785 324.805C183.224 325.066 183.564 325.443 183.805 325.936C184.05 326.426 184.173 327.019 184.173 327.715ZM179.31 327.715C179.31 328.228 179.378 328.673 179.514 329.05C179.65 329.427 179.86 329.719 180.144 329.925C180.427 330.131 180.793 330.234 181.24 330.234C181.683 330.234 182.046 330.131 182.33 329.925C182.618 329.719 182.83 329.427 182.966 329.05C183.102 328.673 183.17 328.228 183.17 327.715C183.17 327.206 183.102 326.766 182.966 326.397C182.83 326.024 182.62 325.736 182.336 325.534C182.052 325.332 181.685 325.231 181.234 325.231C180.569 325.231 180.081 325.451 179.77 325.89C179.463 326.329 179.31 326.937 179.31 327.715ZM190.686 326.135C190.686 326.535 190.57 326.848 190.336 327.073C190.103 327.295 189.802 327.445 189.432 327.522V327.569C189.833 327.624 190.177 327.767 190.465 328.001C190.756 328.23 190.902 328.582 190.902 329.056C190.902 329.421 190.814 329.744 190.639 330.024C190.465 330.304 190.191 330.523 189.817 330.683C189.444 330.842 188.958 330.922 188.36 330.922H185.607V324.531H188.336C188.795 324.531 189.199 324.584 189.549 324.689C189.903 324.79 190.181 324.957 190.383 325.19C190.585 325.423 190.686 325.738 190.686 326.135ZM189.893 329.056C189.893 328.679 189.749 328.407 189.462 328.24C189.178 328.072 188.764 327.989 188.22 327.989H186.581V330.135H188.243C188.779 330.135 189.188 330.053 189.467 329.89C189.751 329.723 189.893 329.445 189.893 329.056ZM189.701 326.245C189.701 325.942 189.59 325.717 189.368 325.569C189.147 325.417 188.783 325.342 188.278 325.342H186.581V327.178H188.109C188.634 327.178 189.03 327.103 189.298 326.951C189.567 326.799 189.701 326.564 189.701 326.245Z" fill="#5F5B70"/>
<path d="M229.483 324.345C229.483 324.729 229.405 325.064 229.249 325.348C229.094 325.631 228.88 325.865 228.608 326.047C228.34 326.226 228.029 326.354 227.675 326.432V326.473C228.355 326.558 228.868 326.772 229.214 327.114C229.564 327.456 229.739 327.909 229.739 328.473C229.739 328.967 229.621 329.408 229.383 329.797C229.146 330.181 228.783 330.485 228.293 330.706C227.803 330.928 227.173 331.038 226.404 331.038C225.941 331.038 225.512 331.002 225.115 330.928C224.723 330.854 224.349 330.735 223.996 330.572V329.353C224.357 329.532 224.742 329.67 225.15 329.767C225.558 329.865 225.945 329.913 226.311 329.913C227.022 329.913 227.529 329.781 227.832 329.517C228.136 329.248 228.287 328.879 228.287 328.409C228.287 328.106 228.208 327.857 228.048 327.662C227.893 327.468 227.65 327.322 227.319 327.225C226.993 327.128 226.571 327.079 226.054 327.079H225.302V325.977H226.06C226.553 325.977 226.95 325.919 227.249 325.802C227.549 325.682 227.764 325.517 227.897 325.307C228.033 325.097 228.101 324.852 228.101 324.572C228.101 324.207 227.982 323.923 227.745 323.721C227.508 323.515 227.156 323.412 226.69 323.412C226.402 323.412 226.139 323.445 225.902 323.511C225.669 323.577 225.453 323.66 225.255 323.761C225.057 323.863 224.868 323.971 224.69 324.088L224.031 323.138C224.353 322.897 224.738 322.692 225.185 322.525C225.632 322.358 226.153 322.275 226.748 322.275C227.622 322.275 228.297 322.463 228.771 322.84C229.245 323.213 229.483 323.715 229.483 324.345ZM237.524 322.397L234.346 330.922H233.063L236.241 322.397H237.524ZM244.813 330.922H243.437V325.435C243.437 325.252 243.439 325.07 243.443 324.887C243.447 324.704 243.45 324.525 243.454 324.35C243.462 324.175 243.472 324.008 243.484 323.849C243.402 323.938 243.301 324.036 243.18 324.141C243.064 324.245 242.939 324.354 242.807 324.467L241.828 325.248L241.14 324.38L243.67 322.397H244.813V330.922ZM253.151 326.654C253.151 327.342 253.097 327.958 252.988 328.502C252.883 329.042 252.716 329.501 252.487 329.878C252.257 330.255 251.958 330.543 251.589 330.741C251.219 330.939 250.772 331.038 250.248 331.038C249.591 331.038 249.048 330.866 248.621 330.52C248.193 330.17 247.876 329.668 247.67 329.015C247.464 328.358 247.361 327.571 247.361 326.654C247.361 325.736 247.455 324.951 247.641 324.298C247.832 323.641 248.139 323.138 248.563 322.788C248.986 322.438 249.548 322.263 250.248 322.263C250.908 322.263 251.453 322.438 251.88 322.788C252.312 323.134 252.631 323.635 252.837 324.292C253.046 324.945 253.151 325.732 253.151 326.654ZM248.743 326.654C248.743 327.373 248.79 327.973 248.883 328.455C248.98 328.937 249.14 329.299 249.361 329.54C249.583 329.777 249.878 329.896 250.248 329.896C250.617 329.896 250.912 329.777 251.134 329.54C251.356 329.303 251.515 328.943 251.612 328.461C251.713 327.979 251.764 327.377 251.764 326.654C251.764 325.938 251.715 325.34 251.618 324.858C251.521 324.376 251.361 324.014 251.14 323.773C250.918 323.528 250.621 323.406 250.248 323.406C249.874 323.406 249.577 323.528 249.356 323.773C249.138 324.014 248.98 324.376 248.883 324.858C248.79 325.34 248.743 325.938 248.743 326.654Z" fill="#0D0628"/>
<line x1="49.5" y1="342.634" x2="254.5" y2="342.634" stroke="#C6D3D6" stroke-width="0.497573"/>
<rect x="49.5" y="354.367" width="9.95146" height="9.95146" rx="3.98058" fill="#E5CAFF"/>
<path d="M73.0487 363.844H72.0575V359.826H67.5793V363.844H66.5881V355.319H67.5793V358.952H72.0575V355.319H73.0487V363.844ZM77.4688 357.336C78.013 357.336 78.4795 357.457 78.8682 357.698C79.257 357.939 79.5543 358.277 79.7604 358.713C79.9664 359.144 80.0694 359.649 80.0694 360.229V360.829H75.6554C75.6671 361.579 75.8536 362.151 76.2152 362.543C76.5767 362.936 77.0859 363.132 77.7429 363.132C78.1471 363.132 78.5048 363.095 78.8158 363.022C79.1267 362.948 79.4494 362.839 79.7837 362.695V363.546C79.461 363.69 79.1403 363.795 78.8216 363.861C78.5067 363.927 78.1335 363.96 77.702 363.96C77.0879 363.96 76.5514 363.836 76.0927 363.587C75.6379 363.335 75.2842 362.965 75.0315 362.479C74.7788 361.993 74.6525 361.399 74.6525 360.695C74.6525 360.007 74.7671 359.412 74.9965 358.911C75.2297 358.405 75.5563 358.017 75.9761 357.745C76.3998 357.472 76.8974 357.336 77.4688 357.336ZM77.4572 358.129C76.9401 358.129 76.5281 358.299 76.221 358.637C75.9139 358.975 75.7312 359.447 75.6729 360.054H79.0548C79.0509 359.673 78.9907 359.338 78.8741 359.051C78.7613 358.759 78.5884 358.534 78.3551 358.374C78.1219 358.211 77.8226 358.129 77.4572 358.129ZM83.1192 357.336C83.5974 357.336 84.0114 357.403 84.3612 357.535C84.7111 357.663 84.9812 357.851 85.1717 358.1C85.3622 358.349 85.4574 358.652 85.4574 359.01C85.4574 359.395 85.3525 359.702 85.1426 359.931C84.9326 360.161 84.643 360.326 84.2737 360.427V360.473C84.5342 360.543 84.7694 360.645 84.9793 360.777C85.1931 360.905 85.3622 361.076 85.4866 361.29C85.6149 361.5 85.679 361.762 85.679 362.077C85.679 362.435 85.5818 362.757 85.3875 363.045C85.1931 363.329 84.8977 363.552 84.5011 363.715C84.1046 363.879 83.6032 363.96 82.9968 363.96C82.6974 363.96 82.4137 363.943 82.1455 363.908C81.8772 363.877 81.6343 363.83 81.4166 363.768C81.1989 363.706 81.0084 363.632 80.8452 363.546V362.666C81.1173 362.798 81.436 362.915 81.8014 363.016C82.1668 363.117 82.5614 363.167 82.9851 363.167C83.3116 363.167 83.6051 363.13 83.8656 363.057C84.126 362.979 84.3321 362.856 84.4837 362.689C84.6391 362.518 84.7169 362.295 84.7169 362.019C84.7169 361.766 84.6489 361.558 84.5128 361.395C84.3768 361.228 84.1727 361.105 83.9006 361.027C83.6323 360.946 83.2922 360.905 82.8802 360.905H82.023V360.112H82.7285C83.2767 360.112 83.714 360.034 84.0405 359.879C84.367 359.723 84.5303 359.461 84.5303 359.092C84.5303 358.773 84.404 358.536 84.1513 358.38C83.8986 358.221 83.5371 358.141 83.0667 358.141C82.7169 358.141 82.4078 358.178 82.1396 358.252C81.8714 358.322 81.5818 358.423 81.2708 358.555L80.9268 357.78C81.2611 357.632 81.611 357.521 81.9764 357.447C82.3418 357.373 82.7227 357.336 83.1192 357.336ZM87.9824 357.453V360.135H91.5451V357.453H92.5131V363.844H91.5451V360.957H87.9824V363.844H87.0087V357.453H87.9824ZM96.7174 357.348C97.4793 357.348 98.0449 357.519 98.4142 357.861C98.7835 358.203 98.9682 358.749 98.9682 359.5V363.844H98.2626L98.076 362.899H98.0294C97.8506 363.132 97.664 363.329 97.4696 363.488C97.2752 363.644 97.0498 363.762 96.7932 363.844C96.5405 363.921 96.2296 363.96 95.8603 363.96C95.4715 363.96 95.1256 363.892 94.8224 363.756C94.523 363.62 94.2859 363.414 94.111 363.138C93.9399 362.862 93.8544 362.512 93.8544 362.089C93.8544 361.451 94.1071 360.961 94.6125 360.619C95.1178 360.277 95.8875 360.091 96.9215 360.059L98.0235 360.013V359.622C98.0235 359.07 97.905 358.683 97.6679 358.462C97.4307 358.24 97.0964 358.129 96.6649 358.129C96.3306 358.129 96.0119 358.178 95.7087 358.275C95.4055 358.372 95.1178 358.487 94.8457 358.619L94.5483 357.885C94.836 357.737 95.1664 357.61 95.5396 357.506C95.9127 357.401 96.3054 357.348 96.7174 357.348ZM98.0119 360.695L97.0381 360.736C96.2412 360.767 95.6795 360.897 95.353 361.127C95.0264 361.356 94.8632 361.68 94.8632 362.1C94.8632 362.466 94.974 362.736 95.1955 362.911C95.4171 363.086 95.7106 363.173 96.076 363.173C96.6436 363.173 97.1081 363.016 97.4696 362.701C97.8311 362.386 98.0119 361.914 98.0119 361.284V360.695ZM101.569 357.453V359.75C101.569 360.151 101.678 360.446 101.896 360.637C102.117 360.827 102.438 360.922 102.858 360.922C103.262 360.922 103.629 360.86 103.96 360.736C104.29 360.611 104.624 360.442 104.963 360.229V357.453H105.931V363.844H104.963V360.981C104.605 361.21 104.253 361.391 103.907 361.523C103.561 361.655 103.147 361.721 102.665 361.721C102.008 361.721 101.499 361.55 101.137 361.208C100.78 360.866 100.601 360.404 100.601 359.82V357.453H101.569ZM108.66 357.453V361.471C108.66 361.548 108.658 361.649 108.654 361.774C108.65 361.894 108.644 362.024 108.636 362.164C108.629 362.3 108.621 362.433 108.613 362.561C108.609 362.685 108.603 362.788 108.595 362.87L112.082 357.453H113.272V363.844H112.368V359.925C112.368 359.801 112.37 359.642 112.374 359.447C112.378 359.253 112.384 359.062 112.391 358.876C112.399 358.685 112.405 358.538 112.409 358.433L108.934 363.844H107.738V357.453H108.66ZM119.447 358.275H117.342V363.844H116.386V358.275H114.31V357.453H119.447V358.275ZM122.934 357.336C123.478 357.336 123.945 357.457 124.334 357.698C124.722 357.939 125.02 358.277 125.226 358.713C125.432 359.144 125.535 359.649 125.535 360.229V360.829H121.121C121.132 361.579 121.319 362.151 121.681 362.543C122.042 362.936 122.551 363.132 123.208 363.132C123.613 363.132 123.97 363.095 124.281 363.022C124.592 362.948 124.915 362.839 125.249 362.695V363.546C124.926 363.69 124.606 363.795 124.287 363.861C123.972 363.927 123.599 363.96 123.167 363.96C122.553 363.96 122.017 363.836 121.558 363.587C121.103 363.335 120.75 362.965 120.497 362.479C120.244 361.993 120.118 361.399 120.118 360.695C120.118 360.007 120.233 359.412 120.462 358.911C120.695 358.405 121.022 358.017 121.441 357.745C121.865 357.472 122.363 357.336 122.934 357.336ZM122.923 358.129C122.406 358.129 121.993 358.299 121.686 358.637C121.379 358.975 121.197 359.447 121.138 360.054H124.52C124.516 359.673 124.456 359.338 124.339 359.051C124.227 358.759 124.054 358.534 123.821 358.374C123.587 358.211 123.288 358.129 122.923 358.129ZM131.733 363.844H130.748V358.264H128.806C128.728 359.27 128.629 360.133 128.509 360.852C128.392 361.568 128.244 362.153 128.066 362.608C127.891 363.059 127.677 363.391 127.424 363.605C127.175 363.815 126.878 363.92 126.532 363.92C126.427 363.92 126.328 363.914 126.235 363.902C126.141 363.89 126.062 363.871 125.996 363.844V363.109C126.046 363.125 126.099 363.136 126.153 363.144C126.211 363.152 126.272 363.156 126.334 363.156C126.509 363.156 126.668 363.084 126.812 362.94C126.96 362.792 127.092 362.571 127.209 362.275C127.329 361.98 127.436 361.607 127.529 361.156C127.623 360.701 127.704 360.166 127.774 359.552C127.848 358.934 127.912 358.234 127.967 357.453H131.733V363.844ZM134.509 360.089H136.468C137.012 360.089 137.465 360.157 137.827 360.293C138.188 360.429 138.459 360.631 138.637 360.899C138.82 361.167 138.911 361.5 138.911 361.896C138.911 362.293 138.822 362.637 138.643 362.928C138.468 363.22 138.196 363.445 137.827 363.605C137.461 363.764 136.989 363.844 136.41 363.844H133.535V357.453H134.509V360.089ZM137.938 361.943C137.938 361.55 137.798 361.278 137.518 361.127C137.242 360.971 136.855 360.893 136.357 360.893H134.509V363.057H136.363C136.83 363.057 137.209 362.971 137.5 362.8C137.792 362.625 137.938 362.339 137.938 361.943ZM141.314 357.453V360.135H144.877V357.453H145.845V363.844H144.877V360.957H141.314V363.844H140.34V357.453H141.314ZM147.658 363.844V357.453H148.632V360.089H150.381C150.926 360.089 151.373 360.157 151.722 360.293C152.076 360.429 152.339 360.631 152.51 360.899C152.681 361.167 152.766 361.5 152.766 361.896C152.766 362.293 152.681 362.637 152.51 362.928C152.342 363.22 152.078 363.445 151.717 363.605C151.359 363.764 150.893 363.844 150.317 363.844H147.658ZM148.632 363.057H150.224C150.706 363.057 151.091 362.971 151.378 362.8C151.666 362.629 151.81 362.343 151.81 361.943C151.81 361.55 151.676 361.278 151.408 361.127C151.139 360.971 150.755 360.893 150.253 360.893H148.632V363.057ZM153.822 363.844V357.453H154.79V363.844H153.822ZM158.119 360.573L155.909 357.453H157.017L158.702 359.914L160.382 357.453H161.478L159.268 360.573L161.6 363.844H160.492L158.702 361.237L156.901 363.844H155.804L158.119 360.573ZM168.475 357.336C169.272 357.336 169.908 357.61 170.382 358.159C170.856 358.707 171.094 359.531 171.094 360.631C171.094 361.358 170.985 361.968 170.767 362.462C170.549 362.956 170.242 363.329 169.846 363.581C169.453 363.834 168.989 363.96 168.452 363.96C168.114 363.96 167.817 363.916 167.56 363.826C167.303 363.737 167.084 363.616 166.901 363.465C166.718 363.313 166.567 363.148 166.446 362.969H166.376C166.388 363.121 166.402 363.303 166.417 363.517C166.437 363.731 166.446 363.918 166.446 364.077V366.701H165.472V357.453H166.271L166.4 358.398H166.446C166.571 358.203 166.722 358.026 166.901 357.867C167.08 357.704 167.298 357.575 167.554 357.482C167.815 357.385 168.122 357.336 168.475 357.336ZM168.306 358.153C167.863 358.153 167.506 358.238 167.233 358.409C166.965 358.58 166.769 358.837 166.645 359.179C166.52 359.517 166.454 359.943 166.446 360.456V360.643C166.446 361.183 166.505 361.64 166.621 362.013C166.742 362.386 166.938 362.67 167.21 362.864C167.486 363.059 167.855 363.156 168.318 363.156C168.714 363.156 169.045 363.049 169.309 362.835C169.574 362.621 169.77 362.324 169.898 361.943C170.03 361.558 170.096 361.117 170.096 360.619C170.096 359.865 169.949 359.266 169.653 358.823C169.362 358.376 168.913 358.153 168.306 358.153ZM173.467 357.453V361.471C173.467 361.548 173.465 361.649 173.461 361.774C173.457 361.894 173.451 362.024 173.444 362.164C173.436 362.3 173.428 362.433 173.42 362.561C173.416 362.685 173.411 362.788 173.403 362.87L176.89 357.453H178.079V363.844H177.175V359.925C177.175 359.801 177.177 359.642 177.181 359.447C177.185 359.253 177.191 359.062 177.199 358.876C177.207 358.685 177.212 358.538 177.216 358.433L173.741 363.844H172.546V357.453H173.467ZM182.458 363.96C181.883 363.96 181.376 363.842 180.937 363.605C180.497 363.368 180.155 363.006 179.91 362.52C179.665 362.034 179.543 361.422 179.543 360.683C179.543 359.91 179.671 359.278 179.928 358.788C180.188 358.295 180.546 357.929 181.001 357.692C181.456 357.455 181.973 357.336 182.552 357.336C182.871 357.336 183.178 357.369 183.473 357.436C183.772 357.498 184.017 357.577 184.208 357.675L183.916 358.485C183.722 358.407 183.496 358.337 183.24 358.275C182.987 358.213 182.75 358.182 182.528 358.182C182.085 358.182 181.716 358.277 181.421 358.468C181.129 358.658 180.909 358.938 180.762 359.307C180.618 359.677 180.546 360.131 180.546 360.672C180.546 361.189 180.616 361.63 180.756 361.995C180.9 362.361 181.112 362.641 181.391 362.835C181.675 363.025 182.029 363.121 182.453 363.121C182.791 363.121 183.096 363.086 183.368 363.016C183.64 362.942 183.887 362.856 184.109 362.759V363.622C183.895 363.731 183.656 363.815 183.391 363.873C183.131 363.931 182.82 363.96 182.458 363.96ZM189.112 357.453H190.179L187.421 360.538L190.4 363.844H189.263L186.36 360.602V363.844H185.386V357.453H186.36V360.555L189.112 357.453ZM196.826 360.637C196.826 361.162 196.758 361.63 196.622 362.042C196.486 362.454 196.29 362.802 196.033 363.086C195.777 363.37 195.466 363.587 195.1 363.739C194.739 363.887 194.329 363.96 193.87 363.96C193.442 363.96 193.05 363.887 192.692 363.739C192.338 363.587 192.031 363.37 191.771 363.086C191.514 362.802 191.314 362.454 191.17 362.042C191.03 361.63 190.96 361.162 190.96 360.637C190.96 359.937 191.079 359.342 191.316 358.852C191.553 358.359 191.891 357.984 192.331 357.727C192.774 357.467 193.301 357.336 193.911 357.336C194.494 357.336 195.003 357.467 195.439 357.727C195.878 357.988 196.218 358.365 196.459 358.858C196.704 359.348 196.826 359.941 196.826 360.637ZM191.963 360.637C191.963 361.15 192.031 361.595 192.167 361.972C192.303 362.349 192.513 362.641 192.797 362.847C193.081 363.053 193.446 363.156 193.893 363.156C194.337 363.156 194.7 363.053 194.984 362.847C195.271 362.641 195.483 362.349 195.619 361.972C195.755 361.595 195.823 361.15 195.823 360.637C195.823 360.128 195.755 359.688 195.619 359.319C195.483 358.946 195.273 358.658 194.99 358.456C194.706 358.254 194.338 358.153 193.888 358.153C193.223 358.153 192.735 358.372 192.424 358.812C192.117 359.251 191.963 359.859 191.963 360.637ZM203.34 359.057C203.34 359.457 203.223 359.77 202.99 359.995C202.757 360.217 202.455 360.367 202.086 360.444V360.491C202.486 360.545 202.83 360.689 203.118 360.922C203.41 361.152 203.555 361.504 203.555 361.978C203.555 362.343 203.468 362.666 203.293 362.946C203.118 363.226 202.844 363.445 202.471 363.605C202.098 363.764 201.612 363.844 201.013 363.844H198.261V357.453H200.99C201.449 357.453 201.853 357.506 202.203 357.61C202.556 357.712 202.834 357.879 203.037 358.112C203.239 358.345 203.34 358.66 203.34 359.057ZM202.547 361.978C202.547 361.601 202.403 361.329 202.115 361.162C201.831 360.994 201.417 360.911 200.873 360.911H199.235V363.057H200.897C201.433 363.057 201.841 362.975 202.121 362.812C202.405 362.645 202.547 362.367 202.547 361.978ZM202.354 359.167C202.354 358.864 202.244 358.639 202.022 358.491C201.8 358.339 201.437 358.264 200.932 358.264H199.235V360.1H200.762C201.287 360.1 201.684 360.024 201.952 359.873C202.22 359.721 202.354 359.486 202.354 359.167Z" fill="#5F5B70"/>
<path d="M226.911 355.202C227.405 355.202 227.85 355.28 228.246 355.436C228.643 355.587 228.958 355.815 229.191 356.118C229.424 356.421 229.541 356.796 229.541 357.243C229.541 357.589 229.469 357.89 229.325 358.147C229.185 358.403 228.995 358.629 228.754 358.823C228.513 359.014 228.242 359.183 227.943 359.331C228.277 359.494 228.585 359.682 228.864 359.896C229.148 360.106 229.376 360.353 229.547 360.637C229.722 360.921 229.809 361.253 229.809 361.634C229.809 362.112 229.687 362.526 229.442 362.876C229.201 363.222 228.864 363.49 228.433 363.68C228.001 363.867 227.498 363.96 226.923 363.96C226.305 363.96 225.778 363.869 225.343 363.686C224.907 363.504 224.577 363.243 224.351 362.905C224.126 362.563 224.013 362.155 224.013 361.68C224.013 361.288 224.091 360.948 224.246 360.66C224.402 360.372 224.61 360.124 224.87 359.914C225.135 359.704 225.424 359.527 225.739 359.383C225.471 359.224 225.226 359.045 225.004 358.847C224.783 358.645 224.606 358.413 224.474 358.153C224.345 357.888 224.281 357.583 224.281 357.237C224.281 356.794 224.4 356.423 224.637 356.124C224.874 355.82 225.191 355.591 225.587 355.436C225.988 355.28 226.429 355.202 226.911 355.202ZM225.319 361.628C225.319 362.001 225.451 362.308 225.716 362.549C225.98 362.79 226.375 362.911 226.899 362.911C227.42 362.911 227.817 362.792 228.089 362.555C228.361 362.318 228.497 362.005 228.497 361.616C228.497 361.368 228.427 361.148 228.287 360.957C228.151 360.767 227.966 360.598 227.733 360.45C227.504 360.299 227.249 360.159 226.969 360.03L226.783 359.955C226.48 360.083 226.219 360.229 226.001 360.392C225.784 360.551 225.615 360.732 225.494 360.934C225.378 361.136 225.319 361.368 225.319 361.628ZM226.899 356.258C226.522 356.258 226.211 356.351 225.966 356.538C225.725 356.72 225.605 356.985 225.605 357.331C225.605 357.575 225.663 357.785 225.78 357.96C225.9 358.135 226.062 358.287 226.264 358.415C226.466 358.54 226.69 358.656 226.934 358.765C227.172 358.66 227.385 358.545 227.576 358.421C227.77 358.293 227.924 358.141 228.036 357.966C228.153 357.787 228.211 357.574 228.211 357.325C228.211 356.983 228.089 356.72 227.844 356.538C227.603 356.351 227.288 356.258 226.899 356.258ZM237.524 355.319L234.346 363.844H233.063L236.241 355.319H237.524ZM244.813 363.844H243.437V358.357C243.437 358.174 243.439 357.991 243.443 357.809C243.447 357.626 243.45 357.447 243.454 357.272C243.462 357.097 243.472 356.93 243.484 356.771C243.402 356.86 243.301 356.957 243.18 357.062C243.064 357.167 242.939 357.276 242.807 357.389L241.828 358.17L241.14 357.301L243.67 355.319H244.813V363.844ZM251.408 363.844H250.032V358.357C250.032 358.174 250.034 357.991 250.038 357.809C250.042 357.626 250.046 357.447 250.049 357.272C250.057 357.097 250.067 356.93 250.079 356.771C249.997 356.86 249.896 356.957 249.775 357.062C249.659 357.167 249.534 357.276 249.402 357.389L248.423 358.17L247.735 357.301L250.265 355.319H251.408V363.844Z" fill="#0D0628"/>
<path d="M64.633 41.5772C63.9741 41.5772 63.3822 41.6938 62.8575 41.9271C62.3385 42.1545 61.8983 42.4897 61.5368 42.9329C61.1752 43.3702 60.8983 43.8979 60.7059 44.516C60.5134 45.1341 60.4172 45.8309 60.4172 46.6064C60.4172 47.6385 60.5688 48.5306 60.872 49.2828C61.1811 50.035 61.6446 50.6151 62.2627 51.0233C62.8808 51.4315 63.6592 51.6356 64.598 51.6356C65.1578 51.6356 65.6913 51.586 66.1986 51.4869C66.7117 51.3819 67.2219 51.2478 67.7292 51.0845V52.6239C67.2394 52.8105 66.7321 52.9475 66.2073 53.035C65.6884 53.1283 65.079 53.1749 64.3793 53.1749C63.0732 53.1749 61.9857 52.9038 61.1169 52.3615C60.254 51.8192 59.6096 51.0583 59.184 50.0787C58.7583 49.0933 58.5455 47.9329 58.5455 46.5976C58.5455 45.6297 58.6796 44.7463 58.9478 43.9475C59.216 43.1428 59.6096 42.4489 60.1286 41.8658C60.6475 41.2769 61.2831 40.825 62.0353 40.5101C62.7933 40.1894 63.665 40.0291 64.6505 40.0291C65.2919 40.0291 65.9158 40.0991 66.5222 40.239C67.1345 40.3731 67.6971 40.5626 68.2103 40.8075L67.5455 42.3032C67.1199 42.1107 66.6621 41.9416 66.1723 41.7959C65.6884 41.6501 65.1753 41.5772 64.633 41.5772ZM76.8433 44.7871H73.6771V53H71.9278V44.7871H68.7966V43.3615H76.8433V44.7871ZM82.0478 43.1953C83.2373 43.1953 84.1265 43.4606 84.7154 43.9912C85.3043 44.516 85.5988 45.3469 85.5988 46.4839V53H84.3393L83.9982 51.6006H83.9282C83.66 51.9504 83.3801 52.242 83.0886 52.4752C82.797 52.7085 82.4588 52.8834 82.074 53C81.695 53.1166 81.2314 53.1749 80.6833 53.1749C80.1002 53.1749 79.5813 53.07 79.1265 52.8601C78.6716 52.6501 78.313 52.3353 78.0507 51.9154C77.7941 51.4898 77.6658 50.9504 77.6658 50.2974C77.6658 49.3178 78.0419 48.5743 78.7941 48.067C79.5463 47.5597 80.6862 47.2828 82.2139 47.2361L83.8758 47.1662V46.6239C83.8758 45.8717 83.7067 45.3411 83.3685 45.032C83.0361 44.723 82.5696 44.5685 81.969 44.5685C81.4734 44.5685 80.9982 44.6414 80.5434 44.7871C80.0886 44.9271 79.6512 45.0962 79.2314 45.2944L78.6716 44.0175C79.1265 43.7842 79.6425 43.5889 80.2198 43.4314C80.8029 43.274 81.4122 43.1953 82.0478 43.1953ZM83.8583 48.3207L82.5113 48.3819C81.3976 48.4227 80.6133 48.6093 80.1585 48.9417C79.7096 49.2682 79.4851 49.7259 79.4851 50.3149C79.4851 50.828 79.6396 51.2041 79.9486 51.4431C80.2577 51.6822 80.6658 51.8017 81.1731 51.8017C81.9545 51.8017 82.5959 51.5831 83.0973 51.1458C83.6046 50.7026 83.8583 50.0495 83.8583 49.1866V48.3207ZM95.1065 44.7871H91.9403V53H90.191V44.7871H87.0598V43.3615H95.1065V44.7871ZM98.308 43.3615V48.8542C98.308 48.9883 98.3022 49.1632 98.2905 49.379C98.2847 49.5889 98.273 49.8105 98.2555 50.0437C98.2439 50.277 98.2322 50.4956 98.2205 50.6997C98.2089 50.9038 98.1972 51.0612 98.1856 51.172L103.232 43.3615H105.375V53H103.713V47.6122C103.713 47.3965 103.716 47.1312 103.722 46.8163C103.734 46.4956 103.748 46.1866 103.766 45.8892C103.783 45.5918 103.795 45.3615 103.801 45.1982L98.7716 53H96.62V43.3615H98.308ZM111.909 53.1749C111.023 53.1749 110.247 52.9971 109.582 52.6414C108.918 52.2857 108.402 51.7434 108.034 51.0146C107.673 50.2799 107.492 49.3528 107.492 48.2332C107.492 47.067 107.687 46.1137 108.078 45.3731C108.469 44.6268 109.008 44.0758 109.696 43.7201C110.39 43.3644 111.183 43.1865 112.075 43.1865C112.6 43.1865 113.09 43.239 113.545 43.344C114.005 43.4489 114.39 43.5801 114.699 43.7376L114.174 45.1632C113.848 45.0349 113.495 44.9212 113.116 44.8221C112.743 44.723 112.387 44.6734 112.049 44.6734C111.431 44.6734 110.918 44.8105 110.51 45.0845C110.107 45.3527 109.804 45.7492 109.6 46.274C109.396 46.7988 109.294 47.446 109.294 48.2157C109.294 48.9621 109.393 49.5947 109.591 50.1137C109.795 50.6268 110.093 51.0175 110.483 51.2857C110.88 51.5539 111.373 51.688 111.961 51.688C112.48 51.688 112.947 51.6297 113.361 51.5131C113.775 51.3965 114.157 51.2478 114.507 51.067V52.6152C114.168 52.8017 113.795 52.9417 113.387 53.035C112.979 53.1283 112.486 53.1749 111.909 53.1749ZM123.35 44.7871H120.183V53H118.434V44.7871H115.303V43.3615H123.35V44.7871ZM126.551 43.3615V48.8542C126.551 48.9883 126.545 49.1632 126.534 49.379C126.528 49.5889 126.516 49.8105 126.499 50.0437C126.487 50.277 126.475 50.4956 126.464 50.6997C126.452 50.9038 126.44 51.0612 126.429 51.172L131.475 43.3615H133.618V53H131.956V47.6122C131.956 47.3965 131.959 47.1312 131.965 46.8163C131.977 46.4956 131.991 46.1866 132.009 45.8892C132.026 45.5918 132.038 45.3615 132.044 45.1982L127.015 53H124.863V43.3615H126.551ZM142.076 43.3615H144.009L139.942 48.0058L144.342 53H142.313L138.044 48.1108V53H136.278V43.3615H138.044V48.0408L142.076 43.3615ZM149.336 43.1953C150.526 43.1953 151.415 43.4606 152.004 43.9912C152.593 44.516 152.887 45.3469 152.887 46.4839V53H151.628L151.287 51.6006H151.217C150.948 51.9504 150.669 52.242 150.377 52.4752C150.086 52.7085 149.747 52.8834 149.362 53C148.983 53.1166 148.52 53.1749 147.972 53.1749C147.389 53.1749 146.87 53.07 146.415 52.8601C145.96 52.6501 145.602 52.3353 145.339 51.9154C145.083 51.4898 144.954 50.9504 144.954 50.2974C144.954 49.3178 145.33 48.5743 146.083 48.067C146.835 47.5597 147.975 47.2828 149.502 47.2361L151.164 47.1662V46.6239C151.164 45.8717 150.995 45.3411 150.657 45.032C150.325 44.723 149.858 44.5685 149.258 44.5685C148.762 44.5685 148.287 44.6414 147.832 44.7871C147.377 44.9271 146.94 45.0962 146.52 45.2944L145.96 44.0175C146.415 43.7842 146.931 43.5889 147.508 43.4314C148.091 43.274 148.701 43.1953 149.336 43.1953ZM151.147 48.3207L149.8 48.3819C148.686 48.4227 147.902 48.6093 147.447 48.9417C146.998 49.2682 146.774 49.7259 146.774 50.3149C146.774 50.828 146.928 51.2041 147.237 51.4431C147.546 51.6822 147.954 51.8017 148.462 51.8017C149.243 51.8017 149.884 51.5831 150.386 51.1458C150.893 50.7026 151.147 50.0495 151.147 49.1866V48.3207ZM168.01 43.3615V53H166.244V44.8046H161.529V53H159.763V43.3615H168.01ZM179.075 48.1632C179.075 48.9562 178.97 49.6647 178.76 50.2886C178.556 50.9067 178.256 51.4315 177.859 51.863C177.469 52.2886 176.996 52.6152 176.442 52.8426C175.888 53.0641 175.262 53.1749 174.562 53.1749C173.909 53.1749 173.308 53.0641 172.76 52.8426C172.218 52.6152 171.748 52.2886 171.352 51.863C170.955 51.4315 170.649 50.9067 170.434 50.2886C170.218 49.6647 170.11 48.9562 170.11 48.1632C170.11 47.1078 170.291 46.2099 170.652 45.4694C171.014 44.723 171.53 44.1574 172.2 43.7726C172.877 43.3819 173.681 43.1865 174.614 43.1865C175.501 43.1865 176.279 43.3819 176.95 43.7726C177.62 44.1632 178.142 44.7288 178.515 45.4694C178.888 46.2099 179.075 47.1078 179.075 48.1632ZM171.912 48.1632C171.912 48.9038 172.005 49.5423 172.192 50.0787C172.384 50.6093 172.676 51.0175 173.066 51.3032C173.463 51.5889 173.973 51.7318 174.597 51.7318C175.209 51.7318 175.714 51.5889 176.11 51.3032C176.507 51.0175 176.798 50.6093 176.985 50.0787C177.171 49.5423 177.265 48.9038 177.265 48.1632C177.265 47.4285 177.171 46.7988 176.985 46.274C176.798 45.7492 176.507 45.3469 176.11 45.067C175.719 44.7871 175.209 44.6472 174.579 44.6472C173.658 44.6472 172.982 44.9562 172.55 45.5743C172.125 46.1866 171.912 47.0495 171.912 48.1632ZM190.192 43.1865C191.364 43.1865 192.3 43.6035 193 44.4373C193.706 45.2653 194.058 46.5043 194.058 48.1545C194.058 49.2507 193.895 50.172 193.569 50.9184C193.248 51.6589 192.793 52.2216 192.204 52.6064C191.621 52.9854 190.936 53.1749 190.149 53.1749C189.653 53.1749 189.219 53.1108 188.845 52.9825C188.472 52.8484 188.152 52.6735 187.883 52.4577C187.621 52.2361 187.399 52 187.219 51.7493H187.105C187.128 51.9767 187.152 52.242 187.175 52.5452C187.204 52.8426 187.219 53.1108 187.219 53.3499V57.2857H185.452V43.3615H186.895L187.131 44.7434H187.219C187.399 44.4577 187.621 44.1982 187.883 43.965C188.152 43.7259 188.475 43.5364 188.854 43.3965C189.233 43.2565 189.679 43.1865 190.192 43.1865ZM189.79 44.6384C189.172 44.6384 188.676 44.7609 188.303 45.0058C187.936 45.2449 187.665 45.6035 187.49 46.0816C187.321 46.5597 187.23 47.1603 187.219 47.8834V48.1632C187.219 48.9329 187.3 49.5831 187.464 50.1137C187.627 50.6385 187.898 51.0408 188.277 51.3207C188.656 51.5947 189.166 51.7318 189.808 51.7318C190.356 51.7318 190.81 51.5831 191.172 51.2857C191.539 50.9883 191.81 50.5685 191.985 50.0262C192.166 49.4839 192.257 48.8542 192.257 48.137C192.257 47.0466 192.055 46.1924 191.653 45.5743C191.251 44.9504 190.63 44.6384 189.79 44.6384ZM197.837 43.3615V48.8542C197.837 48.9883 197.831 49.1632 197.82 49.379C197.814 49.5889 197.802 49.8105 197.785 50.0437C197.773 50.277 197.761 50.4956 197.75 50.6997C197.738 50.9038 197.726 51.0612 197.715 51.172L202.761 43.3615H204.904V53H203.242V47.6122C203.242 47.3965 203.245 47.1312 203.251 46.8163C203.263 46.4956 203.277 46.1866 203.295 45.8892C203.312 45.5918 203.324 45.3615 203.33 45.1982L198.301 53H196.149V43.3615H197.837ZM211.438 53.1749C210.552 53.1749 209.776 52.9971 209.112 52.6414C208.447 52.2857 207.931 51.7434 207.563 51.0146C207.202 50.2799 207.021 49.3528 207.021 48.2332C207.021 47.067 207.217 46.1137 207.607 45.3731C207.998 44.6268 208.537 44.0758 209.225 43.7201C209.919 43.3644 210.712 43.1865 211.604 43.1865C212.129 43.1865 212.619 43.239 213.074 43.344C213.534 43.4489 213.919 43.5801 214.228 43.7376L213.703 45.1632C213.377 45.0349 213.024 44.9212 212.645 44.8221C212.272 44.723 211.916 44.6734 211.578 44.6734C210.96 44.6734 210.447 44.8105 210.039 45.0845C209.636 45.3527 209.333 45.7492 209.129 46.274C208.925 46.7988 208.823 47.446 208.823 48.2157C208.823 48.9621 208.922 49.5947 209.12 50.1137C209.324 50.6268 209.622 51.0175 210.012 51.2857C210.409 51.5539 210.902 51.688 211.491 51.688C212.01 51.688 212.476 51.6297 212.89 51.5131C213.304 51.3965 213.686 51.2478 214.036 51.067V52.6152C213.698 52.8017 213.324 52.9417 212.916 53.035C212.508 53.1283 212.015 53.1749 211.438 53.1749ZM221.75 43.3615H223.683L219.616 48.0058L224.016 53H221.987L217.718 48.1108V53H215.952V43.3615H217.718V48.0408L221.75 43.3615ZM229.01 43.1953C230.2 43.1953 231.089 43.4606 231.678 43.9912C232.267 44.516 232.561 45.3469 232.561 46.4839V53H231.302L230.961 51.6006H230.891C230.623 51.9504 230.343 52.242 230.051 52.4752C229.76 52.7085 229.421 52.8834 229.037 53C228.658 53.1166 228.194 53.1749 227.646 53.1749C227.063 53.1749 226.544 53.07 226.089 52.8601C225.634 52.6501 225.276 52.3353 225.013 51.9154C224.757 51.4898 224.628 50.9504 224.628 50.2974C224.628 49.3178 225.004 48.5743 225.757 48.067C226.509 47.5597 227.649 47.2828 229.176 47.2361L230.838 47.1662V46.6239C230.838 45.8717 230.669 45.3411 230.331 45.032C229.999 44.723 229.532 44.5685 228.932 44.5685C228.436 44.5685 227.961 44.6414 227.506 44.7871C227.051 44.9271 226.614 45.0962 226.194 45.2944L225.634 44.0175C226.089 43.7842 226.605 43.5889 227.182 43.4314C227.765 43.274 228.375 43.1953 229.01 43.1953ZM230.821 48.3207L229.474 48.3819C228.36 48.4227 227.576 48.6093 227.121 48.9417C226.672 49.2682 226.448 49.7259 226.448 50.3149C226.448 50.828 226.602 51.2041 226.911 51.4431C227.22 51.6822 227.628 51.8017 228.136 51.8017C228.917 51.8017 229.558 51.5831 230.06 51.1458C230.567 50.7026 230.821 50.0495 230.821 49.1866V48.3207ZM245.812 43.3615V53H244.212V47.1137C244.212 46.8046 244.218 46.4956 244.229 46.1866C244.247 45.8717 244.267 45.5656 244.291 45.2682H244.238L241.177 53H239.751L236.734 45.2594H236.681C236.705 45.5568 236.722 45.8629 236.734 46.1778C236.745 46.4868 236.751 46.8192 236.751 47.1749V53H235.142V43.3615H237.547L240.477 50.9009L243.451 43.3615H245.812Z" fill="#0D0628"/>
</g>
<defs>
<filter id="filter0_dddd_2984_19435" x="0" y="0" width="506" height="477" filterUnits="userSpaceOnUse" color-interpolation-filters="sRGB">
<feFlood flood-opacity="0" result="BackgroundImageFix"/>
<feColorMatrix in="SourceAlpha" type="matrix" values="0 0 0 0 0 0 0 0 0 0 0 0 0 0 0 0 0 0 127 0" result="hardAlpha"/>
<feOffset dx="2" dy="3"/>
<feGaussianBlur stdDeviation="4"/>
<feColorMatrix type="matrix" values="0 0 0 0 0.219608 0 0 0 0 0.219608 0 0 0 0 0.219608 0 0 0 0.05 0"/>
<feBlend mode="normal" in2="BackgroundImageFix" result="effect1_dropShadow_2984_19435"/>
<feColorMatrix in="SourceAlpha" type="matrix" values="0 0 0 0 0 0 0 0 0 0 0 0 0 0 0 0 0 0 127 0" result="hardAlpha"/>
<feOffset dx="9" dy="12"/>
<feGaussianBlur stdDeviation="7.5"/>
<feColorMatrix type="matrix" values="0 0 0 0 0.219608 0 0 0 0 0.219608 0 0 0 0 0.219608 0 0 0 0.05 0"/>
<feBlend mode="normal" in2="effect1_dropShadow_2984_19435" result="effect2_dropShadow_2984_19435"/>
<feColorMatrix in="SourceAlpha" type="matrix" values="0 0 0 0 0 0 0 0 0 0 0 0 0 0 0 0 0 0 127 0" result="hardAlpha"/>
<feOffset dx="20" dy="28"/>
<feGaussianBlur stdDeviation="10.5"/>
<feColorMatrix type="matrix" values="0 0 0 0 0.219608 0 0 0 0 0.219608 0 0 0 0 0.219608 0 0 0 0.03 0"/>
<feBlend mode="normal" in2="effect2_dropShadow_2984_19435" result="effect3_dropShadow_2984_19435"/>
<feColorMatrix in="SourceAlpha" type="matrix" values="0 0 0 0 0 0 0 0 0 0 0 0 0 0 0 0 0 0 127 0" result="hardAlpha"/>
<feOffset dx="36" dy="50"/>
<feGaussianBlur stdDeviation="12.5"/>
<feColorMatrix type="matrix" values="0 0 0 0 0.219608 0 0 0 0 0.219608 0 0 0 0 0.219608 0 0 0 0.01 0"/>
<feBlend mode="normal" in2="effect3_dropShadow_2984_19435" result="effect4_dropShadow_2984_19435"/>
<feBlend mode="normal" in="SourceGraphic" in2="effect4_dropShadow_2984_19435" result="shape"/>
</filter>
<filter id="filter1_f_2984_19435" x="260.75" y="-10.5275" width="76.3598" height="430.36" filterUnits="userSpaceOnUse" color-interpolation-filters="sRGB">
<feFlood flood-opacity="0" result="BackgroundImageFix"/>
<feBlend mode="normal" in="SourceGraphic" in2="BackgroundImageFix" result="shape"/>
<feGaussianBlur stdDeviation="14.3399" result="effect1_foregroundBlur_2984_19435"/>
</filter>
<linearGradient id="paint0_linear_2984_19435" x1="418.715" y1="28.1816" x2="422.192" y2="373.505" gradientUnits="userSpaceOnUse">
<stop stop-color="#34532A" stop-opacity="0"/>
<stop offset="1" stop-color="#34532A"/>
</linearGradient>
<linearGradient id="paint1_linear_2984_19435" x1="-22.7041" y1="22.7403" x2="285.22" y2="400.105" gradientUnits="userSpaceOnUse">
<stop stop-opacity="0"/>
<stop offset="1"/>
</linearGradient>
<clipPath id="clip0_2984_19435">
<rect x="189.43" y="34" width="255.569" height="339.302" rx="24" fill="white"/>
</clipPath>
</defs>
</svg>
